<?xml version="1.0" encoding="UTF-8" standalone="no"?>
<!-- Created with Inkscape (http://www.inkscape.org/) -->

<svg
   xmlns:dc="http://purl.org/dc/elements/1.1/"
   xmlns:cc="http://creativecommons.org/ns#"
   xmlns:rdf="http://www.w3.org/1999/02/22-rdf-syntax-ns#"
   xmlns:svg="http://www.w3.org/2000/svg"
   xmlns="http://www.w3.org/2000/svg"
   xmlns:sodipodi="http://sodipodi.sourceforge.net/DTD/sodipodi-0.dtd"
   xmlns:inkscape="http://www.inkscape.org/namespaces/inkscape"
   id="svg2"
   version="1.1"
   inkscape:version="0.48.3.1 r9886"
   width="630"
   height="630"
   xml:space="preserve"
   sodipodi:docname="lcfit_plots.pdf"><metadata
     id="metadata8"><rdf:RDF><cc:Work
         rdf:about=""><dc:format>image/svg+xml</dc:format><dc:type
           rdf:resource="http://purl.org/dc/dcmitype/StillImage" /><dc:title></dc:title></cc:Work></rdf:RDF></metadata><defs
     id="defs6"><clipPath
       clipPathUnits="userSpaceOnUse"
       id="clipPath30"><path
         d="m 63.74,37.28 351.71,0 0,419.51 -351.71,0 0,-419.51 z"
         id="path32" /></clipPath></defs><sodipodi:namedview
     pagecolor="#ffffff"
     bordercolor="#666666"
     borderopacity="1"
     objecttolerance="10"
     gridtolerance="10"
     guidetolerance="10"
     inkscape:pageopacity="0"
     inkscape:pageshadow="2"
     inkscape:window-width="1244"
     inkscape:window-height="805"
     id="namedview4"
     showgrid="false"
     inkscape:zoom="0.37460317"
     inkscape:cx="315"
     inkscape:cy="315"
     inkscape:window-x="1440"
     inkscape:window-y="0"
     inkscape:window-maximized="0"
     inkscape:current-layer="g10" /><g
     id="g10"
     inkscape:groupmode="layer"
     inkscape:label="lcfit_plots"
     transform="matrix(1.25,0,0,-1.25,0,630)"><g
       id="g12" /><g
       id="g14" /><g
       id="g16"><path
         d="M 0,0 504,0 504,504 0,504 0,0 z"
         style="fill:#ffffff;fill-opacity:1;fill-rule:nonzero;stroke:#ffffff;stroke-opacity:1;stroke-width:1.06;stroke-linecap:round;stroke-linejoin:round;stroke-miterlimit:10;stroke-dasharray:none"
         id="path18" /></g><g
       id="g20" /><g
       id="g22" /><g
       id="g24" /><g
       id="g26"><g
         id="g28"
         clip-path="url(#clipPath30)"><path
           d="m 63.74,37.28 351.71,0 0,419.51 -351.71,0 0,-419.51 z"
           style="fill:#e5e5e5;fill-opacity:1;fill-rule:nonzero;stroke:none"
           id="path34" /><path
           d="m 63.74,75.74 351.72,0"
           style="fill:none;stroke:#f2f2f2;stroke-opacity:1;stroke-width:0.53;stroke-linecap:butt;stroke-linejoin:round;stroke-miterlimit:10;stroke-dasharray:none"
           id="path36" /><path
           d="m 63.74,174.64 351.72,0"
           style="fill:none;stroke:#f2f2f2;stroke-opacity:1;stroke-width:0.53;stroke-linecap:butt;stroke-linejoin:round;stroke-miterlimit:10;stroke-dasharray:none"
           id="path38" /><path
           d="m 63.74,273.55 351.72,0"
           style="fill:none;stroke:#f2f2f2;stroke-opacity:1;stroke-width:0.53;stroke-linecap:butt;stroke-linejoin:round;stroke-miterlimit:10;stroke-dasharray:none"
           id="path40" /><path
           d="m 63.74,372.45 351.72,0"
           style="fill:none;stroke:#f2f2f2;stroke-opacity:1;stroke-width:0.53;stroke-linecap:butt;stroke-linejoin:round;stroke-miterlimit:10;stroke-dasharray:none"
           id="path42" /><path
           d="m 119.7,37.28 0,419.52"
           style="fill:none;stroke:#f2f2f2;stroke-opacity:1;stroke-width:0.53;stroke-linecap:butt;stroke-linejoin:round;stroke-miterlimit:10;stroke-dasharray:none"
           id="path44" /><path
           d="m 199.63,37.28 0,419.52"
           style="fill:none;stroke:#f2f2f2;stroke-opacity:1;stroke-width:0.53;stroke-linecap:butt;stroke-linejoin:round;stroke-miterlimit:10;stroke-dasharray:none"
           id="path46" /><path
           d="m 279.57,37.28 0,419.52"
           style="fill:none;stroke:#f2f2f2;stroke-opacity:1;stroke-width:0.53;stroke-linecap:butt;stroke-linejoin:round;stroke-miterlimit:10;stroke-dasharray:none"
           id="path48" /><path
           d="m 359.5,37.28 0,419.52"
           style="fill:none;stroke:#f2f2f2;stroke-opacity:1;stroke-width:0.53;stroke-linecap:butt;stroke-linejoin:round;stroke-miterlimit:10;stroke-dasharray:none"
           id="path50" /><path
           d="m 63.74,125.19 351.72,0"
           style="fill:none;stroke:#ffffff;stroke-opacity:1;stroke-width:1.06;stroke-linecap:butt;stroke-linejoin:round;stroke-miterlimit:10;stroke-dasharray:none"
           id="path52" /><path
           d="m 63.74,224.09 351.72,0"
           style="fill:none;stroke:#ffffff;stroke-opacity:1;stroke-width:1.06;stroke-linecap:butt;stroke-linejoin:round;stroke-miterlimit:10;stroke-dasharray:none"
           id="path54" /><path
           d="m 63.74,323 351.72,0"
           style="fill:none;stroke:#ffffff;stroke-opacity:1;stroke-width:1.06;stroke-linecap:butt;stroke-linejoin:round;stroke-miterlimit:10;stroke-dasharray:none"
           id="path56" /><path
           d="m 63.74,421.9 351.72,0"
           style="fill:none;stroke:#ffffff;stroke-opacity:1;stroke-width:1.06;stroke-linecap:butt;stroke-linejoin:round;stroke-miterlimit:10;stroke-dasharray:none"
           id="path58" /><path
           d="m 79.73,37.28 0,419.52"
           style="fill:none;stroke:#ffffff;stroke-opacity:1;stroke-width:1.06;stroke-linecap:butt;stroke-linejoin:round;stroke-miterlimit:10;stroke-dasharray:none"
           id="path60" /><path
           d="m 159.66,37.28 0,419.52"
           style="fill:none;stroke:#ffffff;stroke-opacity:1;stroke-width:1.06;stroke-linecap:butt;stroke-linejoin:round;stroke-miterlimit:10;stroke-dasharray:none"
           id="path62" /><path
           d="m 239.6,37.28 0,419.52"
           style="fill:none;stroke:#ffffff;stroke-opacity:1;stroke-width:1.06;stroke-linecap:butt;stroke-linejoin:round;stroke-miterlimit:10;stroke-dasharray:none"
           id="path64" /><path
           d="m 319.53,37.28 0,419.52"
           style="fill:none;stroke:#ffffff;stroke-opacity:1;stroke-width:1.06;stroke-linecap:butt;stroke-linejoin:round;stroke-miterlimit:10;stroke-dasharray:none"
           id="path66" /><path
           d="m 399.47,37.28 0,419.52"
           style="fill:none;stroke:#ffffff;stroke-opacity:1;stroke-width:1.06;stroke-linecap:butt;stroke-linejoin:round;stroke-miterlimit:10;stroke-dasharray:none"
           id="path68" /><path
           d="m 81.33,56.35 1.6,13.85 1.6,13.84 1.59,12.66 1.6,12.66 1.6,11.87 1.6,11.48 1.6,11.47 1.6,10.68 1.6,10.29 1.6,9.89 1.59,9.89 1.6,9.1 1.6,9.1 1.6,8.7 1.6,8.31 1.6,8.31 1.6,7.51 1.59,7.52 1.6,7.52 1.6,6.72 1.6,7.12 1.6,6.33 1.6,6.33 1.6,6.33 1.6,5.94 1.59,5.53 1.6,5.54 1.6,5.15 1.6,5.14 1.6,5.14 1.6,4.75 1.6,4.75 1.6,4.35 1.59,4.35 1.6,4.35 1.6,3.96 1.6,3.96 1.6,3.56 1.6,3.95 1.6,3.17 1.6,3.56 1.59,3.16 1.6,3.17 1.6,3.16 1.6,2.77 1.6,3.17 1.6,2.77 1.6,2.37 1.59,2.77 1.6,2.37 1.6,2.38 1.6,2.37 1.6,1.98 1.6,2.37 1.6,1.98 1.6,1.98 1.59,1.98 1.6,1.58 1.6,1.98 1.6,1.58 1.6,1.58 1.6,1.58 1.6,1.59 1.6,1.18 1.59,1.59 1.6,1.18 1.6,1.59 1.6,1.18 1.6,1.19 1.6,1.19 1.6,0.79 1.59,1.18 1.6,1.19 1.6,0.79 1.6,0.79 1.6,0.79 1.6,1.19 1.6,0.79 1.6,0.4 1.59,0.79 1.6,0.79 1.6,0.79 1.6,0.4 1.6,0.79 1.6,0.39 1.6,0.8 1.6,0.39 1.59,0.4 1.6,0.39 1.6,0.4 1.6,0.39 1.6,0.4 1.6,0.39 1.6,0.4 1.59,0.4 1.6,0.39 1.6,0 1.6,0.4"
           style="fill:none;stroke:#f8766d;stroke-opacity:1;stroke-width:1.06;stroke-linecap:butt;stroke-linejoin:round;stroke-miterlimit:1;stroke-dasharray:none"
           id="path70" /><path
           d="m 81.33,62.68 1.6,13.06 1.6,12.26 1.59,12.27 1.6,11.86 1.6,11.48 1.6,10.68 1.6,11.08 1.6,10.28 1.6,9.89 1.6,9.89 1.59,9.5 1.6,9.1 1.6,8.7 1.6,8.7 1.6,7.92 1.6,8.3 1.6,7.52 1.59,7.52 1.6,7.51 1.6,6.73 1.6,7.12 1.6,6.33 1.6,6.33 1.6,6.33 1.6,5.93 1.59,5.94 1.6,5.54 1.6,5.14 1.6,5.54 1.6,4.75 1.6,5.14 1.6,4.35 1.6,4.75 1.59,4.35 1.6,4.35 1.6,3.96 1.6,3.96 1.6,3.95 1.6,3.56 1.6,3.56 1.6,3.56 1.59,3.17 1.6,3.16 1.6,3.17 1.6,3.16 1.6,2.77 1.6,2.77 1.6,2.77 1.59,2.37 1.6,2.77 1.6,2.38 1.6,1.98 1.6,2.37 1.6,1.98 1.6,2.37 1.6,1.98 1.59,1.58 1.6,1.98 1.6,1.58 1.6,1.98 1.6,1.58 1.6,1.59 1.6,1.58 1.6,1.18 1.59,1.59 1.6,1.18 1.6,1.19 1.6,1.19 1.6,1.18 1.6,1.19 1.6,1.19 1.59,0.79 1.6,1.19 1.6,0.79 1.6,0.79 1.6,0.79 1.6,0.79 1.6,0.79 1.6,0.79 1.59,0.79 1.6,0.8 1.6,0.39 1.6,0.79 1.6,0.4 1.6,0.39 1.6,0.8 1.6,0.39 1.59,0.4 1.6,0.39 1.6,0.4 1.6,0.39 1.6,0.4 1.6,0.39 1.6,0 1.59,0.4 1.6,0.4 1.6,0 1.6,0.39"
           style="fill:none;stroke:#00bfc4;stroke-opacity:1;stroke-width:1.06;stroke-linecap:butt;stroke-linejoin:round;stroke-miterlimit:1;stroke-dasharray:2.13,2.13;stroke-dashoffset:0"
           id="path72" /><text
           transform="matrix(1,0,0,-1,93.38,163.1)"
           id="text74"><tspan
             style="fill:#f8766d;fill-opacity:1;fill-rule:nonzero;stroke:none;font-family:ZapfDingbats;font-variant:normal;font-weight:normal;font-size:5.89;writing-mode:lr;-inkscape-font-specification:ZapfDingbats"
             x="0"
             y="0"
             id="tspan76">q</tspan></text>
<text
           transform="matrix(1,0,0,-1,109.37,248.95)"
           id="text78"><tspan
             style="fill:#f8766d;fill-opacity:1;fill-rule:nonzero;stroke:none;font-family:ZapfDingbats;font-variant:normal;font-weight:normal;font-size:5.89;writing-mode:lr;-inkscape-font-specification:ZapfDingbats"
             x="0"
             y="0"
             id="tspan80">q</tspan></text>
<text
           transform="matrix(1,0,0,-1,157.33,382.28)"
           id="text82"><tspan
             style="fill:#f8766d;fill-opacity:1;fill-rule:nonzero;stroke:none;font-family:ZapfDingbats;font-variant:normal;font-weight:normal;font-size:5.89;writing-mode:lr;-inkscape-font-specification:ZapfDingbats"
             x="0"
             y="0"
             id="tspan84">q</tspan></text>
<text
           transform="matrix(1,0,0,-1,237.27,435.68)"
           id="text86"><tspan
             style="fill:#f8766d;fill-opacity:1;fill-rule:nonzero;stroke:none;font-family:ZapfDingbats;font-variant:normal;font-weight:normal;font-size:5.89;writing-mode:lr;-inkscape-font-specification:ZapfDingbats"
             x="0"
             y="0"
             id="tspan88">q</tspan></text>
<text
           transform="matrix(1,0,0,-1,397.14,423.42)"
           id="text90"><tspan
             style="fill:#f8766d;fill-opacity:1;fill-rule:nonzero;stroke:none;font-family:ZapfDingbats;font-variant:normal;font-weight:normal;font-size:5.89;writing-mode:lr;-inkscape-font-specification:ZapfDingbats"
             x="0"
             y="0"
             id="tspan92">q</tspan></text>
</g></g><g
       id="g94" /><g
       id="g96" /><g
       id="g98"><text
         transform="matrix(1,0,0,-1,23.02,121.6)"
         id="text100"><tspan
           style="fill:#7f7f7f;fill-opacity:1;fill-rule:nonzero;stroke:none;font-family:Helvetica;font-variant:normal;font-weight:normal;font-size:10;writing-mode:lr;-inkscape-font-specification:Helvetica"
           x="0 5.84 11.4 16.96 22.52 28.08"
           y="0"
           sodipodi:role="line"
           id="tspan102">−12975</tspan></text>
<text
         transform="matrix(1,0,0,-1,23.02,220.5)"
         id="text104"><tspan
           style="fill:#7f7f7f;fill-opacity:1;fill-rule:nonzero;stroke:none;font-family:Helvetica;font-variant:normal;font-weight:normal;font-size:10;writing-mode:lr;-inkscape-font-specification:Helvetica"
           x="0 5.84 11.4 16.96 22.52 28.08"
           y="0"
           sodipodi:role="line"
           id="tspan106">−12950</tspan></text>
<text
         transform="matrix(1,0,0,-1,23.02,319.41)"
         id="text108"><tspan
           style="fill:#7f7f7f;fill-opacity:1;fill-rule:nonzero;stroke:none;font-family:Helvetica;font-variant:normal;font-weight:normal;font-size:10;writing-mode:lr;-inkscape-font-specification:Helvetica"
           x="0 5.84 11.4 16.96 22.52 28.08"
           y="0"
           sodipodi:role="line"
           id="tspan110">−12925</tspan></text>
<text
         transform="matrix(1,0,0,-1,23.02,418.31)"
         id="text112"><tspan
           style="fill:#7f7f7f;fill-opacity:1;fill-rule:nonzero;stroke:none;font-family:Helvetica;font-variant:normal;font-weight:normal;font-size:10;writing-mode:lr;-inkscape-font-specification:Helvetica"
           x="0 5.84 11.4 16.96 22.52 28.08"
           y="0"
           sodipodi:role="line"
           id="tspan114">−12900</tspan></text>
</g><g
       id="g116" /><g
       id="g118"><path
         d="m 59.49,125.19 4.25,0"
         style="fill:none;stroke:#7f7f7f;stroke-opacity:1;stroke-width:1.06;stroke-linecap:butt;stroke-linejoin:round;stroke-miterlimit:10;stroke-dasharray:none"
         id="path120" /><path
         d="m 59.49,224.09 4.25,0"
         style="fill:none;stroke:#7f7f7f;stroke-opacity:1;stroke-width:1.06;stroke-linecap:butt;stroke-linejoin:round;stroke-miterlimit:10;stroke-dasharray:none"
         id="path122" /><path
         d="m 59.49,323 4.25,0"
         style="fill:none;stroke:#7f7f7f;stroke-opacity:1;stroke-width:1.06;stroke-linecap:butt;stroke-linejoin:round;stroke-miterlimit:10;stroke-dasharray:none"
         id="path124" /><path
         d="m 59.49,421.9 4.25,0"
         style="fill:none;stroke:#7f7f7f;stroke-opacity:1;stroke-width:1.06;stroke-linecap:butt;stroke-linejoin:round;stroke-miterlimit:10;stroke-dasharray:none"
         id="path126" /></g><g
       id="g128" /><g
       id="g130" /><g
       id="g132" /><g
       id="g134" /><g
       id="g136" /><g
       id="g138"><path
         d="m 79.73,33.03 0,4.25"
         style="fill:none;stroke:#7f7f7f;stroke-opacity:1;stroke-width:1.06;stroke-linecap:butt;stroke-linejoin:round;stroke-miterlimit:10;stroke-dasharray:none"
         id="path140" /><path
         d="m 159.66,33.03 0,4.25"
         style="fill:none;stroke:#7f7f7f;stroke-opacity:1;stroke-width:1.06;stroke-linecap:butt;stroke-linejoin:round;stroke-miterlimit:10;stroke-dasharray:none"
         id="path142" /><path
         d="m 239.6,33.03 0,4.25"
         style="fill:none;stroke:#7f7f7f;stroke-opacity:1;stroke-width:1.06;stroke-linecap:butt;stroke-linejoin:round;stroke-miterlimit:10;stroke-dasharray:none"
         id="path144" /><path
         d="m 319.53,33.03 0,4.25"
         style="fill:none;stroke:#7f7f7f;stroke-opacity:1;stroke-width:1.06;stroke-linecap:butt;stroke-linejoin:round;stroke-miterlimit:10;stroke-dasharray:none"
         id="path146" /><path
         d="m 399.47,33.03 0,4.25"
         style="fill:none;stroke:#7f7f7f;stroke-opacity:1;stroke-width:1.06;stroke-linecap:butt;stroke-linejoin:round;stroke-miterlimit:10;stroke-dasharray:none"
         id="path148" /></g><g
       id="g150" /><g
       id="g152"><text
         transform="matrix(1,0,0,-1,72.78,23.02)"
         id="text154"><tspan
           style="fill:#7f7f7f;fill-opacity:1;fill-rule:nonzero;stroke:none;font-family:Helvetica;font-variant:normal;font-weight:normal;font-size:10;writing-mode:lr;-inkscape-font-specification:Helvetica"
           x="0 5.56 8.34"
           y="0"
           sodipodi:role="line"
           id="tspan156">0.0</tspan></text>
<text
         transform="matrix(1,0,0,-1,152.71,23.02)"
         id="text158"><tspan
           style="fill:#7f7f7f;fill-opacity:1;fill-rule:nonzero;stroke:none;font-family:Helvetica;font-variant:normal;font-weight:normal;font-size:10;writing-mode:lr;-inkscape-font-specification:Helvetica"
           x="0 5.56 8.34"
           y="0"
           sodipodi:role="line"
           id="tspan160">0.5</tspan></text>
<text
         transform="matrix(1,0,0,-1,232.65,23.02)"
         id="text162"><tspan
           style="fill:#7f7f7f;fill-opacity:1;fill-rule:nonzero;stroke:none;font-family:Helvetica;font-variant:normal;font-weight:normal;font-size:10;writing-mode:lr;-inkscape-font-specification:Helvetica"
           x="0 5.56 8.34"
           y="0"
           sodipodi:role="line"
           id="tspan164">1.0</tspan></text>
<text
         transform="matrix(1,0,0,-1,312.58,23.02)"
         id="text166"><tspan
           style="fill:#7f7f7f;fill-opacity:1;fill-rule:nonzero;stroke:none;font-family:Helvetica;font-variant:normal;font-weight:normal;font-size:10;writing-mode:lr;-inkscape-font-specification:Helvetica"
           x="0 5.56 8.34"
           y="0"
           sodipodi:role="line"
           id="tspan168">1.5</tspan></text>
<text
         transform="matrix(1,0,0,-1,392.52,23.02)"
         id="text170"><tspan
           style="fill:#7f7f7f;fill-opacity:1;fill-rule:nonzero;stroke:none;font-family:Helvetica;font-variant:normal;font-weight:normal;font-size:10;writing-mode:lr;-inkscape-font-specification:Helvetica"
           x="0 5.56 8.34"
           y="0"
           sodipodi:role="line"
           id="tspan172">2.0</tspan></text>
</g><g
       id="g174" /><g
       id="g176" /><g
       id="g178" /><g
       id="g180" /><g
       id="g182"><text
         transform="matrix(1,0,0,-1,201.64,10.8)"
         id="text184"><tspan
           style="fill:#000000;fill-opacity:1;fill-rule:nonzero;stroke:none;font-family:Helvetica;font-variant:normal;font-weight:normal;font-size:12;writing-mode:lr;-inkscape-font-specification:Helvetica"
           x="0 6.672 10.548 17.22 23.892 29.892 36.564 43.236 45.9 52.572 59.244 65.916 69.252"
           y="0"
           sodipodi:role="line"
           id="tspan186">branch_length</tspan></text>
</g><g
       id="g188" /><g
       id="g190"><text
         transform="matrix(0,1,1,0,19.42,232.85)"
         id="text192"><tspan
           style="fill:#000000;fill-opacity:1;fill-rule:nonzero;stroke:none;font-family:Helvetica;font-variant:normal;font-weight:normal;font-size:12;writing-mode:lr;-inkscape-font-specification:Helvetica"
           x="0 5.7 12.372 15.036 21.708"
           y="0"
           sodipodi:role="line"
           id="tspan194">value</tspan></text>
</g><g
       id="g196" /><g
       id="g198" /><g
       id="g200" /><g
       id="g202" /><g
       id="g204" /><g
       id="g206"><path
         d="m 425.49,219.76 54.07,0 0,54.56 -54.07,0 0,-54.56 z"
         style="fill:#ffffff;fill-opacity:1;fill-rule:nonzero;stroke:none"
         id="path208" /></g><g
       id="g210" /><g
       id="g212"><text
         transform="matrix(1,0,0,-1,429.74,262.89)"
         id="text214"><tspan
           style="fill:#000000;fill-opacity:1;fill-rule:nonzero;stroke:none;font-family:Helvetica;font-variant:normal;font-weight:bold;font-size:10;writing-mode:lr;-inkscape-font-specification:Helvetica-Bold"
           x="0 6.11 11.67 20.56"
           y="0"
           sodipodi:role="line"
           id="tspan216">name</tspan></text>
</g><g
       id="g218" /><g
       id="g220"><path
         d="m 429.74,241.29 17.28,0 0,17.28 -17.28,0 0,-17.28 z"
         style="fill:#f2f2f2;fill-opacity:1;fill-rule:nonzero;stroke:#ffffff;stroke-opacity:1;stroke-width:1.06;stroke-linecap:round;stroke-linejoin:round;stroke-miterlimit:10;stroke-dasharray:none"
         id="path222" /></g><g
       id="g224" /><g
       id="g226"><path
         d="m 431.47,249.93 13.83,0"
         style="fill:none;stroke:#f8766d;stroke-opacity:1;stroke-width:1.06;stroke-linecap:butt;stroke-linejoin:round;stroke-miterlimit:10;stroke-dasharray:none"
         id="path228" /></g><g
       id="g230" /><g
       id="g232"><text
         transform="matrix(1,0,0,-1,436.05,247.89)"
         id="text234"><tspan
           style="fill:#f8766d;fill-opacity:1;fill-rule:nonzero;stroke:none;font-family:ZapfDingbats;font-variant:normal;font-weight:normal;font-size:5.89;writing-mode:lr;-inkscape-font-specification:ZapfDingbats"
           x="0"
           y="0"
           id="tspan236">q</tspan></text>
</g><g
       id="g238" /><g
       id="g240"><path
         d="m 429.74,224.01 17.28,0 0,17.28 -17.28,0 0,-17.28 z"
         style="fill:#f2f2f2;fill-opacity:1;fill-rule:nonzero;stroke:#ffffff;stroke-opacity:1;stroke-width:1.06;stroke-linecap:round;stroke-linejoin:round;stroke-miterlimit:10;stroke-dasharray:none"
         id="path242" /></g><g
       id="g244" /><g
       id="g246"><path
         d="m 431.47,232.65 13.83,0"
         style="fill:none;stroke:#00bfc4;stroke-opacity:1;stroke-width:1.06;stroke-linecap:butt;stroke-linejoin:round;stroke-miterlimit:10;stroke-dasharray:2.13,2.13;stroke-dashoffset:0"
         id="path248" /></g><g
       id="g250" /><g
       id="g252"><text
         transform="matrix(1,0,0,-1,436.05,230.61)"
         id="text254"><tspan
           style="fill:#00bfc4;fill-opacity:1;fill-rule:nonzero;stroke:none;font-family:ZapfDingbats;font-variant:normal;font-weight:normal;font-size:5.89;writing-mode:lr;-inkscape-font-specification:ZapfDingbats"
           x="0"
           y="0"
           id="tspan256">q</tspan></text>
</g><g
       id="g258" /><g
       id="g260"><text
         transform="matrix(1,0,0,-1,449.18,246.34)"
         id="text262"><tspan
           style="fill:#000000;fill-opacity:1;fill-rule:nonzero;stroke:none;font-family:Helvetica;font-variant:normal;font-weight:normal;font-size:10;writing-mode:lr;-inkscape-font-specification:Helvetica"
           x="0 6.67 8.89 14.45 20.29"
           y="0"
           sodipodi:role="line"
           id="tspan264">Bio++</tspan></text>
</g><g
       id="g266" /><g
       id="g268"><text
         transform="matrix(1,0,0,-1,449.18,229.06)"
         id="text270"><tspan
           style="fill:#000000;fill-opacity:1;fill-rule:nonzero;stroke:none;font-family:Helvetica;font-variant:normal;font-weight:normal;font-size:10;writing-mode:lr;-inkscape-font-specification:Helvetica"
           x="0 2.22 7.22 10 12.22"
           y="0"
           sodipodi:role="line"
           id="tspan272">lcfit</tspan></text>
</g><g
       id="g274" /><g
       id="g276" /><g
       id="g278" /><g
       id="g280" /><g
       id="g282" /><g
       id="g284" /><g
       id="g286" /><g
       id="g288" /><g
       id="g290" /><g
       id="g292"><text
         transform="matrix(1,0,0,-1,213.14,475.95)"
         id="text294"><tspan
           style="fill:#000000;fill-opacity:1;fill-rule:nonzero;stroke:none;font-family:Helvetica;font-variant:normal;font-weight:normal;font-size:14;writing-mode:lr;-inkscape-font-specification:Helvetica"
           x="0 10.108 17.892 25.676 33.46 37.352 45.136"
           y="0"
           sodipodi:role="line"
           id="tspan296">Node #0</tspan></text>
<text
         transform="matrix(1,0,0,-1,191.93,460.4)"
         id="text298"><tspan
           style="fill:#000000;fill-opacity:1;fill-rule:nonzero;stroke:none;font-family:Helvetica;font-variant:normal;font-weight:normal;font-size:14;writing-mode:lr;-inkscape-font-specification:Helvetica"
           x="0 10.108 19.446 28.784 36.96 44.744 48.636 56.42 64.204 71.988 79.772 87.556"
           y="0"
           sodipodi:role="line"
           id="tspan300">RSS=8.950000</tspan></text>
</g><g
       id="g302" /><g
       id="g304" /></g></svg>