<?xml version="1.0" encoding="UTF-8" standalone="no"?>
<!-- Created with Inkscape (http://www.inkscape.org/) -->

<svg
   xmlns:dc="http://purl.org/dc/elements/1.1/"
   xmlns:cc="http://creativecommons.org/ns#"
   xmlns:rdf="http://www.w3.org/1999/02/22-rdf-syntax-ns#"
   xmlns:svg="http://www.w3.org/2000/svg"
   xmlns="http://www.w3.org/2000/svg"
   xmlns:sodipodi="http://sodipodi.sourceforge.net/DTD/sodipodi-0.dtd"
   xmlns:inkscape="http://www.inkscape.org/namespaces/inkscape"
   id="svg2"
   version="1.1"
   inkscape:version="0.48.3.1 r9886"
   width="630"
   height="630"
   xml:space="preserve"
   sodipodi:docname="lcfit_plots.pdf"><metadata
     id="metadata8"><rdf:RDF><cc:Work
         rdf:about=""><dc:format>image/svg+xml</dc:format><dc:type
           rdf:resource="http://purl.org/dc/dcmitype/StillImage" /><dc:title></dc:title></cc:Work></rdf:RDF></metadata><defs
     id="defs6"><clipPath
       clipPathUnits="userSpaceOnUse"
       id="clipPath30"><path
         d="m 63.74,37.28 351.71,0 0,419.51 -351.71,0 0,-419.51 z"
         id="path32" /></clipPath></defs><sodipodi:namedview
     pagecolor="#ffffff"
     bordercolor="#666666"
     borderopacity="1"
     objecttolerance="10"
     gridtolerance="10"
     guidetolerance="10"
     inkscape:pageopacity="0"
     inkscape:pageshadow="2"
     inkscape:window-width="640"
     inkscape:window-height="480"
     id="namedview4"
     showgrid="false"
     inkscape:zoom="0.37460317"
     inkscape:cx="315"
     inkscape:cy="315"
     inkscape:window-x="1440"
     inkscape:window-y="0"
     inkscape:window-maximized="0"
     inkscape:current-layer="g10" /><g
     id="g10"
     inkscape:groupmode="layer"
     inkscape:label="lcfit_plots"
     transform="matrix(1.25,0,0,-1.25,0,630)"><g
       id="g12" /><g
       id="g14" /><g
       id="g16"><path
         d="M 0,0 504,0 504,504 0,504 0,0 z"
         style="fill:#ffffff;fill-opacity:1;fill-rule:nonzero;stroke:#ffffff;stroke-opacity:1;stroke-width:1.06;stroke-linecap:round;stroke-linejoin:round;stroke-miterlimit:10;stroke-dasharray:none"
         id="path18" /></g><g
       id="g20" /><g
       id="g22" /><g
       id="g24" /><g
       id="g26"><g
         id="g28"
         clip-path="url(#clipPath30)"><path
           d="m 63.74,37.28 351.71,0 0,419.51 -351.71,0 0,-419.51 z"
           style="fill:#e5e5e5;fill-opacity:1;fill-rule:nonzero;stroke:none"
           id="path34" /><path
           d="m 63.74,51.7 351.72,0"
           style="fill:none;stroke:#f2f2f2;stroke-opacity:1;stroke-width:0.53;stroke-linecap:butt;stroke-linejoin:round;stroke-miterlimit:10;stroke-dasharray:none"
           id="path36" /><path
           d="m 63.74,175.82 351.72,0"
           style="fill:none;stroke:#f2f2f2;stroke-opacity:1;stroke-width:0.53;stroke-linecap:butt;stroke-linejoin:round;stroke-miterlimit:10;stroke-dasharray:none"
           id="path38" /><path
           d="m 63.74,299.95 351.72,0"
           style="fill:none;stroke:#f2f2f2;stroke-opacity:1;stroke-width:0.53;stroke-linecap:butt;stroke-linejoin:round;stroke-miterlimit:10;stroke-dasharray:none"
           id="path40" /><path
           d="m 63.74,424.07 351.72,0"
           style="fill:none;stroke:#f2f2f2;stroke-opacity:1;stroke-width:0.53;stroke-linecap:butt;stroke-linejoin:round;stroke-miterlimit:10;stroke-dasharray:none"
           id="path42" /><path
           d="m 119.7,37.28 0,419.52"
           style="fill:none;stroke:#f2f2f2;stroke-opacity:1;stroke-width:0.53;stroke-linecap:butt;stroke-linejoin:round;stroke-miterlimit:10;stroke-dasharray:none"
           id="path44" /><path
           d="m 199.63,37.28 0,419.52"
           style="fill:none;stroke:#f2f2f2;stroke-opacity:1;stroke-width:0.53;stroke-linecap:butt;stroke-linejoin:round;stroke-miterlimit:10;stroke-dasharray:none"
           id="path46" /><path
           d="m 279.57,37.28 0,419.52"
           style="fill:none;stroke:#f2f2f2;stroke-opacity:1;stroke-width:0.53;stroke-linecap:butt;stroke-linejoin:round;stroke-miterlimit:10;stroke-dasharray:none"
           id="path48" /><path
           d="m 359.5,37.28 0,419.52"
           style="fill:none;stroke:#f2f2f2;stroke-opacity:1;stroke-width:0.53;stroke-linecap:butt;stroke-linejoin:round;stroke-miterlimit:10;stroke-dasharray:none"
           id="path50" /><path
           d="m 63.74,113.76 351.72,0"
           style="fill:none;stroke:#ffffff;stroke-opacity:1;stroke-width:1.06;stroke-linecap:butt;stroke-linejoin:round;stroke-miterlimit:10;stroke-dasharray:none"
           id="path52" /><path
           d="m 63.74,237.89 351.72,0"
           style="fill:none;stroke:#ffffff;stroke-opacity:1;stroke-width:1.06;stroke-linecap:butt;stroke-linejoin:round;stroke-miterlimit:10;stroke-dasharray:none"
           id="path54" /><path
           d="m 63.74,362.01 351.72,0"
           style="fill:none;stroke:#ffffff;stroke-opacity:1;stroke-width:1.06;stroke-linecap:butt;stroke-linejoin:round;stroke-miterlimit:10;stroke-dasharray:none"
           id="path56" /><path
           d="m 79.73,37.28 0,419.52"
           style="fill:none;stroke:#ffffff;stroke-opacity:1;stroke-width:1.06;stroke-linecap:butt;stroke-linejoin:round;stroke-miterlimit:10;stroke-dasharray:none"
           id="path58" /><path
           d="m 159.66,37.28 0,419.52"
           style="fill:none;stroke:#ffffff;stroke-opacity:1;stroke-width:1.06;stroke-linecap:butt;stroke-linejoin:round;stroke-miterlimit:10;stroke-dasharray:none"
           id="path60" /><path
           d="m 239.6,37.28 0,419.52"
           style="fill:none;stroke:#ffffff;stroke-opacity:1;stroke-width:1.06;stroke-linecap:butt;stroke-linejoin:round;stroke-miterlimit:10;stroke-dasharray:none"
           id="path62" /><path
           d="m 319.53,37.28 0,419.52"
           style="fill:none;stroke:#ffffff;stroke-opacity:1;stroke-width:1.06;stroke-linecap:butt;stroke-linejoin:round;stroke-miterlimit:10;stroke-dasharray:none"
           id="path64" /><path
           d="m 399.47,37.28 0,419.52"
           style="fill:none;stroke:#ffffff;stroke-opacity:1;stroke-width:1.06;stroke-linecap:butt;stroke-linejoin:round;stroke-miterlimit:10;stroke-dasharray:none"
           id="path66" /><path
           d="m 82.93,333.77 3.19,14.28 3.2,13.03 3.2,11.17 3.2,10.24 3.19,8.69 3.2,8.07 3.2,6.83 3.2,6.2 3.19,5.28 3.2,4.34 3.2,4.04 3.2,3.1 3.19,2.79 3.2,2.17 3.2,1.56 3.2,1.24 3.19,0.62 3.2,0.31 3.2,0 3.2,-0.31 3.19,-0.93 3.2,-0.93 3.2,-1.25 3.19,-1.86 3.2,-1.86 3.2,-2.17 3.2,-2.17 3.19,-2.8 3.2,-2.79 3.2,-2.79 3.2,-3.42 3.19,-3.41 3.2,-3.41 3.2,-3.73 3.2,-3.72 3.19,-4.03 3.2,-4.04 3.2,-4.34 3.2,-4.35 3.19,-4.65 3.2,-4.35 3.2,-4.96 3.2,-4.66 3.19,-4.96 3.2,-4.97 3.2,-4.96 3.19,-4.97 3.2,-5.27 3.2,-5.28 3.2,-5.27 3.19,-5.28 3.2,-5.27 3.2,-5.59 3.2,-5.58 3.19,-5.28 3.2,-5.59 3.2,-5.58 3.2,-5.9 3.19,-5.58 3.2,-5.59 3.2,-5.89 3.2,-5.59 3.19,-5.9 3.2,-5.58 3.2,-5.9 3.2,-5.89 3.19,-5.59 3.2,-5.9 3.2,-5.89 3.2,-5.9 3.19,-5.89 3.2,-5.59 3.2,-5.89 3.19,-5.9 3.2,-5.9 3.2,-5.89 3.2,-5.59 3.19,-5.89 3.2,-5.9 3.2,-5.59 3.2,-5.89 3.19,-5.9 3.2,-5.58 3.2,-5.9 3.2,-5.59 3.19,-5.58 3.2,-5.9 3.2,-5.58 3.2,-5.59 3.19,-5.58 3.2,-5.59 3.2,-5.59 3.2,-5.58 3.19,-5.59 3.2,-5.58 3.2,-5.59 3.19,-5.27 3.2,-5.59"
           style="fill:none;stroke:#f8766d;stroke-opacity:1;stroke-width:1.06;stroke-linecap:butt;stroke-linejoin:round;stroke-miterlimit:1;stroke-dasharray:none"
           id="path68" /><path
           d="m 82.93,347.12 3.19,11.17 3.2,9.93 3.2,9.31 3.2,8.37 3.19,7.76 3.2,7.14 3.2,6.21 3.2,5.58 3.19,4.97 3.2,4.03 3.2,4.03 3.2,3.11 3.19,2.48 3.2,2.48 3.2,1.55 3.2,1.25 3.19,0.93 3.2,0.31 3.2,0 3.2,-0.31 3.19,-0.62 3.2,-0.93 3.2,-1.25 3.19,-1.86 3.2,-1.86 3.2,-2.17 3.2,-2.17 3.19,-2.8 3.2,-2.79 3.2,-3.1 3.2,-3.11 3.19,-3.41 3.2,-3.72 3.2,-3.73 3.2,-4.03 3.19,-4.04 3.2,-4.03 3.2,-4.34 3.2,-4.35 3.19,-4.65 3.2,-4.35 3.2,-4.96 3.2,-4.66 3.19,-4.96 3.2,-4.66 3.2,-4.96 3.19,-5.28 3.2,-4.96 3.2,-5.28 3.2,-4.96 3.19,-5.28 3.2,-5.27 3.2,-5.28 3.2,-5.27 3.19,-5.28 3.2,-5.27 3.2,-5.28 3.2,-5.28 3.19,-5.27 3.2,-5.59 3.2,-5.27 3.2,-5.28 3.19,-5.27 3.2,-5.28 3.2,-5.27 3.2,-5.28 3.19,-5.27 3.2,-4.97 3.2,-5.27 3.2,-5.28 3.19,-4.96 3.2,-5.28 3.2,-4.96 3.19,-4.97 3.2,-4.96 3.2,-4.97 3.2,-4.96 3.19,-4.97 3.2,-4.96 3.2,-4.66 3.2,-4.96 3.19,-4.66 3.2,-4.65 3.2,-4.66 3.2,-4.65 3.19,-4.66 3.2,-4.65 3.2,-4.35 3.2,-4.34 3.19,-4.66 3.2,-4.34 3.2,-4.34 3.2,-4.04 3.19,-4.34 3.2,-4.04 3.2,-4.34 3.19,-4.04 3.2,-4.03"
           style="fill:none;stroke:#00bfc4;stroke-opacity:1;stroke-width:1.06;stroke-linecap:butt;stroke-linejoin:round;stroke-miterlimit:1;stroke-dasharray:2.13,2.13;stroke-dashoffset:0"
           id="path70" /><text
           transform="matrix(1,0,0,-1,109.37,415.51)"
           id="text72"><tspan
             style="fill:#f8766d;fill-opacity:1;fill-rule:nonzero;stroke:none;font-family:ZapfDingbats;font-variant:normal;font-weight:normal;font-size:5.89;writing-mode:lr;-inkscape-font-specification:ZapfDingbats"
             x="0"
             y="0"
             id="tspan74">q</tspan></text>
<text
           transform="matrix(1,0,0,-1,141.35,435.68)"
           id="text76"><tspan
             style="fill:#f8766d;fill-opacity:1;fill-rule:nonzero;stroke:none;font-family:ZapfDingbats;font-variant:normal;font-weight:normal;font-size:5.89;writing-mode:lr;-inkscape-font-specification:ZapfDingbats"
             x="0"
             y="0"
             id="tspan78">q</tspan></text>
<text
           transform="matrix(1,0,0,-1,189.31,401.86)"
           id="text80"><tspan
             style="fill:#f8766d;fill-opacity:1;fill-rule:nonzero;stroke:none;font-family:ZapfDingbats;font-variant:normal;font-weight:normal;font-size:5.89;writing-mode:lr;-inkscape-font-specification:ZapfDingbats"
             x="0"
             y="0"
             id="tspan82">q</tspan></text>
<text
           transform="matrix(1,0,0,-1,237.27,332.35)"
           id="text84"><tspan
             style="fill:#f8766d;fill-opacity:1;fill-rule:nonzero;stroke:none;font-family:ZapfDingbats;font-variant:normal;font-weight:normal;font-size:5.89;writing-mode:lr;-inkscape-font-specification:ZapfDingbats"
             x="0"
             y="0"
             id="tspan86">q</tspan></text>
</g></g><g
       id="g88" /><g
       id="g90" /><g
       id="g92"><text
         transform="matrix(1,0,0,-1,23.02,110.17)"
         id="text94"><tspan
           style="fill:#7f7f7f;fill-opacity:1;fill-rule:nonzero;stroke:none;font-family:Helvetica;font-variant:normal;font-weight:normal;font-size:10;writing-mode:lr;-inkscape-font-specification:Helvetica"
           x="0 5.84 11.4 16.96 22.52 28.08"
           y="0"
           sodipodi:role="line"
           id="tspan96">−13000</tspan></text>
<text
         transform="matrix(1,0,0,-1,23.02,234.3)"
         id="text98"><tspan
           style="fill:#7f7f7f;fill-opacity:1;fill-rule:nonzero;stroke:none;font-family:Helvetica;font-variant:normal;font-weight:normal;font-size:10;writing-mode:lr;-inkscape-font-specification:Helvetica"
           x="0 5.84 11.4 16.96 22.52 28.08"
           y="0"
           sodipodi:role="line"
           id="tspan100">−12960</tspan></text>
<text
         transform="matrix(1,0,0,-1,23.02,358.42)"
         id="text102"><tspan
           style="fill:#7f7f7f;fill-opacity:1;fill-rule:nonzero;stroke:none;font-family:Helvetica;font-variant:normal;font-weight:normal;font-size:10;writing-mode:lr;-inkscape-font-specification:Helvetica"
           x="0 5.84 11.4 16.96 22.52 28.08"
           y="0"
           sodipodi:role="line"
           id="tspan104">−12920</tspan></text>
</g><g
       id="g106" /><g
       id="g108"><path
         d="m 59.49,113.76 4.25,0"
         style="fill:none;stroke:#7f7f7f;stroke-opacity:1;stroke-width:1.06;stroke-linecap:butt;stroke-linejoin:round;stroke-miterlimit:10;stroke-dasharray:none"
         id="path110" /><path
         d="m 59.49,237.89 4.25,0"
         style="fill:none;stroke:#7f7f7f;stroke-opacity:1;stroke-width:1.06;stroke-linecap:butt;stroke-linejoin:round;stroke-miterlimit:10;stroke-dasharray:none"
         id="path112" /><path
         d="m 59.49,362.01 4.25,0"
         style="fill:none;stroke:#7f7f7f;stroke-opacity:1;stroke-width:1.06;stroke-linecap:butt;stroke-linejoin:round;stroke-miterlimit:10;stroke-dasharray:none"
         id="path114" /></g><g
       id="g116" /><g
       id="g118" /><g
       id="g120" /><g
       id="g122" /><g
       id="g124" /><g
       id="g126"><path
         d="m 79.73,33.03 0,4.25"
         style="fill:none;stroke:#7f7f7f;stroke-opacity:1;stroke-width:1.06;stroke-linecap:butt;stroke-linejoin:round;stroke-miterlimit:10;stroke-dasharray:none"
         id="path128" /><path
         d="m 159.66,33.03 0,4.25"
         style="fill:none;stroke:#7f7f7f;stroke-opacity:1;stroke-width:1.06;stroke-linecap:butt;stroke-linejoin:round;stroke-miterlimit:10;stroke-dasharray:none"
         id="path130" /><path
         d="m 239.6,33.03 0,4.25"
         style="fill:none;stroke:#7f7f7f;stroke-opacity:1;stroke-width:1.06;stroke-linecap:butt;stroke-linejoin:round;stroke-miterlimit:10;stroke-dasharray:none"
         id="path132" /><path
         d="m 319.53,33.03 0,4.25"
         style="fill:none;stroke:#7f7f7f;stroke-opacity:1;stroke-width:1.06;stroke-linecap:butt;stroke-linejoin:round;stroke-miterlimit:10;stroke-dasharray:none"
         id="path134" /><path
         d="m 399.47,33.03 0,4.25"
         style="fill:none;stroke:#7f7f7f;stroke-opacity:1;stroke-width:1.06;stroke-linecap:butt;stroke-linejoin:round;stroke-miterlimit:10;stroke-dasharray:none"
         id="path136" /></g><g
       id="g138" /><g
       id="g140"><text
         transform="matrix(1,0,0,-1,70,23.02)"
         id="text142"><tspan
           style="fill:#7f7f7f;fill-opacity:1;fill-rule:nonzero;stroke:none;font-family:Helvetica;font-variant:normal;font-weight:normal;font-size:10;writing-mode:lr;-inkscape-font-specification:Helvetica"
           x="0 5.56 8.34 13.9"
           y="0"
           sodipodi:role="line"
           id="tspan144">0.00</tspan></text>
<text
         transform="matrix(1,0,0,-1,149.93,23.02)"
         id="text146"><tspan
           style="fill:#7f7f7f;fill-opacity:1;fill-rule:nonzero;stroke:none;font-family:Helvetica;font-variant:normal;font-weight:normal;font-size:10;writing-mode:lr;-inkscape-font-specification:Helvetica"
           x="0 5.56 8.34 13.9"
           y="0"
           sodipodi:role="line"
           id="tspan148">0.25</tspan></text>
<text
         transform="matrix(1,0,0,-1,229.87,23.02)"
         id="text150"><tspan
           style="fill:#7f7f7f;fill-opacity:1;fill-rule:nonzero;stroke:none;font-family:Helvetica;font-variant:normal;font-weight:normal;font-size:10;writing-mode:lr;-inkscape-font-specification:Helvetica"
           x="0 5.56 8.34 13.9"
           y="0"
           sodipodi:role="line"
           id="tspan152">0.50</tspan></text>
<text
         transform="matrix(1,0,0,-1,309.8,23.02)"
         id="text154"><tspan
           style="fill:#7f7f7f;fill-opacity:1;fill-rule:nonzero;stroke:none;font-family:Helvetica;font-variant:normal;font-weight:normal;font-size:10;writing-mode:lr;-inkscape-font-specification:Helvetica"
           x="0 5.56 8.34 13.9"
           y="0"
           sodipodi:role="line"
           id="tspan156">0.75</tspan></text>
<text
         transform="matrix(1,0,0,-1,389.74,23.02)"
         id="text158"><tspan
           style="fill:#7f7f7f;fill-opacity:1;fill-rule:nonzero;stroke:none;font-family:Helvetica;font-variant:normal;font-weight:normal;font-size:10;writing-mode:lr;-inkscape-font-specification:Helvetica"
           x="0 5.56 8.34 13.9"
           y="0"
           sodipodi:role="line"
           id="tspan160">1.00</tspan></text>
</g><g
       id="g162" /><g
       id="g164" /><g
       id="g166" /><g
       id="g168" /><g
       id="g170"><text
         transform="matrix(1,0,0,-1,201.64,10.8)"
         id="text172"><tspan
           style="fill:#000000;fill-opacity:1;fill-rule:nonzero;stroke:none;font-family:Helvetica;font-variant:normal;font-weight:normal;font-size:12;writing-mode:lr;-inkscape-font-specification:Helvetica"
           x="0 6.672 10.548 17.22 23.892 29.892 36.564 43.236 45.9 52.572 59.244 65.916 69.252"
           y="0"
           sodipodi:role="line"
           id="tspan174">branch_length</tspan></text>
</g><g
       id="g176" /><g
       id="g178"><text
         transform="matrix(0,1,1,0,19.42,232.85)"
         id="text180"><tspan
           style="fill:#000000;fill-opacity:1;fill-rule:nonzero;stroke:none;font-family:Helvetica;font-variant:normal;font-weight:normal;font-size:12;writing-mode:lr;-inkscape-font-specification:Helvetica"
           x="0 5.7 12.372 15.036 21.708"
           y="0"
           sodipodi:role="line"
           id="tspan182">value</tspan></text>
</g><g
       id="g184" /><g
       id="g186" /><g
       id="g188" /><g
       id="g190" /><g
       id="g192" /><g
       id="g194"><path
         d="m 425.49,219.76 54.07,0 0,54.56 -54.07,0 0,-54.56 z"
         style="fill:#ffffff;fill-opacity:1;fill-rule:nonzero;stroke:none"
         id="path196" /></g><g
       id="g198" /><g
       id="g200"><text
         transform="matrix(1,0,0,-1,429.74,262.89)"
         id="text202"><tspan
           style="fill:#000000;fill-opacity:1;fill-rule:nonzero;stroke:none;font-family:Helvetica;font-variant:normal;font-weight:bold;font-size:10;writing-mode:lr;-inkscape-font-specification:Helvetica-Bold"
           x="0 6.11 11.67 20.56"
           y="0"
           sodipodi:role="line"
           id="tspan204">name</tspan></text>
</g><g
       id="g206" /><g
       id="g208"><path
         d="m 429.74,241.29 17.28,0 0,17.28 -17.28,0 0,-17.28 z"
         style="fill:#f2f2f2;fill-opacity:1;fill-rule:nonzero;stroke:#ffffff;stroke-opacity:1;stroke-width:1.06;stroke-linecap:round;stroke-linejoin:round;stroke-miterlimit:10;stroke-dasharray:none"
         id="path210" /></g><g
       id="g212" /><g
       id="g214"><path
         d="m 431.47,249.93 13.83,0"
         style="fill:none;stroke:#f8766d;stroke-opacity:1;stroke-width:1.06;stroke-linecap:butt;stroke-linejoin:round;stroke-miterlimit:10;stroke-dasharray:none"
         id="path216" /></g><g
       id="g218" /><g
       id="g220"><text
         transform="matrix(1,0,0,-1,436.05,247.89)"
         id="text222"><tspan
           style="fill:#f8766d;fill-opacity:1;fill-rule:nonzero;stroke:none;font-family:ZapfDingbats;font-variant:normal;font-weight:normal;font-size:5.89;writing-mode:lr;-inkscape-font-specification:ZapfDingbats"
           x="0"
           y="0"
           id="tspan224">q</tspan></text>
</g><g
       id="g226" /><g
       id="g228"><path
         d="m 429.74,224.01 17.28,0 0,17.28 -17.28,0 0,-17.28 z"
         style="fill:#f2f2f2;fill-opacity:1;fill-rule:nonzero;stroke:#ffffff;stroke-opacity:1;stroke-width:1.06;stroke-linecap:round;stroke-linejoin:round;stroke-miterlimit:10;stroke-dasharray:none"
         id="path230" /></g><g
       id="g232" /><g
       id="g234"><path
         d="m 431.47,232.65 13.83,0"
         style="fill:none;stroke:#00bfc4;stroke-opacity:1;stroke-width:1.06;stroke-linecap:butt;stroke-linejoin:round;stroke-miterlimit:10;stroke-dasharray:2.13,2.13;stroke-dashoffset:0"
         id="path236" /></g><g
       id="g238" /><g
       id="g240"><text
         transform="matrix(1,0,0,-1,436.05,230.61)"
         id="text242"><tspan
           style="fill:#00bfc4;fill-opacity:1;fill-rule:nonzero;stroke:none;font-family:ZapfDingbats;font-variant:normal;font-weight:normal;font-size:5.89;writing-mode:lr;-inkscape-font-specification:ZapfDingbats"
           x="0"
           y="0"
           id="tspan244">q</tspan></text>
</g><g
       id="g246" /><g
       id="g248"><text
         transform="matrix(1,0,0,-1,449.18,246.34)"
         id="text250"><tspan
           style="fill:#000000;fill-opacity:1;fill-rule:nonzero;stroke:none;font-family:Helvetica;font-variant:normal;font-weight:normal;font-size:10;writing-mode:lr;-inkscape-font-specification:Helvetica"
           x="0 6.67 8.89 14.45 20.29"
           y="0"
           sodipodi:role="line"
           id="tspan252">Bio++</tspan></text>
</g><g
       id="g254" /><g
       id="g256"><text
         transform="matrix(1,0,0,-1,449.18,229.06)"
         id="text258"><tspan
           style="fill:#000000;fill-opacity:1;fill-rule:nonzero;stroke:none;font-family:Helvetica;font-variant:normal;font-weight:normal;font-size:10;writing-mode:lr;-inkscape-font-specification:Helvetica"
           x="0 2.22 7.22 10 12.22"
           y="0"
           sodipodi:role="line"
           id="tspan260">lcfit</tspan></text>
</g><g
       id="g262" /><g
       id="g264" /><g
       id="g266" /><g
       id="g268" /><g
       id="g270" /><g
       id="g272" /><g
       id="g274" /><g
       id="g276" /><g
       id="g278" /><g
       id="g280"><text
         transform="matrix(1,0,0,-1,213.14,475.95)"
         id="text282"><tspan
           style="fill:#000000;fill-opacity:1;fill-rule:nonzero;stroke:none;font-family:Helvetica;font-variant:normal;font-weight:normal;font-size:14;writing-mode:lr;-inkscape-font-specification:Helvetica"
           x="0 10.108 17.892 25.676 33.46 37.352 45.136"
           y="0"
           sodipodi:role="line"
           id="tspan284">Node #5</tspan></text>
<text
         transform="matrix(1,0,0,-1,180.25,460.4)"
         id="text286"><tspan
           style="fill:#000000;fill-opacity:1;fill-rule:nonzero;stroke:none;font-family:Helvetica;font-variant:normal;font-weight:normal;font-size:14;writing-mode:lr;-inkscape-font-specification:Helvetica"
           x="0 10.108 19.446 28.784 36.96 44.744 52.528 60.312 68.096 71.988 79.772 87.556 95.34 103.124 110.908"
           y="0"
           sodipodi:role="line"
           id="tspan288">RSS=1703.160000</tspan></text>
</g><g
       id="g290" /><g
       id="g292" /></g></svg>