<?xml version="1.0" encoding="UTF-8"?>
<svg xmlns="http://www.w3.org/2000/svg" xmlns:xlink="http://www.w3.org/1999/xlink" width="576pt" height="432pt" viewBox="0 0 576 432" version="1.1">
<defs>
<clipPath id="clip1">
  <path d="M 21.488281 21.601562 L 103.601562 21.601562 L 103.601562 140.316406 L 21.488281 140.316406 Z M 21.488281 21.601562 "/>
</clipPath>
<clipPath id="clip2">
  <path d="M 113.285156 21.601562 L 195.398438 21.601562 L 195.398438 140.316406 L 113.285156 140.316406 Z M 113.285156 21.601562 "/>
</clipPath>
<clipPath id="clip3">
  <path d="M 205.085938 21.601562 L 287.199219 21.601562 L 287.199219 140.316406 L 205.085938 140.316406 Z M 205.085938 21.601562 "/>
</clipPath>
<clipPath id="clip4">
  <path d="M 296.886719 21.601562 L 379 21.601562 L 379 140.316406 L 296.886719 140.316406 Z M 296.886719 21.601562 "/>
</clipPath>
<clipPath id="clip5">
  <path d="M 388.6875 21.601562 L 470.800781 21.601562 L 470.800781 140.316406 L 388.6875 140.316406 Z M 388.6875 21.601562 "/>
</clipPath>
<clipPath id="clip6">
  <path d="M 480.488281 21.601562 L 562.601562 21.601562 L 562.601562 140.316406 L 480.488281 140.316406 Z M 480.488281 21.601562 "/>
</clipPath>
<clipPath id="clip7">
  <path d="M 21.488281 157.199219 L 103.601562 157.199219 L 103.601562 275.914062 L 21.488281 275.914062 Z M 21.488281 157.199219 "/>
</clipPath>
<clipPath id="clip8">
  <path d="M 113.285156 157.199219 L 195.398438 157.199219 L 195.398438 275.914062 L 113.285156 275.914062 Z M 113.285156 157.199219 "/>
</clipPath>
<clipPath id="clip9">
  <path d="M 205.085938 157.199219 L 287.199219 157.199219 L 287.199219 275.914062 L 205.085938 275.914062 Z M 205.085938 157.199219 "/>
</clipPath>
<clipPath id="clip10">
  <path d="M 296.886719 157.199219 L 379 157.199219 L 379 275.914062 L 296.886719 275.914062 Z M 296.886719 157.199219 "/>
</clipPath>
<clipPath id="clip11">
  <path d="M 388.6875 157.199219 L 470.800781 157.199219 L 470.800781 275.914062 L 388.6875 275.914062 Z M 388.6875 157.199219 "/>
</clipPath>
<clipPath id="clip12">
  <path d="M 480.488281 157.199219 L 562.601562 157.199219 L 562.601562 275.914062 L 480.488281 275.914062 Z M 480.488281 157.199219 "/>
</clipPath>
<clipPath id="clip13">
  <path d="M 21.488281 292.800781 L 103.601562 292.800781 L 103.601562 411.515625 L 21.488281 411.515625 Z M 21.488281 292.800781 "/>
</clipPath>
<clipPath id="clip14">
  <path d="M 113.285156 292.800781 L 195.398438 292.800781 L 195.398438 411.515625 L 113.285156 411.515625 Z M 113.285156 292.800781 "/>
</clipPath>
<clipPath id="clip15">
  <path d="M 205.085938 292.800781 L 287.199219 292.800781 L 287.199219 411.515625 L 205.085938 411.515625 Z M 205.085938 292.800781 "/>
</clipPath>
<clipPath id="clip16">
  <path d="M 296.886719 292.800781 L 379 292.800781 L 379 411.515625 L 296.886719 411.515625 Z M 296.886719 292.800781 "/>
</clipPath>
<clipPath id="clip17">
  <path d="M 388.6875 292.800781 L 470.800781 292.800781 L 470.800781 411.515625 L 388.6875 411.515625 Z M 388.6875 292.800781 "/>
</clipPath>
<clipPath id="clip18">
  <path d="M 480.488281 292.800781 L 562.601562 292.800781 L 562.601562 411.515625 L 480.488281 411.515625 Z M 480.488281 292.800781 "/>
</clipPath>
</defs>
<g id="surface1">
<rect x="0" y="0" width="576" height="432" style="fill:rgb(100%,100%,100%);fill-opacity:1;stroke:none;"/>
<g clip-path="url(#clip1)" clip-rule="nonzero">
<path style="fill:none;stroke-width:1.062992;stroke-linecap:butt;stroke-linejoin:round;stroke:rgb(0%,0%,0%);stroke-opacity:1;stroke-miterlimit:1;" d="M 25.171875 133.960938 L 25.925781 128.597656 L 26.679688 123.546875 L 27.429688 118.707031 L 28.183594 114.074219 L 28.9375 109.761719 L 29.6875 105.550781 L 30.441406 101.554688 L 31.191406 97.765625 L 31.945312 94.082031 L 32.699219 90.609375 L 33.449219 87.347656 L 34.203125 84.191406 L 34.957031 81.140625 L 35.707031 78.300781 L 36.460938 75.457031 L 37.210938 72.828125 L 37.964844 70.300781 L 38.71875 67.882812 L 39.46875 65.671875 L 40.222656 63.464844 L 40.976562 61.359375 L 41.726562 59.359375 L 42.480469 57.464844 L 43.230469 55.570312 L 44.738281 52.203125 L 45.488281 50.625 L 46.996094 47.679688 L 47.746094 46.3125 L 48.5 45.050781 L 49.25 43.785156 L 50.757812 41.472656 L 51.507812 40.417969 L 52.261719 39.472656 L 53.015625 38.523438 L 53.765625 37.578125 L 54.519531 36.738281 L 55.269531 35.894531 L 56.023438 35.15625 L 56.777344 34.421875 L 57.527344 33.789062 L 58.28125 33.160156 L 59.035156 32.527344 L 59.785156 32 L 60.539062 31.476562 L 61.289062 30.949219 L 62.796875 30.105469 L 63.546875 29.6875 L 65.054688 29.054688 L 65.804688 28.738281 L 66.558594 28.421875 L 67.308594 28.214844 L 68.816406 27.792969 L 69.566406 27.582031 L 70.320312 27.371094 L 71.074219 27.265625 L 71.824219 27.160156 L 72.578125 27.054688 L 73.328125 27.054688 L 74.082031 26.949219 L 78.597656 26.949219 L 79.347656 27.054688 L 80.101562 27.160156 L 80.855469 27.160156 L 81.605469 27.265625 L 82.359375 27.371094 L 83.113281 27.582031 L 83.863281 27.6875 L 84.617188 27.792969 L 85.367188 28.003906 L 86.121094 28.109375 L 86.875 28.320312 L 87.625 28.527344 L 88.378906 28.632812 L 89.132812 28.84375 L 89.882812 29.054688 L 90.636719 29.265625 L 91.386719 29.582031 L 92.894531 30.003906 L 93.644531 30.210938 L 94.398438 30.527344 L 95.152344 30.738281 L 95.902344 30.949219 L 96.65625 31.265625 L 97.40625 31.582031 L 98.160156 31.789062 L 98.914062 32.105469 "/>
</g>
<g clip-path="url(#clip2)" clip-rule="nonzero">
<path style="fill:none;stroke-width:1.062992;stroke-linecap:butt;stroke-linejoin:round;stroke:rgb(0%,0%,0%);stroke-opacity:1;stroke-miterlimit:1;" d="M 116.972656 133.960938 L 117.726562 128.480469 L 118.476562 123.355469 L 119.230469 118.351562 L 119.984375 113.703125 L 120.734375 109.175781 L 121.488281 104.886719 L 122.242188 100.835938 L 122.992188 97.019531 L 123.746094 93.328125 L 124.496094 89.75 L 125.25 86.296875 L 126.003906 83.078125 L 126.753906 80.097656 L 127.507812 77.121094 L 128.261719 74.261719 L 129.011719 71.636719 L 129.765625 69.015625 L 130.515625 66.632812 L 131.269531 64.25 L 132.023438 62.105469 L 132.773438 59.960938 L 133.527344 57.933594 L 134.28125 56.027344 L 135.03125 54.238281 L 135.785156 52.453125 L 136.539062 50.785156 L 137.289062 49.234375 L 138.042969 47.6875 L 138.792969 46.253906 L 139.546875 44.945312 L 140.300781 43.632812 L 141.050781 42.441406 L 141.804688 41.25 L 142.558594 40.179688 L 143.308594 39.105469 L 144.0625 38.152344 L 144.8125 37.199219 L 145.566406 36.363281 L 146.320312 35.53125 L 147.070312 34.695312 L 148.578125 33.265625 L 149.328125 32.671875 L 150.082031 32.074219 L 150.832031 31.480469 L 152.339844 30.527344 L 153.089844 30.050781 L 153.84375 29.691406 L 154.597656 29.214844 L 155.347656 28.855469 L 156.101562 28.617188 L 156.851562 28.261719 L 158.359375 27.785156 L 159.109375 27.664062 L 159.863281 27.425781 L 160.617188 27.308594 L 161.367188 27.1875 L 162.121094 27.070312 L 162.871094 26.949219 L 167.386719 26.949219 L 168.140625 27.070312 L 168.890625 27.070312 L 169.644531 27.1875 L 170.398438 27.308594 L 171.148438 27.425781 L 171.902344 27.546875 L 172.65625 27.664062 L 173.40625 27.785156 L 174.160156 28.023438 L 174.910156 28.140625 L 176.417969 28.617188 L 177.167969 28.738281 L 178.675781 29.214844 L 179.425781 29.453125 L 180.179688 29.691406 L 180.929688 30.050781 L 182.4375 30.527344 L 183.1875 30.882812 L 183.941406 31.121094 L 184.695312 31.480469 L 185.445312 31.71875 L 186.199219 32.074219 L 186.949219 32.3125 L 187.703125 32.671875 L 188.457031 33.027344 L 189.207031 33.265625 L 189.960938 33.625 L 190.714844 33.980469 "/>
</g>
<g clip-path="url(#clip3)" clip-rule="nonzero">
<path style="fill:none;stroke-width:1.062992;stroke-linecap:butt;stroke-linejoin:round;stroke:rgb(0%,0%,0%);stroke-opacity:1;stroke-miterlimit:1;" d="M 208.773438 133.960938 L 209.527344 128.9375 L 210.277344 123.910156 L 211.03125 119.09375 L 211.785156 114.488281 L 212.535156 110.296875 L 213.289062 106.109375 L 214.039062 102.132812 L 215.546875 94.59375 L 216.296875 91.242188 L 217.804688 84.539062 L 218.554688 81.609375 L 219.308594 78.675781 L 220.058594 75.746094 L 220.8125 73.230469 L 221.566406 70.71875 L 222.316406 68.207031 L 223.824219 63.597656 L 224.574219 61.503906 L 225.328125 59.410156 L 226.078125 57.527344 L 226.832031 55.640625 L 227.585938 53.964844 L 228.335938 52.082031 L 229.089844 50.613281 L 229.84375 48.9375 L 230.59375 47.472656 L 231.347656 46.21875 L 232.097656 44.75 L 232.851562 43.496094 L 233.605469 42.449219 L 234.355469 41.191406 L 235.863281 39.097656 L 236.613281 38.257812 L 237.367188 37.210938 L 238.117188 36.375 L 238.871094 35.535156 L 239.625 34.910156 L 240.375 34.070312 L 241.882812 32.8125 L 242.632812 32.1875 L 243.386719 31.558594 L 244.136719 31.140625 L 244.890625 30.71875 L 245.644531 30.09375 L 246.394531 29.671875 L 247.148438 29.464844 L 247.902344 29.042969 L 248.652344 28.625 L 249.40625 28.417969 L 250.15625 28.207031 L 250.910156 27.996094 L 251.664062 27.789062 L 252.414062 27.578125 L 253.167969 27.371094 L 253.921875 27.160156 L 254.671875 27.160156 L 255.425781 26.949219 L 262.195312 26.949219 L 262.949219 27.160156 L 263.703125 27.160156 L 264.453125 27.371094 L 265.207031 27.371094 L 265.960938 27.578125 L 266.710938 27.789062 L 267.464844 27.996094 L 268.214844 27.996094 L 269.722656 28.417969 L 270.472656 28.625 L 271.226562 28.835938 L 271.980469 29.042969 L 272.730469 29.253906 L 273.484375 29.464844 L 274.234375 29.882812 L 274.988281 30.09375 L 275.742188 30.300781 L 276.492188 30.511719 L 277.246094 30.929688 L 278 31.140625 L 278.75 31.347656 L 279.503906 31.765625 L 280.253906 31.976562 L 281.007812 32.394531 L 281.761719 32.605469 L 282.511719 33.023438 "/>
</g>
<g clip-path="url(#clip4)" clip-rule="nonzero">
<path style="fill:none;stroke-width:1.062992;stroke-linecap:butt;stroke-linejoin:round;stroke:rgb(0%,0%,0%);stroke-opacity:1;stroke-miterlimit:1;" d="M 300.574219 69.796875 L 301.324219 65.242188 L 302.078125 61.308594 L 302.832031 57.378906 L 303.582031 54.066406 L 304.335938 50.753906 L 305.089844 47.855469 L 305.839844 45.164062 L 306.59375 42.679688 L 307.34375 40.40625 L 308.851562 36.679688 L 309.601562 35.023438 L 311.109375 32.125 L 311.859375 31.089844 L 312.613281 30.054688 L 313.363281 29.226562 L 314.871094 27.984375 L 315.621094 27.570312 L 316.375 27.15625 L 317.128906 26.949219 L 319.382812 26.949219 L 320.890625 27.363281 L 321.640625 27.777344 L 322.394531 28.191406 L 323.148438 28.8125 L 323.898438 29.226562 L 324.652344 30.054688 L 325.402344 30.675781 L 326.910156 32.332031 L 327.660156 33.367188 L 328.414062 34.195312 L 329.167969 35.230469 L 329.917969 36.265625 L 330.671875 37.507812 L 331.421875 38.542969 L 332.929688 41.027344 L 333.679688 42.269531 L 334.433594 43.714844 L 335.1875 44.957031 L 335.9375 46.40625 L 336.691406 47.855469 L 337.441406 49.304688 L 338.949219 52.203125 L 339.699219 53.859375 L 340.453125 55.308594 L 341.207031 56.964844 L 341.957031 58.414062 L 342.710938 60.070312 L 343.460938 61.722656 L 344.96875 65.035156 L 345.71875 66.691406 L 346.472656 68.347656 L 347.226562 70.210938 L 347.976562 71.867188 L 348.730469 73.523438 L 349.480469 75.386719 L 350.234375 77.042969 L 350.988281 78.902344 L 351.738281 80.558594 L 352.492188 82.421875 L 353.246094 84.078125 L 353.996094 85.941406 L 354.75 87.804688 L 355.5 89.460938 L 357.007812 93.1875 L 357.757812 94.84375 L 358.511719 96.707031 L 359.265625 98.566406 L 360.015625 100.429688 L 360.769531 102.085938 L 361.523438 103.949219 L 362.273438 105.8125 L 363.027344 107.46875 L 363.777344 109.332031 L 364.53125 111.195312 L 365.285156 112.851562 L 366.035156 114.714844 L 366.789062 116.574219 L 367.542969 118.230469 L 368.292969 120.09375 L 369.046875 121.75 L 369.796875 123.613281 L 370.550781 125.269531 L 371.304688 127.132812 L 372.054688 128.789062 L 372.808594 130.652344 L 373.5625 132.308594 L 374.3125 133.960938 "/>
</g>
<g clip-path="url(#clip5)" clip-rule="nonzero">
<path style="fill:none;stroke-width:1.062992;stroke-linecap:butt;stroke-linejoin:round;stroke:rgb(0%,0%,0%);stroke-opacity:1;stroke-miterlimit:1;" d="M 392.375 133.960938 L 393.125 121.101562 L 393.878906 110.164062 L 394.632812 100.707031 L 395.382812 92.484375 L 396.136719 85.203125 L 396.886719 78.789062 L 397.640625 73.066406 L 398.394531 67.957031 L 399.144531 63.359375 L 399.898438 59.265625 L 400.652344 55.570312 L 401.402344 52.238281 L 402.15625 49.230469 L 402.90625 46.511719 L 403.660156 44.050781 L 404.414062 41.875 L 405.164062 39.882812 L 405.917969 38.109375 L 406.671875 36.515625 L 407.421875 35.101562 L 408.175781 33.832031 L 408.925781 32.710938 L 409.679688 31.695312 L 410.433594 30.828125 L 411.183594 30.066406 L 411.9375 29.414062 L 412.691406 28.835938 L 413.441406 28.363281 L 414.195312 27.929688 L 414.945312 27.601562 L 415.699219 27.347656 L 416.453125 27.167969 L 417.203125 27.023438 L 417.957031 26.949219 L 419.460938 26.949219 L 420.214844 27.023438 L 420.964844 27.132812 L 422.472656 27.421875 L 423.222656 27.640625 L 423.976562 27.890625 L 424.730469 28.144531 L 425.480469 28.4375 L 426.234375 28.726562 L 426.984375 29.050781 L 428.492188 29.777344 L 429.242188 30.136719 L 429.996094 30.535156 L 430.75 30.972656 L 431.5 31.371094 L 432.253906 31.804688 L 433.003906 32.238281 L 433.757812 32.675781 L 434.511719 33.109375 L 435.261719 33.578125 L 436.015625 34.050781 L 436.769531 34.484375 L 437.519531 34.957031 L 438.273438 35.425781 L 439.023438 35.898438 L 439.777344 36.371094 L 440.53125 36.839844 L 441.28125 37.3125 L 442.035156 37.78125 L 442.789062 38.253906 L 443.539062 38.722656 L 444.292969 39.195312 L 445.042969 39.664062 L 445.796875 40.101562 L 446.550781 40.570312 L 447.300781 41.042969 L 448.808594 41.910156 L 449.558594 42.382812 L 450.3125 42.816406 L 451.0625 43.253906 L 451.816406 43.652344 L 452.570312 44.085938 L 453.320312 44.519531 L 454.828125 45.316406 L 455.578125 45.714844 L 456.332031 46.113281 L 457.082031 46.511719 L 457.835938 46.910156 L 458.589844 47.273438 L 459.339844 47.636719 L 460.09375 47.996094 L 460.847656 48.359375 L 461.597656 48.722656 L 462.351562 49.085938 L 463.101562 49.410156 L 463.855469 49.773438 L 464.609375 50.097656 L 465.359375 50.425781 L 466.113281 50.75 "/>
</g>
<g clip-path="url(#clip6)" clip-rule="nonzero">
<path style="fill:none;stroke-width:1.062992;stroke-linecap:butt;stroke-linejoin:round;stroke:rgb(0%,0%,0%);stroke-opacity:1;stroke-miterlimit:1;" d="M 484.171875 50.902344 L 484.925781 47.84375 L 485.679688 45.296875 L 486.429688 43.257812 L 487.9375 39.179688 L 488.6875 37.140625 L 489.441406 35.613281 L 490.191406 34.085938 L 491.699219 32.046875 L 492.449219 30.519531 L 493.203125 30.007812 L 493.957031 28.988281 L 494.707031 28.480469 L 495.460938 27.96875 L 496.210938 27.460938 L 496.964844 26.949219 L 501.480469 26.949219 L 502.230469 27.460938 L 502.984375 27.96875 L 503.738281 28.480469 L 504.488281 28.988281 L 505.242188 29.5 L 505.996094 30.007812 L 506.746094 30.519531 L 507.5 31.535156 L 508.25 32.554688 L 509.003906 33.066406 L 509.757812 34.085938 L 510.507812 35.105469 L 511.261719 36.125 L 512.015625 37.140625 L 512.765625 38.160156 L 513.519531 39.691406 L 514.269531 40.710938 L 515.023438 41.726562 L 515.777344 43.257812 L 516.527344 44.277344 L 518.035156 47.332031 L 518.785156 48.351562 L 519.539062 49.882812 L 520.289062 51.410156 L 521.042969 52.9375 L 521.796875 54.46875 L 522.546875 55.996094 L 523.300781 57.527344 L 524.054688 59.054688 L 524.804688 60.582031 L 525.558594 62.113281 L 526.308594 63.640625 L 527.0625 65.167969 L 527.816406 66.699219 L 528.566406 68.226562 L 529.320312 70.265625 L 530.074219 71.792969 L 530.824219 73.324219 L 531.578125 74.851562 L 532.328125 76.890625 L 533.835938 79.945312 L 534.585938 81.984375 L 535.339844 83.515625 L 536.09375 85.042969 L 536.84375 87.082031 L 537.597656 88.609375 L 538.347656 90.140625 L 539.101562 92.175781 L 539.855469 93.707031 L 540.605469 95.234375 L 541.359375 97.273438 L 542.113281 98.800781 L 542.863281 100.839844 L 543.617188 102.367188 L 544.367188 103.898438 L 545.121094 105.9375 L 545.875 107.464844 L 546.625 108.992188 L 547.378906 111.03125 L 548.132812 112.558594 L 548.882812 114.089844 L 549.636719 116.128906 L 550.386719 117.65625 L 551.140625 119.183594 L 551.894531 120.714844 L 552.644531 122.753906 L 554.152344 125.808594 L 554.902344 127.339844 L 555.65625 129.375 L 556.40625 130.90625 L 557.914062 133.960938 "/>
</g>
<g clip-path="url(#clip7)" clip-rule="nonzero">
<path style="fill:none;stroke-width:1.062992;stroke-linecap:butt;stroke-linejoin:round;stroke:rgb(0%,0%,0%);stroke-opacity:1;stroke-miterlimit:1;" d="M 25.171875 269.5625 L 25.925781 263.828125 L 26.679688 258.414062 L 27.429688 253.320312 L 28.183594 248.222656 L 28.9375 243.445312 L 29.6875 238.667969 L 30.441406 234.210938 L 31.191406 230.070312 L 31.945312 226.25 L 32.699219 222.425781 L 33.449219 218.605469 L 34.203125 215.101562 L 34.957031 211.917969 L 35.707031 208.730469 L 36.460938 205.863281 L 37.210938 203 L 37.964844 200.132812 L 38.71875 197.585938 L 39.46875 195.035156 L 40.222656 192.808594 L 40.976562 190.578125 L 41.726562 188.347656 L 42.480469 186.4375 L 43.230469 184.527344 L 43.984375 182.617188 L 44.738281 181.023438 L 45.488281 179.429688 L 46.242188 177.839844 L 46.996094 176.5625 L 47.746094 175.289062 L 48.5 174.015625 L 49.25 172.742188 L 50.003906 171.785156 L 50.757812 170.511719 L 51.507812 169.558594 L 52.261719 168.921875 L 53.015625 167.964844 L 53.765625 167.328125 L 54.519531 166.691406 L 55.269531 166.054688 L 56.777344 164.78125 L 57.527344 164.460938 L 58.28125 164.144531 L 59.035156 163.507812 L 59.785156 163.1875 L 60.539062 163.1875 L 61.289062 162.867188 L 62.042969 162.550781 L 68.0625 162.550781 L 68.816406 162.867188 L 69.566406 162.867188 L 71.074219 163.507812 L 71.824219 163.824219 L 72.578125 164.144531 L 73.328125 164.144531 L 74.082031 164.78125 L 74.835938 165.097656 L 75.585938 165.417969 L 76.339844 165.734375 L 77.09375 166.054688 L 77.84375 166.691406 L 78.597656 167.007812 L 79.347656 167.644531 L 80.101562 167.964844 L 80.855469 168.601562 L 81.605469 168.921875 L 83.113281 170.195312 L 83.863281 170.511719 L 84.617188 171.148438 L 85.367188 171.785156 L 86.121094 172.421875 L 86.875 173.0625 L 87.625 173.378906 L 89.132812 174.652344 L 89.882812 175.289062 L 90.636719 175.925781 L 91.386719 176.5625 L 92.140625 177.199219 L 92.894531 177.839844 L 93.644531 178.476562 L 94.398438 179.429688 L 95.152344 180.066406 L 95.902344 180.703125 L 96.65625 181.339844 L 97.40625 181.976562 L 98.160156 182.617188 L 98.914062 183.253906 "/>
</g>
<g clip-path="url(#clip8)" clip-rule="nonzero">
<path style="fill:none;stroke-width:1.062992;stroke-linecap:butt;stroke-linejoin:round;stroke:rgb(0%,0%,0%);stroke-opacity:1;stroke-miterlimit:1;" d="M 116.972656 269.5625 L 117.726562 263.09375 L 118.476562 256.921875 L 119.984375 245.75 L 120.734375 240.457031 L 121.488281 235.460938 L 122.242188 230.757812 L 122.992188 226.347656 L 123.746094 221.9375 L 124.496094 218.113281 L 126.003906 210.472656 L 126.753906 206.941406 L 127.507812 203.710938 L 128.261719 200.769531 L 129.011719 197.828125 L 129.765625 194.890625 L 130.515625 192.539062 L 131.269531 189.890625 L 132.023438 187.539062 L 132.773438 185.480469 L 133.527344 183.425781 L 134.28125 181.367188 L 135.03125 179.601562 L 135.785156 177.839844 L 136.539062 176.367188 L 137.289062 174.898438 L 138.042969 173.429688 L 138.792969 172.253906 L 139.546875 171.078125 L 140.300781 169.898438 L 141.050781 169.019531 L 142.558594 167.253906 L 143.308594 166.371094 L 144.0625 165.785156 L 144.8125 165.195312 L 145.566406 164.609375 L 146.320312 164.019531 L 147.070312 163.726562 L 147.824219 163.433594 L 148.578125 163.136719 L 149.328125 162.84375 L 150.082031 162.550781 L 154.597656 162.550781 L 155.347656 162.84375 L 156.101562 162.84375 L 156.851562 163.136719 L 157.605469 163.433594 L 158.359375 163.726562 L 159.109375 164.019531 L 159.863281 164.316406 L 160.617188 164.902344 L 161.367188 165.195312 L 162.121094 165.785156 L 162.871094 166.078125 L 163.625 166.667969 L 164.378906 167.253906 L 165.128906 167.84375 L 165.882812 168.136719 L 166.636719 168.722656 L 167.386719 169.605469 L 168.140625 170.195312 L 168.890625 170.78125 L 169.644531 171.371094 L 170.398438 172.253906 L 171.148438 172.839844 L 171.902344 173.429688 L 172.65625 174.308594 L 173.40625 174.898438 L 174.160156 175.78125 L 174.910156 176.660156 L 175.664062 177.25 L 176.417969 178.132812 L 177.167969 179.015625 L 177.921875 179.601562 L 178.675781 180.484375 L 179.425781 181.367188 L 180.179688 182.246094 L 180.929688 183.128906 L 182.4375 184.894531 L 183.1875 185.777344 L 183.941406 186.65625 L 184.695312 187.246094 L 185.445312 188.128906 L 186.199219 189.007812 L 186.949219 189.890625 L 187.703125 191.066406 L 188.457031 191.949219 L 189.207031 192.832031 L 189.960938 193.714844 L 190.714844 194.59375 "/>
</g>
<g clip-path="url(#clip9)" clip-rule="nonzero">
<path style="fill:none;stroke-width:1.062992;stroke-linecap:butt;stroke-linejoin:round;stroke:rgb(0%,0%,0%);stroke-opacity:1;stroke-miterlimit:1;" d="M 208.773438 269.5625 L 209.527344 264.6875 L 210.277344 259.8125 L 211.03125 255.179688 L 211.785156 250.792969 L 212.535156 246.40625 L 213.289062 242.503906 L 214.039062 238.605469 L 215.546875 231.292969 L 216.296875 227.878906 L 217.050781 224.464844 L 217.804688 221.296875 L 218.554688 218.371094 L 219.308594 215.449219 L 220.058594 212.765625 L 220.8125 210.085938 L 221.566406 207.402344 L 222.316406 204.964844 L 223.070312 202.773438 L 223.824219 200.578125 L 224.574219 198.382812 L 225.328125 196.191406 L 226.078125 194.238281 L 226.832031 192.535156 L 227.585938 190.582031 L 228.335938 188.878906 L 229.089844 187.414062 L 229.84375 185.707031 L 230.59375 184.246094 L 231.347656 182.78125 L 232.097656 181.5625 L 233.605469 179.125 L 234.355469 177.90625 L 235.109375 176.6875 L 235.863281 175.714844 L 236.613281 174.738281 L 237.367188 173.765625 L 238.117188 172.789062 L 238.871094 172.058594 L 239.625 171.324219 L 240.375 170.351562 L 241.128906 169.863281 L 241.882812 169.132812 L 242.632812 168.402344 L 243.386719 167.914062 L 244.136719 167.425781 L 244.890625 166.695312 L 245.644531 166.207031 L 246.394531 165.964844 L 247.902344 164.988281 L 248.652344 164.746094 L 249.40625 164.5 L 250.15625 164.011719 L 251.664062 163.527344 L 252.414062 163.28125 L 253.167969 163.28125 L 253.921875 163.039062 L 254.671875 162.792969 L 255.425781 162.792969 L 256.175781 162.550781 L 263.703125 162.550781 L 264.453125 162.792969 L 265.207031 162.792969 L 265.960938 163.039062 L 266.710938 163.039062 L 267.464844 163.28125 L 268.214844 163.28125 L 268.96875 163.527344 L 269.722656 163.769531 L 270.472656 163.769531 L 271.226562 164.011719 L 271.980469 164.257812 L 272.730469 164.5 L 273.484375 164.746094 L 274.234375 164.988281 L 274.988281 164.988281 L 275.742188 165.230469 L 276.492188 165.476562 L 277.246094 165.71875 L 278 166.207031 L 278.75 166.449219 L 279.503906 166.695312 L 280.253906 166.9375 L 281.007812 167.183594 L 281.761719 167.425781 L 282.511719 167.667969 "/>
</g>
<g clip-path="url(#clip10)" clip-rule="nonzero">
<path style="fill:none;stroke-width:1.062992;stroke-linecap:butt;stroke-linejoin:round;stroke:rgb(0%,0%,0%);stroke-opacity:1;stroke-miterlimit:1;" d="M 300.574219 269.5625 L 301.324219 263.769531 L 302.078125 258.144531 L 302.832031 252.863281 L 303.582031 247.921875 L 304.335938 243.152344 L 305.089844 238.550781 L 305.839844 234.289062 L 306.59375 230.199219 L 307.34375 226.28125 L 308.097656 222.53125 L 308.851562 219.125 L 309.601562 215.714844 L 310.355469 212.476562 L 311.109375 209.410156 L 311.859375 206.515625 L 312.613281 203.789062 L 313.363281 201.230469 L 314.117188 198.675781 L 314.871094 196.289062 L 315.621094 194.074219 L 316.375 192.03125 L 317.128906 189.984375 L 317.878906 188.109375 L 318.632812 186.238281 L 319.382812 184.53125 L 320.136719 182.828125 L 320.890625 181.292969 L 321.640625 179.761719 L 322.394531 178.398438 L 323.148438 177.207031 L 323.898438 175.84375 L 324.652344 174.820312 L 325.402344 173.625 L 326.15625 172.605469 L 326.910156 171.753906 L 327.660156 170.730469 L 328.414062 169.878906 L 329.167969 169.195312 L 329.917969 168.34375 L 330.671875 167.664062 L 331.421875 167.152344 L 332.175781 166.46875 L 332.929688 165.957031 L 333.679688 165.449219 L 334.433594 165.105469 L 335.1875 164.59375 L 335.9375 164.253906 L 336.691406 163.914062 L 337.441406 163.574219 L 338.949219 163.230469 L 339.699219 163.0625 L 340.453125 162.890625 L 341.207031 162.722656 L 341.957031 162.550781 L 346.472656 162.550781 L 347.226562 162.722656 L 347.976562 162.722656 L 348.730469 162.890625 L 349.480469 163.0625 L 350.234375 163.230469 L 350.988281 163.402344 L 351.738281 163.574219 L 352.492188 163.742188 L 353.246094 163.914062 L 353.996094 164.253906 L 354.75 164.425781 L 355.5 164.765625 L 356.253906 164.9375 L 357.007812 165.277344 L 357.757812 165.617188 L 358.511719 165.957031 L 359.265625 166.300781 L 360.015625 166.640625 L 361.523438 167.320312 L 362.273438 167.664062 L 363.027344 168.003906 L 363.777344 168.515625 L 365.285156 169.195312 L 366.035156 169.707031 L 366.789062 170.046875 L 367.542969 170.390625 L 368.292969 170.898438 L 369.046875 171.410156 L 369.796875 171.753906 L 370.550781 172.261719 L 371.304688 172.605469 L 372.054688 173.117188 L 372.808594 173.625 L 373.5625 173.96875 L 374.3125 174.480469 "/>
</g>
<g clip-path="url(#clip11)" clip-rule="nonzero">
<path style="fill:none;stroke-width:1.062992;stroke-linecap:butt;stroke-linejoin:round;stroke:rgb(0%,0%,0%);stroke-opacity:1;stroke-miterlimit:1;" d="M 392.375 173.445312 L 393.125 172.164062 L 393.878906 170.238281 L 394.632812 168.957031 L 395.382812 167.675781 L 396.136719 167.035156 L 396.886719 165.753906 L 398.394531 164.472656 L 399.144531 163.832031 L 399.898438 163.191406 L 400.652344 163.191406 L 401.402344 162.550781 L 405.917969 162.550781 L 406.671875 163.191406 L 407.421875 163.191406 L 408.175781 163.832031 L 408.925781 163.832031 L 410.433594 165.113281 L 411.183594 165.753906 L 411.9375 166.394531 L 412.691406 167.675781 L 413.441406 168.316406 L 414.195312 168.957031 L 414.945312 170.238281 L 415.699219 170.882812 L 416.453125 172.164062 L 417.203125 172.804688 L 418.710938 175.367188 L 419.460938 176.007812 L 420.214844 177.289062 L 420.964844 178.570312 L 422.472656 181.132812 L 423.222656 182.414062 L 424.730469 184.976562 L 425.480469 186.261719 L 426.234375 187.542969 L 426.984375 189.464844 L 428.492188 192.027344 L 429.242188 193.308594 L 429.996094 195.230469 L 430.75 196.511719 L 431.5 197.792969 L 432.253906 199.714844 L 433.003906 201 L 433.757812 202.28125 L 434.511719 204.203125 L 435.261719 205.484375 L 436.015625 207.40625 L 436.769531 208.6875 L 437.519531 210.609375 L 438.273438 211.890625 L 439.023438 213.171875 L 439.777344 215.09375 L 440.53125 216.378906 L 441.28125 218.300781 L 442.035156 219.582031 L 442.789062 221.503906 L 443.539062 222.785156 L 444.292969 224.707031 L 445.042969 225.988281 L 445.796875 227.910156 L 446.550781 229.191406 L 447.300781 231.117188 L 448.054688 232.398438 L 448.808594 234.320312 L 449.558594 235.601562 L 450.3125 237.523438 L 451.0625 238.804688 L 451.816406 240.726562 L 452.570312 242.007812 L 453.320312 243.929688 L 454.074219 245.210938 L 454.828125 247.136719 L 455.578125 248.417969 L 456.332031 250.339844 L 457.082031 251.621094 L 457.835938 252.902344 L 458.589844 254.824219 L 459.339844 256.105469 L 460.09375 258.027344 L 460.847656 259.308594 L 461.597656 260.589844 L 462.351562 262.515625 L 463.101562 263.796875 L 463.855469 265.078125 L 464.609375 267 L 465.359375 268.28125 L 466.113281 269.5625 "/>
</g>
<g clip-path="url(#clip12)" clip-rule="nonzero">
<path style="fill:none;stroke-width:1.062992;stroke-linecap:butt;stroke-linejoin:round;stroke:rgb(0%,0%,0%);stroke-opacity:1;stroke-miterlimit:1;" d="M 484.171875 269.5625 L 484.925781 262.171875 L 485.679688 255.421875 L 486.429688 248.675781 L 487.9375 236.464844 L 488.6875 231 L 489.441406 225.535156 L 490.191406 220.714844 L 490.945312 215.894531 L 491.699219 211.398438 L 492.449219 207.21875 L 493.203125 203.363281 L 493.957031 199.828125 L 494.707031 196.292969 L 495.460938 193.078125 L 496.210938 189.867188 L 496.964844 187.296875 L 497.71875 184.402344 L 498.46875 182.152344 L 499.222656 179.902344 L 499.976562 177.65625 L 500.726562 175.726562 L 501.480469 174.121094 L 502.230469 172.511719 L 502.984375 170.90625 L 503.738281 169.621094 L 504.488281 168.335938 L 505.996094 166.40625 L 506.746094 165.441406 L 507.5 164.800781 L 508.25 164.15625 L 509.003906 163.515625 L 509.757812 163.191406 L 510.507812 162.871094 L 511.261719 162.550781 L 514.269531 162.550781 L 515.023438 162.871094 L 515.777344 162.871094 L 516.527344 163.191406 L 517.28125 163.835938 L 518.035156 164.15625 L 518.785156 164.800781 L 519.539062 165.441406 L 520.289062 166.085938 L 521.042969 166.726562 L 521.796875 167.371094 L 522.546875 168.335938 L 523.300781 168.976562 L 524.054688 169.941406 L 524.804688 170.90625 L 525.558594 171.871094 L 526.308594 172.835938 L 527.0625 173.796875 L 527.816406 175.082031 L 528.566406 176.046875 L 530.074219 178.617188 L 530.824219 179.582031 L 531.578125 180.867188 L 532.328125 182.152344 L 533.835938 184.722656 L 534.585938 186.332031 L 536.09375 188.902344 L 536.84375 190.507812 L 537.597656 191.792969 L 538.347656 193.402344 L 539.101562 194.6875 L 539.855469 196.292969 L 540.605469 197.578125 L 541.359375 199.183594 L 542.113281 200.792969 L 542.863281 202.398438 L 543.617188 203.683594 L 544.367188 205.292969 L 545.875 208.503906 L 546.625 210.113281 L 548.132812 213.324219 L 548.882812 214.933594 L 549.636719 216.539062 L 550.386719 218.144531 L 551.140625 219.753906 L 551.894531 221.039062 L 552.644531 222.964844 L 553.398438 224.574219 L 554.152344 226.179688 L 554.902344 227.785156 L 555.65625 229.394531 L 556.40625 231 L 557.160156 232.605469 L 557.914062 234.214844 "/>
</g>
<g clip-path="url(#clip13)" clip-rule="nonzero">
<path style="fill:none;stroke-width:1.062992;stroke-linecap:butt;stroke-linejoin:round;stroke:rgb(0%,0%,0%);stroke-opacity:1;stroke-miterlimit:1;" d="M 25.171875 405.164062 L 25.925781 394.59375 L 26.679688 385.09375 L 27.429688 376.539062 L 28.183594 368.738281 L 28.9375 361.753906 L 29.6875 355.335938 L 30.441406 349.550781 L 31.191406 344.203125 L 31.945312 339.421875 L 32.699219 335.015625 L 33.449219 330.992188 L 34.203125 327.339844 L 34.957031 324.070312 L 35.707031 321.050781 L 36.460938 318.28125 L 37.210938 315.765625 L 37.964844 313.5 L 38.71875 311.488281 L 39.46875 309.601562 L 40.222656 307.964844 L 40.976562 306.453125 L 41.726562 305.132812 L 42.480469 303.9375 L 43.230469 302.933594 L 43.984375 301.988281 L 44.738281 301.171875 L 45.488281 300.476562 L 46.242188 299.914062 L 46.996094 299.410156 L 47.746094 299.03125 L 48.5 298.71875 L 49.25 298.464844 L 50.003906 298.277344 L 50.757812 298.152344 L 52.261719 298.152344 L 53.015625 298.214844 L 53.765625 298.277344 L 54.519531 298.464844 L 55.269531 298.652344 L 56.023438 298.90625 L 56.777344 299.15625 L 57.527344 299.472656 L 58.28125 299.785156 L 59.035156 300.164062 L 59.785156 300.542969 L 60.539062 300.980469 L 61.289062 301.359375 L 62.042969 301.863281 L 62.796875 302.304688 L 63.546875 302.804688 L 64.300781 303.246094 L 65.054688 303.75 L 65.804688 304.316406 L 66.558594 304.820312 L 67.308594 305.386719 L 68.0625 305.890625 L 68.816406 306.453125 L 69.566406 307.019531 L 70.320312 307.523438 L 71.074219 308.089844 L 71.824219 308.65625 L 72.578125 309.222656 L 73.328125 309.789062 L 74.835938 310.921875 L 75.585938 311.488281 L 76.339844 312.054688 L 77.09375 312.558594 L 77.84375 313.125 L 78.597656 313.691406 L 79.347656 314.257812 L 80.101562 314.757812 L 80.855469 315.324219 L 81.605469 315.828125 L 82.359375 316.394531 L 83.113281 316.898438 L 83.863281 317.402344 L 84.617188 317.90625 L 85.367188 318.40625 L 86.875 319.414062 L 87.625 319.917969 L 88.378906 320.359375 L 89.132812 320.863281 L 89.882812 321.300781 L 90.636719 321.742188 L 91.386719 322.183594 L 92.140625 322.625 L 92.894531 323.0625 L 93.644531 323.503906 L 94.398438 323.945312 L 95.152344 324.320312 L 95.902344 324.761719 L 96.65625 325.140625 L 97.40625 325.578125 L 98.914062 326.335938 "/>
</g>
<g clip-path="url(#clip14)" clip-rule="nonzero">
<path style="fill:none;stroke-width:1.062992;stroke-linecap:butt;stroke-linejoin:round;stroke:rgb(0%,0%,0%);stroke-opacity:1;stroke-miterlimit:1;" d="M 116.972656 405.164062 L 117.726562 396.023438 L 118.476562 387.667969 L 119.230469 380.105469 L 119.984375 373.011719 L 120.734375 366.550781 L 121.488281 360.5625 L 122.242188 355.046875 L 122.992188 350 L 123.746094 345.273438 L 124.496094 340.859375 L 125.25 336.921875 L 126.003906 333.296875 L 126.753906 329.828125 L 127.507812 326.675781 L 128.261719 323.839844 L 129.011719 321.160156 L 129.765625 318.796875 L 130.515625 316.589844 L 131.269531 314.542969 L 132.023438 312.648438 L 132.773438 310.917969 L 133.527344 309.339844 L 134.28125 307.921875 L 135.03125 306.660156 L 135.785156 305.558594 L 136.539062 304.453125 L 137.289062 303.507812 L 138.042969 302.5625 L 138.792969 301.933594 L 139.546875 301.144531 L 140.300781 300.671875 L 141.050781 300.042969 L 141.804688 299.726562 L 142.558594 299.253906 L 143.308594 298.9375 L 144.0625 298.625 L 144.8125 298.464844 L 146.320312 298.152344 L 150.082031 298.152344 L 150.832031 298.308594 L 151.585938 298.464844 L 152.339844 298.464844 L 153.089844 298.78125 L 153.84375 298.9375 L 154.597656 299.097656 L 155.347656 299.253906 L 156.101562 299.570312 L 156.851562 299.882812 L 157.605469 300.042969 L 158.359375 300.355469 L 159.109375 300.671875 L 159.863281 300.988281 L 160.617188 301.300781 L 161.367188 301.617188 L 162.121094 301.933594 L 162.871094 302.25 L 163.625 302.5625 L 164.378906 302.878906 L 165.128906 303.195312 L 165.882812 303.507812 L 166.636719 303.824219 L 167.386719 304.296875 L 168.140625 304.613281 L 168.890625 304.925781 L 170.398438 305.558594 L 171.148438 306.03125 L 171.902344 306.347656 L 172.65625 306.660156 L 173.40625 306.976562 L 174.160156 307.292969 L 174.910156 307.605469 L 175.664062 307.921875 L 176.417969 308.394531 L 177.167969 308.710938 L 177.921875 309.023438 L 178.675781 309.339844 L 179.425781 309.65625 L 180.179688 309.972656 L 180.929688 310.285156 L 181.683594 310.445312 L 182.4375 310.757812 L 183.1875 311.074219 L 183.941406 311.390625 L 184.695312 311.703125 L 185.445312 312.019531 L 186.199219 312.175781 L 186.949219 312.492188 L 187.703125 312.808594 L 188.457031 313.121094 L 189.207031 313.28125 L 189.960938 313.59375 L 190.714844 313.753906 "/>
</g>
<g clip-path="url(#clip15)" clip-rule="nonzero">
<path style="fill:none;stroke-width:1.062992;stroke-linecap:butt;stroke-linejoin:round;stroke:rgb(0%,0%,0%);stroke-opacity:1;stroke-miterlimit:1;" d="M 208.773438 308.144531 L 209.527344 306.515625 L 210.277344 305.007812 L 211.03125 303.726562 L 211.785156 302.566406 L 212.535156 301.519531 L 213.289062 300.707031 L 214.039062 300.007812 L 214.792969 299.429688 L 215.546875 298.964844 L 216.296875 298.617188 L 217.050781 298.265625 L 217.804688 298.152344 L 219.308594 298.152344 L 220.058594 298.265625 L 220.8125 298.5 L 221.566406 298.730469 L 222.316406 299.082031 L 223.070312 299.542969 L 223.824219 300.007812 L 224.574219 300.472656 L 225.328125 301.171875 L 226.078125 301.753906 L 226.832031 302.566406 L 227.585938 303.261719 L 228.335938 304.078125 L 229.089844 305.007812 L 229.84375 305.820312 L 230.59375 306.863281 L 231.347656 307.792969 L 232.097656 308.839844 L 233.605469 310.933594 L 234.355469 312.09375 L 235.109375 313.253906 L 235.863281 314.417969 L 236.613281 315.695312 L 237.367188 316.855469 L 238.117188 318.136719 L 238.871094 319.414062 L 239.625 320.808594 L 240.375 322.085938 L 241.128906 323.480469 L 241.882812 324.757812 L 242.632812 326.152344 L 243.386719 327.546875 L 244.136719 328.941406 L 244.890625 330.453125 L 245.644531 331.847656 L 246.394531 333.242188 L 247.148438 334.75 L 247.902344 336.261719 L 248.652344 337.65625 L 249.40625 339.167969 L 250.15625 340.675781 L 251.664062 343.699219 L 252.414062 345.207031 L 253.921875 348.230469 L 254.671875 349.738281 L 255.425781 351.25 L 256.175781 352.875 L 257.683594 355.898438 L 258.433594 357.40625 L 259.1875 359.035156 L 259.941406 360.546875 L 260.691406 362.054688 L 261.445312 363.566406 L 262.195312 365.191406 L 263.703125 368.214844 L 264.453125 369.722656 L 265.207031 371.234375 L 265.960938 372.863281 L 266.710938 374.371094 L 267.464844 375.882812 L 268.214844 377.394531 L 268.96875 378.902344 L 269.722656 380.414062 L 270.472656 381.925781 L 271.226562 383.433594 L 271.980469 384.945312 L 272.730469 386.339844 L 273.484375 387.851562 L 274.234375 389.359375 L 274.988281 390.753906 L 275.742188 392.265625 L 276.492188 393.777344 L 277.246094 395.171875 L 278 396.679688 L 278.75 398.074219 L 279.503906 399.46875 L 280.253906 400.863281 L 281.007812 402.375 L 281.761719 403.769531 L 282.511719 405.164062 "/>
</g>
<g clip-path="url(#clip16)" clip-rule="nonzero">
<path style="fill:none;stroke-width:1.062992;stroke-linecap:butt;stroke-linejoin:round;stroke:rgb(0%,0%,0%);stroke-opacity:1;stroke-miterlimit:1;" d="M 300.574219 405.164062 L 301.324219 396.667969 L 302.078125 389.113281 L 302.832031 382.324219 L 303.582031 376.171875 L 304.335938 370.539062 L 305.089844 365.390625 L 305.839844 360.671875 L 306.59375 356.316406 L 307.34375 352.296875 L 308.097656 348.550781 L 308.851562 345.078125 L 309.601562 341.851562 L 310.355469 338.804688 L 311.109375 336.003906 L 311.859375 333.355469 L 312.613281 330.886719 L 313.363281 328.605469 L 314.117188 326.441406 L 314.871094 324.402344 L 315.621094 322.484375 L 316.375 320.714844 L 317.128906 319.011719 L 317.878906 317.457031 L 318.632812 315.964844 L 319.382812 314.59375 L 320.136719 313.285156 L 320.890625 312.066406 L 321.640625 310.910156 L 322.394531 309.84375 L 323.148438 308.808594 L 323.898438 307.863281 L 324.652344 306.980469 L 325.402344 306.160156 L 326.15625 305.398438 L 326.910156 304.667969 L 327.660156 303.996094 L 328.414062 303.386719 L 329.167969 302.808594 L 329.917969 302.261719 L 330.671875 301.773438 L 331.421875 301.316406 L 332.929688 300.527344 L 333.679688 300.191406 L 334.433594 299.855469 L 335.1875 299.582031 L 335.9375 299.308594 L 336.691406 299.09375 L 337.441406 298.882812 L 338.949219 298.578125 L 339.699219 298.457031 L 340.453125 298.332031 L 341.207031 298.273438 L 341.957031 298.210938 L 342.710938 298.152344 L 344.96875 298.152344 L 345.71875 298.179688 L 347.226562 298.304688 L 347.976562 298.363281 L 348.730469 298.457031 L 349.480469 298.578125 L 350.988281 298.820312 L 351.738281 298.972656 L 353.246094 299.277344 L 353.996094 299.460938 L 354.75 299.644531 L 355.5 299.855469 L 356.253906 300.039062 L 357.007812 300.25 L 357.757812 300.496094 L 358.511719 300.707031 L 359.265625 300.953125 L 360.015625 301.195312 L 360.769531 301.441406 L 361.523438 301.714844 L 362.273438 301.957031 L 363.027344 302.230469 L 363.777344 302.503906 L 364.53125 302.808594 L 365.285156 303.085938 L 366.035156 303.386719 L 366.789062 303.664062 L 367.542969 303.96875 L 368.292969 304.273438 L 369.046875 304.578125 L 369.796875 304.910156 L 371.304688 305.519531 L 372.054688 305.855469 L 372.808594 306.191406 L 373.5625 306.496094 L 374.3125 306.828125 "/>
</g>
<g clip-path="url(#clip17)" clip-rule="nonzero">
<path style="fill:none;stroke-width:1.062992;stroke-linecap:butt;stroke-linejoin:round;stroke:rgb(0%,0%,0%);stroke-opacity:1;stroke-miterlimit:1;" d="M 392.375 405.164062 L 393.125 398.796875 L 393.878906 392.734375 L 394.632812 387.277344 L 395.382812 381.820312 L 396.136719 376.667969 L 396.886719 371.816406 L 398.394531 362.722656 L 399.144531 358.476562 L 399.898438 354.535156 L 400.652344 350.898438 L 401.402344 347.261719 L 402.15625 343.925781 L 402.90625 340.589844 L 404.414062 334.527344 L 405.164062 331.800781 L 406.671875 326.949219 L 407.421875 324.523438 L 408.175781 322.402344 L 408.925781 320.28125 L 409.679688 318.460938 L 410.433594 316.644531 L 411.183594 314.824219 L 412.691406 311.792969 L 413.441406 310.277344 L 414.195312 309.0625 L 414.945312 307.851562 L 415.699219 306.640625 L 416.453125 305.425781 L 417.203125 304.515625 L 417.957031 303.605469 L 418.710938 303 L 419.460938 302.089844 L 420.214844 301.484375 L 420.964844 300.878906 L 421.71875 300.273438 L 422.472656 299.96875 L 423.222656 299.363281 L 423.976562 299.058594 L 424.730469 298.757812 L 425.480469 298.453125 L 426.234375 298.453125 L 426.984375 298.152344 L 431.5 298.152344 L 432.253906 298.453125 L 433.003906 298.453125 L 433.757812 298.757812 L 434.511719 299.058594 L 435.261719 299.363281 L 436.015625 299.667969 L 436.769531 299.96875 L 437.519531 300.273438 L 438.273438 300.574219 L 439.023438 301.183594 L 439.777344 301.484375 L 440.53125 302.089844 L 441.28125 302.394531 L 442.789062 303.605469 L 443.539062 304.214844 L 444.292969 304.515625 L 445.042969 305.125 L 446.550781 306.335938 L 447.300781 306.941406 L 448.054688 307.851562 L 448.808594 308.457031 L 449.558594 309.0625 L 450.3125 309.671875 L 451.0625 310.277344 L 451.816406 311.1875 L 452.570312 311.792969 L 453.320312 312.703125 L 454.828125 313.914062 L 455.578125 314.824219 L 456.332031 315.429688 L 457.082031 316.339844 L 457.835938 316.945312 L 458.589844 317.855469 L 459.339844 318.765625 L 460.09375 319.371094 L 460.847656 320.28125 L 461.597656 320.886719 L 462.351562 321.796875 L 463.101562 322.707031 L 463.855469 323.3125 L 464.609375 324.222656 L 465.359375 325.132812 L 466.113281 326.039062 "/>
</g>
<g clip-path="url(#clip18)" clip-rule="nonzero">
<path style="fill:none;stroke-width:1.062992;stroke-linecap:butt;stroke-linejoin:round;stroke:rgb(0%,0%,0%);stroke-opacity:1;stroke-miterlimit:1;" d="M 484.171875 299.886719 L 485.679688 298.730469 L 486.429688 298.730469 L 487.183594 298.152344 L 491.699219 298.152344 L 492.449219 298.730469 L 493.203125 298.730469 L 493.957031 299.308594 L 494.707031 299.308594 L 495.460938 299.886719 L 496.210938 300.464844 L 497.71875 301.621094 L 498.46875 302.199219 L 499.222656 303.355469 L 499.976562 303.933594 L 500.726562 304.511719 L 501.480469 305.671875 L 502.230469 306.25 L 503.738281 308.5625 L 504.488281 309.140625 L 505.996094 311.453125 L 506.746094 312.613281 L 507.5 313.769531 L 508.25 314.925781 L 509.757812 317.238281 L 510.507812 318.394531 L 511.261719 319.554688 L 512.015625 320.710938 L 512.765625 321.867188 L 513.519531 323.601562 L 514.269531 324.757812 L 515.023438 325.914062 L 515.777344 327.074219 L 516.527344 328.808594 L 518.035156 331.121094 L 518.785156 332.855469 L 519.539062 334.015625 L 520.289062 335.171875 L 521.042969 336.90625 L 521.796875 338.0625 L 522.546875 339.796875 L 523.300781 340.957031 L 524.054688 342.691406 L 524.804688 343.847656 L 525.558594 345.582031 L 526.308594 346.738281 L 527.0625 348.476562 L 527.816406 349.632812 L 528.566406 351.367188 L 529.320312 352.523438 L 530.074219 354.257812 L 530.824219 355.417969 L 531.578125 357.152344 L 532.328125 358.308594 L 533.082031 360.042969 L 533.835938 361.199219 L 534.585938 362.9375 L 535.339844 364.09375 L 536.09375 365.828125 L 536.84375 366.984375 L 537.597656 368.722656 L 538.347656 369.878906 L 539.101562 371.613281 L 539.855469 372.769531 L 540.605469 373.925781 L 541.359375 375.664062 L 542.113281 376.820312 L 542.863281 378.554688 L 543.617188 379.710938 L 544.367188 381.445312 L 545.121094 382.601562 L 545.875 383.761719 L 546.625 385.496094 L 548.132812 387.808594 L 548.882812 389.542969 L 549.636719 390.703125 L 550.386719 391.859375 L 551.140625 393.59375 L 551.894531 394.75 L 552.644531 395.90625 L 553.398438 397.644531 L 554.152344 398.800781 L 554.902344 399.957031 L 555.65625 401.113281 L 556.40625 402.269531 L 557.160156 404.007812 L 557.914062 405.164062 "/>
</g>
</g>
</svg>
