<?xml version="1.0" encoding="UTF-8"?>
<svg xmlns="http://www.w3.org/2000/svg" xmlns:xlink="http://www.w3.org/1999/xlink" width="432pt" height="432pt" viewBox="0 0 432 432" version="1.1">
<defs>
<clipPath id="clip1">
  <path d="M 0 0 L 109 0 L 109 109 L 0 109 Z M 0 0 "/>
</clipPath>
<clipPath id="clip2">
  <path d="M 21.488281 14.398438 L 94.601562 14.398438 L 94.601562 87.511719 L 21.488281 87.511719 Z M 21.488281 14.398438 "/>
</clipPath>
<clipPath id="clip3">
  <path d="M 108 0 L 217 0 L 217 109 L 108 109 Z M 108 0 "/>
</clipPath>
<clipPath id="clip4">
  <path d="M 129.488281 14.398438 L 202.601562 14.398438 L 202.601562 87.511719 L 129.488281 87.511719 Z M 129.488281 14.398438 "/>
</clipPath>
<clipPath id="clip5">
  <path d="M 216 0 L 325 0 L 325 109 L 216 109 Z M 216 0 "/>
</clipPath>
<clipPath id="clip6">
  <path d="M 237.488281 14.398438 L 310.601562 14.398438 L 310.601562 87.511719 L 237.488281 87.511719 Z M 237.488281 14.398438 "/>
</clipPath>
<clipPath id="clip7">
  <path d="M 324 0 L 433 0 L 433 109 L 324 109 Z M 324 0 "/>
</clipPath>
<clipPath id="clip8">
  <path d="M 345.488281 14.398438 L 418.601562 14.398438 L 418.601562 87.511719 L 345.488281 87.511719 Z M 345.488281 14.398438 "/>
</clipPath>
<clipPath id="clip9">
  <path d="M 0 108 L 109 108 L 109 217 L 0 217 Z M 0 108 "/>
</clipPath>
<clipPath id="clip10">
  <path d="M 21.488281 122.398438 L 94.601562 122.398438 L 94.601562 195.511719 L 21.488281 195.511719 Z M 21.488281 122.398438 "/>
</clipPath>
<clipPath id="clip11">
  <path d="M 108 108 L 217 108 L 217 217 L 108 217 Z M 108 108 "/>
</clipPath>
<clipPath id="clip12">
  <path d="M 129.488281 122.398438 L 202.601562 122.398438 L 202.601562 195.511719 L 129.488281 195.511719 Z M 129.488281 122.398438 "/>
</clipPath>
<clipPath id="clip13">
  <path d="M 216 108 L 325 108 L 325 217 L 216 217 Z M 216 108 "/>
</clipPath>
<clipPath id="clip14">
  <path d="M 237.488281 122.398438 L 310.601562 122.398438 L 310.601562 195.511719 L 237.488281 195.511719 Z M 237.488281 122.398438 "/>
</clipPath>
<clipPath id="clip15">
  <path d="M 324 108 L 433 108 L 433 217 L 324 217 Z M 324 108 "/>
</clipPath>
<clipPath id="clip16">
  <path d="M 345.488281 122.398438 L 418.601562 122.398438 L 418.601562 195.511719 L 345.488281 195.511719 Z M 345.488281 122.398438 "/>
</clipPath>
<clipPath id="clip17">
  <path d="M 0 216 L 109 216 L 109 325 L 0 325 Z M 0 216 "/>
</clipPath>
<clipPath id="clip18">
  <path d="M 21.488281 230.398438 L 94.601562 230.398438 L 94.601562 303.511719 L 21.488281 303.511719 Z M 21.488281 230.398438 "/>
</clipPath>
<clipPath id="clip19">
  <path d="M 108 216 L 217 216 L 217 325 L 108 325 Z M 108 216 "/>
</clipPath>
<clipPath id="clip20">
  <path d="M 129.488281 230.398438 L 202.601562 230.398438 L 202.601562 303.511719 L 129.488281 303.511719 Z M 129.488281 230.398438 "/>
</clipPath>
<clipPath id="clip21">
  <path d="M 216 216 L 325 216 L 325 325 L 216 325 Z M 216 216 "/>
</clipPath>
<clipPath id="clip22">
  <path d="M 237.488281 230.398438 L 310.601562 230.398438 L 310.601562 303.511719 L 237.488281 303.511719 Z M 237.488281 230.398438 "/>
</clipPath>
<clipPath id="clip23">
  <path d="M 324 216 L 433 216 L 433 325 L 324 325 Z M 324 216 "/>
</clipPath>
<clipPath id="clip24">
  <path d="M 345.488281 230.398438 L 418.601562 230.398438 L 418.601562 303.511719 L 345.488281 303.511719 Z M 345.488281 230.398438 "/>
</clipPath>
<clipPath id="clip25">
  <path d="M 0 324 L 109 324 L 109 433 L 0 433 Z M 0 324 "/>
</clipPath>
<clipPath id="clip26">
  <path d="M 21.488281 338.398438 L 94.601562 338.398438 L 94.601562 411.511719 L 21.488281 411.511719 Z M 21.488281 338.398438 "/>
</clipPath>
<clipPath id="clip27">
  <path d="M 108 324 L 217 324 L 217 433 L 108 433 Z M 108 324 "/>
</clipPath>
<clipPath id="clip28">
  <path d="M 129.488281 338.398438 L 202.601562 338.398438 L 202.601562 411.511719 L 129.488281 411.511719 Z M 129.488281 338.398438 "/>
</clipPath>
<clipPath id="clip29">
  <path d="M 216 324 L 325 324 L 325 433 L 216 433 Z M 216 324 "/>
</clipPath>
<clipPath id="clip30">
  <path d="M 237.488281 338.398438 L 310.601562 338.398438 L 310.601562 411.511719 L 237.488281 411.511719 Z M 237.488281 338.398438 "/>
</clipPath>
<clipPath id="clip31">
  <path d="M 324 324 L 433 324 L 433 433 L 324 433 Z M 324 324 "/>
</clipPath>
<clipPath id="clip32">
  <path d="M 345.488281 338.398438 L 418.601562 338.398438 L 418.601562 411.511719 L 345.488281 411.511719 Z M 345.488281 338.398438 "/>
</clipPath>
</defs>
<g id="surface6">
<rect x="0" y="0" width="432" height="432" style="fill:rgb(100%,100%,100%);fill-opacity:1;stroke:none;"/>
<g clip-path="url(#clip1)" clip-rule="nonzero">
<path style="fill-rule:nonzero;fill:rgb(100%,100%,100%);fill-opacity:1;stroke-width:1.062992;stroke-linecap:round;stroke-linejoin:round;stroke:rgb(100%,100%,100%);stroke-opacity:1;stroke-miterlimit:10;" d="M 0 108 L 108 108 L 108 0 L 0 0 Z M 0 108 "/>
</g>
<g clip-path="url(#clip2)" clip-rule="nonzero">
<path style=" stroke:none;fill-rule:nonzero;fill:rgb(100%,100%,100%);fill-opacity:1;" d="M 21.488281 86.511719 L 93.601562 86.511719 L 93.601562 14.398438 L 21.488281 14.398438 Z M 21.488281 86.511719 "/>
<path style="fill:none;stroke-width:1.062992;stroke-linecap:butt;stroke-linejoin:round;stroke:rgb(0%,0%,0%);stroke-opacity:1;stroke-miterlimit:1;" d="M 24.765625 83.234375 L 25.433594 78.757812 L 26.101562 74.8125 L 26.769531 71.265625 L 27.441406 68.015625 L 28.109375 64.996094 L 28.777344 62.210938 L 29.445312 59.625 L 30.117188 57.203125 L 30.785156 54.917969 L 31.453125 52.761719 L 32.121094 50.738281 L 32.792969 48.816406 L 33.460938 47.023438 L 34.128906 45.300781 L 34.796875 43.707031 L 35.46875 42.148438 L 36.136719 40.691406 L 36.804688 39.332031 L 37.476562 38.003906 L 38.144531 36.746094 L 38.8125 35.585938 L 39.480469 34.421875 L 40.152344 33.363281 L 40.820312 32.335938 L 41.488281 31.371094 L 42.15625 30.476562 L 42.828125 29.582031 L 43.496094 28.753906 L 44.164062 27.957031 L 44.832031 27.226562 L 45.503906 26.5 L 46.171875 25.835938 L 46.839844 25.207031 L 47.507812 24.609375 L 48.179688 24.042969 L 48.847656 23.480469 L 49.515625 22.984375 L 50.183594 22.519531 L 50.855469 22.054688 L 51.523438 21.625 L 52.191406 21.226562 L 52.859375 20.859375 L 53.53125 20.53125 L 54.199219 20.199219 L 54.867188 19.898438 L 55.535156 19.601562 L 56.207031 19.367188 L 56.875 19.105469 L 58.210938 18.707031 L 58.882812 18.539062 L 59.550781 18.375 L 60.886719 18.109375 L 61.558594 18.007812 L 62.226562 17.910156 L 63.5625 17.777344 L 64.234375 17.710938 L 64.902344 17.679688 L 66.910156 17.679688 L 67.578125 17.710938 L 68.246094 17.746094 L 68.914062 17.777344 L 69.585938 17.84375 L 70.253906 17.910156 L 70.921875 18.007812 L 71.589844 18.074219 L 72.261719 18.175781 L 74.265625 18.574219 L 74.9375 18.707031 L 75.605469 18.839844 L 76.273438 19.003906 L 76.941406 19.171875 L 77.613281 19.367188 L 78.28125 19.535156 L 79.617188 19.933594 L 80.289062 20.164062 L 80.957031 20.363281 L 81.625 20.597656 L 82.292969 20.828125 L 82.964844 21.058594 L 83.632812 21.324219 L 84.300781 21.558594 L 84.96875 21.824219 L 85.640625 22.089844 L 86.308594 22.351562 L 86.976562 22.617188 L 87.644531 22.917969 L 88.316406 23.214844 L 88.984375 23.480469 L 89.652344 23.78125 L 90.320312 24.109375 "/>
</g>
<g clip-path="url(#clip3)" clip-rule="nonzero">
<path style="fill-rule:nonzero;fill:rgb(100%,100%,100%);fill-opacity:1;stroke-width:1.062992;stroke-linecap:round;stroke-linejoin:round;stroke:rgb(100%,100%,100%);stroke-opacity:1;stroke-miterlimit:10;" d="M 108 108 L 216 108 L 216 0 L 108 0 Z M 108 108 "/>
</g>
<g clip-path="url(#clip4)" clip-rule="nonzero">
<path style=" stroke:none;fill-rule:nonzero;fill:rgb(100%,100%,100%);fill-opacity:1;" d="M 129.488281 86.511719 L 201.601562 86.511719 L 201.601562 14.398438 L 129.488281 14.398438 Z M 129.488281 86.511719 "/>
<path style="fill:none;stroke-width:1.062992;stroke-linecap:butt;stroke-linejoin:round;stroke:rgb(0%,0%,0%);stroke-opacity:1;stroke-miterlimit:1;" d="M 132.765625 83.234375 L 133.433594 75.792969 L 134.101562 69.542969 L 134.769531 64.183594 L 135.441406 59.460938 L 136.109375 55.269531 L 136.777344 51.511719 L 137.445312 48.105469 L 138.117188 45.035156 L 138.785156 42.265625 L 139.453125 39.726562 L 140.121094 37.4375 L 140.792969 35.332031 L 141.460938 33.402344 L 142.128906 31.648438 L 142.796875 30.046875 L 143.46875 28.574219 L 144.136719 27.253906 L 144.804688 26.035156 L 145.476562 24.941406 L 146.144531 23.953125 L 146.8125 23.039062 L 147.480469 22.222656 L 148.152344 21.488281 L 148.820312 20.851562 L 149.488281 20.269531 L 150.15625 19.761719 L 150.828125 19.304688 L 151.496094 18.921875 L 152.164062 18.59375 L 152.832031 18.3125 L 153.503906 18.109375 L 154.171875 17.933594 L 154.839844 17.804688 L 155.507812 17.730469 L 156.179688 17.679688 L 156.847656 17.679688 L 157.515625 17.703125 L 158.183594 17.78125 L 158.855469 17.882812 L 159.523438 18.007812 L 160.191406 18.160156 L 160.859375 18.363281 L 161.53125 18.59375 L 162.199219 18.820312 L 162.867188 19.101562 L 163.535156 19.378906 L 164.207031 19.683594 L 166.210938 20.75 L 166.882812 21.15625 L 168.21875 21.96875 L 168.886719 22.425781 L 169.558594 22.859375 L 170.226562 23.34375 L 170.894531 23.824219 L 171.5625 24.308594 L 172.234375 24.816406 L 172.902344 25.324219 L 173.570312 25.855469 L 174.238281 26.390625 L 174.910156 26.949219 L 176.914062 28.625 L 177.585938 29.210938 L 178.253906 29.792969 L 178.921875 30.402344 L 179.589844 30.988281 L 180.261719 31.597656 L 181.597656 32.816406 L 182.265625 33.453125 L 182.9375 34.0625 L 183.605469 34.695312 L 184.273438 35.332031 L 184.941406 35.964844 L 185.613281 36.625 L 186.28125 37.261719 L 186.949219 37.894531 L 187.617188 38.558594 L 188.289062 39.21875 L 188.957031 39.851562 L 190.292969 41.171875 L 190.964844 41.832031 L 192.300781 43.152344 L 192.96875 43.816406 L 193.640625 44.476562 L 195.644531 46.457031 L 196.316406 47.117188 L 196.984375 47.800781 L 197.652344 48.460938 L 198.320312 49.125 "/>
</g>
<g clip-path="url(#clip5)" clip-rule="nonzero">
<path style="fill-rule:nonzero;fill:rgb(100%,100%,100%);fill-opacity:1;stroke-width:1.062992;stroke-linecap:round;stroke-linejoin:round;stroke:rgb(100%,100%,100%);stroke-opacity:1;stroke-miterlimit:10;" d="M 216 108 L 324 108 L 324 0 L 216 0 Z M 216 108 "/>
</g>
<g clip-path="url(#clip6)" clip-rule="nonzero">
<path style=" stroke:none;fill-rule:nonzero;fill:rgb(100%,100%,100%);fill-opacity:1;" d="M 237.488281 86.511719 L 309.601562 86.511719 L 309.601562 14.398438 L 237.488281 14.398438 Z M 237.488281 86.511719 "/>
<path style="fill:none;stroke-width:1.062992;stroke-linecap:butt;stroke-linejoin:round;stroke:rgb(0%,0%,0%);stroke-opacity:1;stroke-miterlimit:1;" d="M 240.765625 83.234375 L 241.433594 77.054688 L 242.101562 71.75 L 242.769531 67.078125 L 243.441406 62.917969 L 244.109375 59.191406 L 244.777344 55.785156 L 245.445312 52.695312 L 246.117188 49.871094 L 246.785156 47.292969 L 247.453125 44.882812 L 248.121094 42.667969 L 248.792969 40.625 L 249.460938 38.75 L 250.128906 37 L 250.796875 35.371094 L 251.46875 33.859375 L 252.136719 32.449219 L 252.804688 31.136719 L 253.476562 29.917969 L 254.144531 28.800781 L 254.8125 27.753906 L 255.480469 26.777344 L 256.152344 25.878906 L 256.820312 25.050781 L 257.488281 24.273438 L 258.15625 23.542969 L 258.828125 22.886719 L 259.496094 22.277344 L 260.164062 21.71875 L 260.832031 21.207031 L 261.503906 20.742188 L 262.171875 20.304688 L 262.839844 19.917969 L 263.507812 19.574219 L 264.179688 19.257812 L 264.847656 18.96875 L 265.515625 18.722656 L 266.183594 18.503906 L 266.855469 18.3125 L 267.523438 18.140625 L 268.191406 17.996094 L 268.859375 17.898438 L 269.53125 17.800781 L 270.199219 17.75 L 270.867188 17.703125 L 271.535156 17.679688 L 272.875 17.679688 L 274.210938 17.773438 L 274.882812 17.847656 L 275.550781 17.921875 L 276.21875 18.019531 L 276.886719 18.140625 L 277.558594 18.261719 L 278.226562 18.40625 L 278.894531 18.578125 L 279.5625 18.722656 L 280.234375 18.917969 L 280.902344 19.089844 L 281.570312 19.308594 L 282.238281 19.503906 L 282.910156 19.722656 L 283.578125 19.941406 L 284.914062 20.425781 L 285.585938 20.695312 L 286.253906 20.9375 L 286.921875 21.207031 L 287.589844 21.5 L 288.261719 21.765625 L 289.597656 22.351562 L 290.265625 22.667969 L 290.9375 22.957031 L 292.941406 23.90625 L 293.613281 24.222656 L 294.28125 24.566406 L 294.949219 24.90625 L 295.617188 25.222656 L 296.289062 25.5625 L 296.957031 25.925781 L 297.625 26.269531 L 298.292969 26.609375 L 298.964844 26.972656 L 299.632812 27.3125 L 300.300781 27.679688 L 300.96875 28.042969 L 301.640625 28.410156 L 302.308594 28.773438 L 302.976562 29.140625 L 303.644531 29.503906 L 304.316406 29.871094 L 304.984375 30.257812 L 305.652344 30.625 L 306.320312 31.011719 "/>
</g>
<g clip-path="url(#clip7)" clip-rule="nonzero">
<path style="fill-rule:nonzero;fill:rgb(100%,100%,100%);fill-opacity:1;stroke-width:1.062992;stroke-linecap:round;stroke-linejoin:round;stroke:rgb(100%,100%,100%);stroke-opacity:1;stroke-miterlimit:10;" d="M 324 108 L 432 108 L 432 0 L 324 0 Z M 324 108 "/>
</g>
<g clip-path="url(#clip8)" clip-rule="nonzero">
<path style=" stroke:none;fill-rule:nonzero;fill:rgb(100%,100%,100%);fill-opacity:1;" d="M 345.488281 86.511719 L 417.601562 86.511719 L 417.601562 14.398438 L 345.488281 14.398438 Z M 345.488281 86.511719 "/>
<path style="fill:none;stroke-width:1.062992;stroke-linecap:butt;stroke-linejoin:round;stroke:rgb(0%,0%,0%);stroke-opacity:1;stroke-miterlimit:1;" d="M 348.765625 20.253906 L 349.433594 19.511719 L 350.101562 18.949219 L 350.769531 18.523438 L 351.441406 18.207031 L 352.109375 17.960938 L 352.777344 17.820312 L 353.445312 17.714844 L 354.117188 17.679688 L 354.785156 17.679688 L 355.453125 17.75 L 356.121094 17.890625 L 356.792969 18.03125 L 358.128906 18.453125 L 358.796875 18.734375 L 359.46875 19.019531 L 360.804688 19.722656 L 361.476562 20.109375 L 362.144531 20.5 L 363.480469 21.414062 L 364.152344 21.875 L 364.820312 22.402344 L 365.488281 22.898438 L 366.15625 23.460938 L 366.828125 24.027344 L 367.496094 24.589844 L 368.164062 25.1875 L 368.832031 25.789062 L 369.503906 26.386719 L 370.171875 27.023438 L 370.839844 27.691406 L 371.507812 28.363281 L 372.847656 29.703125 L 373.515625 30.410156 L 374.183594 31.113281 L 374.855469 31.855469 L 375.523438 32.558594 L 376.191406 33.300781 L 376.859375 34.039062 L 377.53125 34.816406 L 378.199219 35.59375 L 378.867188 36.367188 L 379.535156 37.144531 L 380.207031 37.921875 L 380.875 38.730469 L 381.542969 39.507812 L 382.210938 40.316406 L 382.882812 41.164062 L 383.550781 41.976562 L 384.21875 42.785156 L 384.886719 43.632812 L 385.558594 44.480469 L 386.226562 45.324219 L 387.5625 47.019531 L 388.234375 47.863281 L 388.902344 48.746094 L 389.570312 49.59375 L 390.238281 50.472656 L 390.910156 51.355469 L 392.246094 53.121094 L 392.914062 54 L 393.585938 54.882812 L 394.253906 55.765625 L 394.921875 56.679688 L 395.589844 57.5625 L 396.261719 58.445312 L 396.929688 59.359375 L 397.597656 60.277344 L 398.265625 61.160156 L 398.9375 62.078125 L 399.605469 62.992188 L 400.273438 63.910156 L 400.941406 64.792969 L 401.613281 65.707031 L 403.617188 68.460938 L 404.289062 69.375 L 404.957031 70.292969 L 405.625 71.246094 L 406.292969 72.164062 L 406.964844 73.078125 L 408.300781 74.914062 L 408.96875 75.828125 L 409.640625 76.78125 L 410.976562 78.617188 L 411.644531 79.53125 L 412.316406 80.484375 L 413.652344 82.320312 L 414.320312 83.234375 "/>
</g>
<g clip-path="url(#clip9)" clip-rule="nonzero">
<path style="fill-rule:nonzero;fill:rgb(100%,100%,100%);fill-opacity:1;stroke-width:1.062992;stroke-linecap:round;stroke-linejoin:round;stroke:rgb(100%,100%,100%);stroke-opacity:1;stroke-miterlimit:10;" d="M 0 216 L 108 216 L 108 108 L 0 108 Z M 0 216 "/>
</g>
<g clip-path="url(#clip10)" clip-rule="nonzero">
<path style=" stroke:none;fill-rule:nonzero;fill:rgb(100%,100%,100%);fill-opacity:1;" d="M 21.488281 194.511719 L 93.601562 194.511719 L 93.601562 122.398438 L 21.488281 122.398438 Z M 21.488281 194.511719 "/>
<path style="fill:none;stroke-width:1.062992;stroke-linecap:butt;stroke-linejoin:round;stroke:rgb(0%,0%,0%);stroke-opacity:1;stroke-miterlimit:1;" d="M 24.765625 191.234375 L 25.433594 180.417969 L 26.101562 172.917969 L 26.769531 167.160156 L 27.441406 162.5 L 28.109375 158.601562 L 28.777344 155.269531 L 29.445312 152.386719 L 30.117188 149.84375 L 30.785156 147.589844 L 31.453125 145.578125 L 32.121094 143.773438 L 32.792969 142.140625 L 33.460938 140.65625 L 34.128906 139.3125 L 34.796875 138.078125 L 35.46875 136.953125 L 36.136719 135.921875 L 36.804688 134.980469 L 37.476562 134.105469 L 38.144531 133.308594 L 38.8125 132.574219 L 39.480469 131.894531 L 40.152344 131.273438 L 40.820312 130.699219 L 41.488281 130.171875 L 42.15625 129.683594 L 42.828125 129.234375 L 43.496094 128.828125 L 44.164062 128.449219 L 44.832031 128.109375 L 45.503906 127.796875 L 46.171875 127.507812 L 46.839844 127.25 L 47.507812 127.015625 L 48.179688 126.804688 L 48.847656 126.613281 L 49.515625 126.445312 L 50.183594 126.300781 L 50.855469 126.167969 L 51.523438 126.054688 L 52.191406 125.953125 L 52.859375 125.878906 L 53.53125 125.808594 L 54.199219 125.757812 L 54.867188 125.722656 L 55.535156 125.691406 L 56.207031 125.679688 L 56.875 125.679688 L 57.542969 125.683594 L 58.210938 125.703125 L 58.882812 125.734375 L 59.550781 125.773438 L 60.21875 125.816406 L 60.886719 125.871094 L 61.558594 125.9375 L 62.226562 126.003906 L 63.5625 126.167969 L 64.234375 126.261719 L 64.902344 126.355469 L 65.570312 126.464844 L 66.238281 126.570312 L 66.910156 126.683594 L 67.578125 126.808594 L 68.246094 126.929688 L 68.914062 127.0625 L 69.585938 127.191406 L 70.253906 127.332031 L 71.589844 127.621094 L 72.261719 127.769531 L 72.929688 127.921875 L 73.597656 128.078125 L 74.265625 128.242188 L 74.9375 128.398438 L 75.605469 128.570312 L 76.273438 128.734375 L 76.941406 128.902344 L 77.613281 129.078125 L 78.28125 129.246094 L 79.617188 129.605469 L 80.289062 129.78125 L 81.625 130.148438 L 82.292969 130.335938 L 82.964844 130.519531 L 84.96875 131.082031 L 85.640625 131.277344 L 86.976562 131.660156 L 87.644531 131.855469 L 88.316406 132.046875 L 88.984375 132.238281 L 90.320312 132.628906 "/>
</g>
<g clip-path="url(#clip11)" clip-rule="nonzero">
<path style="fill-rule:nonzero;fill:rgb(100%,100%,100%);fill-opacity:1;stroke-width:1.062992;stroke-linecap:round;stroke-linejoin:round;stroke:rgb(100%,100%,100%);stroke-opacity:1;stroke-miterlimit:10;" d="M 108 216 L 216 216 L 216 108 L 108 108 Z M 108 216 "/>
</g>
<g clip-path="url(#clip12)" clip-rule="nonzero">
<path style=" stroke:none;fill-rule:nonzero;fill:rgb(100%,100%,100%);fill-opacity:1;" d="M 129.488281 194.511719 L 201.601562 194.511719 L 201.601562 122.398438 L 129.488281 122.398438 Z M 129.488281 194.511719 "/>
<path style="fill:none;stroke-width:1.062992;stroke-linecap:butt;stroke-linejoin:round;stroke:rgb(0%,0%,0%);stroke-opacity:1;stroke-miterlimit:1;" d="M 132.765625 189.53125 L 133.433594 184.300781 L 134.101562 179.558594 L 134.769531 175.179688 L 135.441406 171.046875 L 136.109375 167.273438 L 136.777344 163.746094 L 137.445312 160.464844 L 138.117188 157.300781 L 138.785156 154.503906 L 139.453125 151.828125 L 140.121094 149.394531 L 140.792969 147.085938 L 141.460938 144.894531 L 142.128906 142.949219 L 142.796875 141.125 L 143.46875 139.300781 L 144.136719 137.71875 L 144.804688 136.257812 L 145.476562 134.921875 L 146.144531 133.707031 L 146.8125 132.609375 L 147.480469 131.515625 L 148.152344 130.542969 L 148.820312 129.8125 L 149.488281 128.960938 L 150.15625 128.355469 L 150.828125 127.746094 L 151.496094 127.257812 L 152.164062 126.773438 L 152.832031 126.40625 L 153.503906 126.164062 L 154.171875 125.921875 L 155.507812 125.679688 L 156.847656 125.679688 L 158.183594 125.921875 L 158.855469 126.042969 L 159.523438 126.285156 L 160.191406 126.652344 L 160.859375 126.894531 L 161.53125 127.378906 L 162.199219 127.746094 L 162.867188 128.230469 L 163.535156 128.71875 L 164.207031 129.328125 L 164.875 129.933594 L 166.210938 131.152344 L 166.882812 131.882812 L 167.550781 132.609375 L 168.21875 133.460938 L 168.886719 134.191406 L 169.558594 135.042969 L 170.226562 135.894531 L 170.894531 136.867188 L 171.5625 137.71875 L 172.234375 138.691406 L 172.902344 139.664062 L 173.570312 140.761719 L 174.238281 141.734375 L 174.910156 142.828125 L 176.246094 145.015625 L 176.914062 146.113281 L 177.585938 147.328125 L 178.253906 148.421875 L 178.921875 149.636719 L 179.589844 150.855469 L 180.261719 152.070312 L 180.929688 153.410156 L 181.597656 154.625 L 182.265625 155.964844 L 182.9375 157.300781 L 183.605469 158.640625 L 184.273438 159.976562 L 184.941406 161.316406 L 185.613281 162.652344 L 186.28125 164.113281 L 186.949219 165.449219 L 187.617188 166.910156 L 188.289062 168.371094 L 188.957031 169.707031 L 189.625 171.167969 L 190.292969 172.625 L 190.964844 174.207031 L 191.632812 175.667969 L 192.300781 177.125 L 192.96875 178.707031 L 193.640625 180.167969 L 194.308594 181.75 L 194.976562 183.328125 L 195.644531 184.910156 L 196.316406 186.492188 L 196.984375 187.953125 L 197.652344 189.65625 L 198.320312 191.234375 "/>
</g>
<g clip-path="url(#clip13)" clip-rule="nonzero">
<path style="fill-rule:nonzero;fill:rgb(100%,100%,100%);fill-opacity:1;stroke-width:1.062992;stroke-linecap:round;stroke-linejoin:round;stroke:rgb(100%,100%,100%);stroke-opacity:1;stroke-miterlimit:10;" d="M 216 216 L 324 216 L 324 108 L 216 108 Z M 216 216 "/>
</g>
<g clip-path="url(#clip14)" clip-rule="nonzero">
<path style=" stroke:none;fill-rule:nonzero;fill:rgb(100%,100%,100%);fill-opacity:1;" d="M 237.488281 194.511719 L 309.601562 194.511719 L 309.601562 122.398438 L 237.488281 122.398438 Z M 237.488281 194.511719 "/>
<path style="fill:none;stroke-width:1.062992;stroke-linecap:butt;stroke-linejoin:round;stroke:rgb(0%,0%,0%);stroke-opacity:1;stroke-miterlimit:1;" d="M 240.765625 191.234375 L 241.433594 184.402344 L 242.101562 178.460938 L 242.769531 173.269531 L 243.441406 168.605469 L 244.109375 164.433594 L 244.777344 160.691406 L 245.445312 157.273438 L 246.117188 154.152344 L 246.785156 151.328125 L 247.453125 148.734375 L 248.121094 146.371094 L 248.792969 144.203125 L 249.460938 142.230469 L 250.128906 140.390625 L 250.796875 138.71875 L 251.46875 137.207031 L 252.136719 135.828125 L 252.804688 134.546875 L 253.476562 133.394531 L 254.144531 132.34375 L 254.8125 131.394531 L 255.480469 130.507812 L 256.152344 129.75 L 256.820312 129.0625 L 257.488281 128.4375 L 258.15625 127.878906 L 258.828125 127.417969 L 259.496094 126.992188 L 260.164062 126.664062 L 260.832031 126.367188 L 261.503906 126.136719 L 262.171875 125.941406 L 262.839844 125.808594 L 263.507812 125.710938 L 264.179688 125.679688 L 264.847656 125.679688 L 265.515625 125.710938 L 266.183594 125.777344 L 266.855469 125.90625 L 267.523438 126.039062 L 268.191406 126.234375 L 268.859375 126.433594 L 269.53125 126.664062 L 270.199219 126.925781 L 270.867188 127.222656 L 271.535156 127.550781 L 272.207031 127.910156 L 272.875 128.273438 L 274.210938 129.0625 L 274.882812 129.488281 L 275.550781 129.949219 L 276.21875 130.40625 L 276.886719 130.898438 L 277.558594 131.394531 L 278.226562 131.917969 L 278.894531 132.445312 L 279.5625 133.003906 L 280.234375 133.5625 L 280.902344 134.117188 L 281.570312 134.710938 L 282.238281 135.300781 L 282.910156 135.925781 L 283.578125 136.550781 L 284.246094 137.171875 L 284.914062 137.796875 L 285.585938 138.453125 L 286.253906 139.109375 L 286.921875 139.769531 L 287.589844 140.425781 L 288.261719 141.113281 L 289.597656 142.496094 L 290.265625 143.183594 L 290.9375 143.875 L 291.605469 144.597656 L 292.273438 145.285156 L 292.941406 146.007812 L 293.613281 146.730469 L 295.617188 148.898438 L 296.289062 149.65625 L 296.957031 150.375 L 297.625 151.097656 L 298.292969 151.855469 L 298.964844 152.609375 L 299.632812 153.332031 L 300.300781 154.089844 L 300.96875 154.84375 L 301.640625 155.597656 L 302.308594 156.320312 L 302.976562 157.078125 L 303.644531 157.832031 L 304.316406 158.589844 L 305.652344 160.097656 L 306.320312 160.855469 "/>
</g>
<g clip-path="url(#clip15)" clip-rule="nonzero">
<path style="fill-rule:nonzero;fill:rgb(100%,100%,100%);fill-opacity:1;stroke-width:1.062992;stroke-linecap:round;stroke-linejoin:round;stroke:rgb(100%,100%,100%);stroke-opacity:1;stroke-miterlimit:10;" d="M 324 216 L 432 216 L 432 108 L 324 108 Z M 324 216 "/>
</g>
<g clip-path="url(#clip16)" clip-rule="nonzero">
<path style=" stroke:none;fill-rule:nonzero;fill:rgb(100%,100%,100%);fill-opacity:1;" d="M 345.488281 194.511719 L 417.601562 194.511719 L 417.601562 122.398438 L 345.488281 122.398438 Z M 345.488281 194.511719 "/>
<path style="fill:none;stroke-width:1.062992;stroke-linecap:butt;stroke-linejoin:round;stroke:rgb(0%,0%,0%);stroke-opacity:1;stroke-miterlimit:1;" d="M 348.765625 150.023438 L 349.433594 147.359375 L 350.101562 144.988281 L 350.769531 142.84375 L 351.441406 140.847656 L 352.109375 139.070312 L 352.777344 137.441406 L 353.445312 135.960938 L 354.117188 134.632812 L 354.785156 133.445312 L 355.453125 132.335938 L 356.121094 131.300781 L 356.792969 130.414062 L 357.460938 129.597656 L 358.128906 128.859375 L 358.796875 128.269531 L 359.46875 127.675781 L 360.136719 127.230469 L 360.804688 126.789062 L 361.476562 126.492188 L 362.144531 126.195312 L 362.8125 125.972656 L 363.480469 125.824219 L 364.152344 125.679688 L 365.488281 125.679688 L 366.15625 125.75 L 366.828125 125.824219 L 368.164062 126.121094 L 368.832031 126.34375 L 369.503906 126.640625 L 370.171875 126.9375 L 370.839844 127.304688 L 371.507812 127.675781 L 372.179688 128.121094 L 372.847656 128.5625 L 373.515625 129.007812 L 374.183594 129.527344 L 374.855469 130.042969 L 375.523438 130.636719 L 376.191406 131.226562 L 376.859375 131.894531 L 377.53125 132.484375 L 378.199219 133.152344 L 378.867188 133.890625 L 379.535156 134.632812 L 380.207031 135.371094 L 380.875 136.109375 L 381.542969 136.925781 L 382.210938 137.738281 L 382.882812 138.550781 L 383.550781 139.367188 L 384.886719 141.140625 L 385.558594 142.03125 L 386.226562 142.917969 L 386.894531 143.878906 L 387.5625 144.84375 L 388.234375 145.804688 L 389.570312 147.726562 L 390.238281 148.761719 L 390.910156 149.800781 L 392.914062 152.90625 L 393.585938 154.015625 L 394.253906 155.054688 L 395.589844 157.273438 L 396.261719 158.382812 L 397.597656 160.601562 L 398.265625 161.785156 L 398.9375 162.894531 L 399.605469 164.082031 L 400.941406 166.449219 L 401.613281 167.632812 L 403.617188 171.183594 L 404.289062 172.367188 L 404.957031 173.625 L 405.625 174.808594 L 406.292969 176.066406 L 406.964844 177.324219 L 407.632812 178.582031 L 408.300781 179.765625 L 408.96875 181.023438 L 409.640625 182.28125 L 410.308594 183.539062 L 410.976562 184.871094 L 411.644531 186.128906 L 412.316406 187.386719 L 412.984375 188.644531 L 413.652344 189.976562 L 414.320312 191.234375 "/>
</g>
<g clip-path="url(#clip17)" clip-rule="nonzero">
<path style="fill-rule:nonzero;fill:rgb(100%,100%,100%);fill-opacity:1;stroke-width:1.062992;stroke-linecap:round;stroke-linejoin:round;stroke:rgb(100%,100%,100%);stroke-opacity:1;stroke-miterlimit:10;" d="M 0 324 L 108 324 L 108 216 L 0 216 Z M 0 324 "/>
</g>
<g clip-path="url(#clip18)" clip-rule="nonzero">
<path style=" stroke:none;fill-rule:nonzero;fill:rgb(100%,100%,100%);fill-opacity:1;" d="M 21.488281 302.511719 L 93.601562 302.511719 L 93.601562 230.398438 L 21.488281 230.398438 Z M 21.488281 302.511719 "/>
<path style="fill:none;stroke-width:1.062992;stroke-linecap:butt;stroke-linejoin:round;stroke:rgb(0%,0%,0%);stroke-opacity:1;stroke-miterlimit:1;" d="M 24.765625 299.234375 L 25.433594 292.046875 L 26.101562 286.015625 L 26.769531 280.847656 L 27.441406 276.300781 L 28.109375 272.289062 L 28.777344 268.671875 L 29.445312 265.425781 L 30.117188 262.480469 L 30.785156 259.8125 L 31.453125 257.378906 L 32.121094 255.152344 L 32.792969 253.109375 L 33.460938 251.234375 L 34.128906 249.515625 L 34.796875 247.917969 L 35.46875 246.480469 L 36.136719 245.132812 L 36.804688 243.90625 L 37.476562 242.792969 L 38.144531 241.746094 L 38.8125 240.796875 L 39.480469 239.9375 L 40.152344 239.152344 L 40.820312 238.433594 L 41.488281 237.757812 L 42.15625 237.179688 L 42.828125 236.644531 L 43.496094 236.160156 L 44.164062 235.71875 L 44.832031 235.347656 L 45.503906 235 L 46.171875 234.722656 L 46.839844 234.464844 L 47.507812 234.257812 L 48.179688 234.070312 L 48.847656 233.933594 L 49.515625 233.816406 L 50.183594 233.746094 L 50.855469 233.699219 L 51.523438 233.679688 L 52.191406 233.679688 L 52.859375 233.699219 L 53.53125 233.769531 L 54.199219 233.839844 L 54.867188 233.957031 L 55.535156 234.070312 L 56.207031 234.210938 L 56.875 234.375 L 57.542969 234.558594 L 58.210938 234.746094 L 58.882812 234.976562 L 59.550781 235.183594 L 60.21875 235.441406 L 60.886719 235.695312 L 61.558594 235.972656 L 62.226562 236.25 L 62.894531 236.554688 L 63.5625 236.855469 L 64.234375 237.179688 L 64.902344 237.503906 L 66.238281 238.199219 L 66.910156 238.546875 L 68.246094 239.289062 L 68.914062 239.683594 L 69.585938 240.078125 L 70.921875 240.867188 L 71.589844 241.285156 L 72.261719 241.703125 L 72.929688 242.117188 L 73.597656 242.535156 L 74.265625 242.976562 L 74.9375 243.417969 L 75.605469 243.859375 L 76.273438 244.296875 L 76.941406 244.761719 L 77.613281 245.203125 L 78.28125 245.667969 L 78.949219 246.128906 L 79.617188 246.59375 L 80.289062 247.058594 L 80.957031 247.523438 L 81.625 248.007812 L 82.292969 248.472656 L 82.964844 248.960938 L 83.632812 249.421875 L 84.96875 250.398438 L 85.640625 250.882812 L 86.308594 251.371094 L 86.976562 251.835938 L 87.644531 252.324219 L 88.316406 252.832031 L 89.652344 253.808594 L 90.320312 254.292969 "/>
</g>
<g clip-path="url(#clip19)" clip-rule="nonzero">
<path style="fill-rule:nonzero;fill:rgb(100%,100%,100%);fill-opacity:1;stroke-width:1.062992;stroke-linecap:round;stroke-linejoin:round;stroke:rgb(100%,100%,100%);stroke-opacity:1;stroke-miterlimit:10;" d="M 108 324 L 216 324 L 216 216 L 108 216 Z M 108 324 "/>
</g>
<g clip-path="url(#clip20)" clip-rule="nonzero">
<path style=" stroke:none;fill-rule:nonzero;fill:rgb(100%,100%,100%);fill-opacity:1;" d="M 129.488281 302.511719 L 201.601562 302.511719 L 201.601562 230.398438 L 129.488281 230.398438 Z M 129.488281 302.511719 "/>
<path style="fill:none;stroke-width:1.062992;stroke-linecap:butt;stroke-linejoin:round;stroke:rgb(0%,0%,0%);stroke-opacity:1;stroke-miterlimit:1;" d="M 132.765625 299.234375 L 133.433594 294.125 L 134.101562 289.722656 L 134.769531 285.851562 L 135.441406 282.375 L 136.109375 279.210938 L 136.777344 276.3125 L 137.445312 273.660156 L 138.117188 271.179688 L 138.785156 268.902344 L 139.453125 266.777344 L 140.121094 264.785156 L 140.792969 262.90625 L 141.460938 261.15625 L 142.128906 259.5 L 142.796875 257.949219 L 143.46875 256.488281 L 144.136719 255.09375 L 144.804688 253.789062 L 145.476562 252.574219 L 146.144531 251.398438 L 146.8125 250.292969 L 147.480469 249.230469 L 148.152344 248.238281 L 148.820312 247.308594 L 149.488281 246.421875 L 150.15625 245.558594 L 150.828125 244.761719 L 151.496094 244.011719 L 152.164062 243.28125 L 152.832031 242.59375 L 153.503906 241.953125 L 154.171875 241.332031 L 154.839844 240.757812 L 155.507812 240.203125 L 156.179688 239.695312 L 156.847656 239.210938 L 157.515625 238.746094 L 158.183594 238.300781 L 158.855469 237.902344 L 159.523438 237.503906 L 160.191406 237.152344 L 160.859375 236.820312 L 161.53125 236.488281 L 162.199219 236.199219 L 162.867188 235.914062 L 163.535156 235.648438 L 164.207031 235.425781 L 164.875 235.203125 L 165.542969 234.984375 L 166.210938 234.804688 L 166.882812 234.628906 L 167.550781 234.472656 L 168.886719 234.207031 L 169.558594 234.097656 L 170.226562 234.007812 L 170.894531 233.921875 L 171.5625 233.855469 L 172.234375 233.789062 L 172.902344 233.746094 L 173.570312 233.699219 L 174.238281 233.679688 L 176.246094 233.679688 L 176.914062 233.699219 L 177.585938 233.722656 L 178.253906 233.765625 L 178.921875 233.8125 L 179.589844 233.878906 L 180.261719 233.945312 L 180.929688 234.007812 L 182.265625 234.1875 L 182.9375 234.273438 L 183.605469 234.386719 L 184.941406 234.605469 L 185.613281 234.738281 L 186.949219 235.003906 L 187.617188 235.160156 L 188.289062 235.292969 L 188.957031 235.46875 L 189.625 235.625 L 190.292969 235.800781 L 190.964844 235.957031 L 191.632812 236.15625 L 192.300781 236.332031 L 192.96875 236.511719 L 193.640625 236.710938 L 194.308594 236.90625 L 194.976562 237.128906 L 195.644531 237.328125 L 196.316406 237.550781 L 196.984375 237.75 L 197.652344 237.96875 L 198.320312 238.214844 "/>
</g>
<g clip-path="url(#clip21)" clip-rule="nonzero">
<path style="fill-rule:nonzero;fill:rgb(100%,100%,100%);fill-opacity:1;stroke-width:1.062992;stroke-linecap:round;stroke-linejoin:round;stroke:rgb(100%,100%,100%);stroke-opacity:1;stroke-miterlimit:10;" d="M 216 324 L 324 324 L 324 216 L 216 216 Z M 216 324 "/>
</g>
<g clip-path="url(#clip22)" clip-rule="nonzero">
<path style=" stroke:none;fill-rule:nonzero;fill:rgb(100%,100%,100%);fill-opacity:1;" d="M 237.488281 302.511719 L 309.601562 302.511719 L 309.601562 230.398438 L 237.488281 230.398438 Z M 237.488281 302.511719 "/>
<path style="fill:none;stroke-width:1.062992;stroke-linecap:butt;stroke-linejoin:round;stroke:rgb(0%,0%,0%);stroke-opacity:1;stroke-miterlimit:1;" d="M 240.765625 243.292969 L 241.433594 242.074219 L 242.101562 241.003906 L 242.769531 240.011719 L 243.441406 239.097656 L 244.109375 238.257812 L 245.445312 236.882812 L 246.117188 236.273438 L 246.785156 235.738281 L 247.453125 235.28125 L 248.121094 234.898438 L 248.792969 234.59375 L 249.460938 234.289062 L 250.128906 234.058594 L 250.796875 233.90625 L 251.46875 233.753906 L 252.136719 233.679688 L 253.476562 233.679688 L 254.144531 233.753906 L 254.8125 233.832031 L 255.480469 233.984375 L 256.152344 234.136719 L 256.820312 234.363281 L 257.488281 234.59375 L 258.15625 234.898438 L 258.828125 235.203125 L 259.496094 235.507812 L 260.832031 236.273438 L 261.503906 236.730469 L 262.839844 237.644531 L 263.507812 238.179688 L 264.179688 238.714844 L 265.515625 239.785156 L 266.183594 240.394531 L 266.855469 241.003906 L 268.191406 242.378906 L 268.859375 242.988281 L 269.53125 243.75 L 270.199219 244.4375 L 270.867188 245.203125 L 271.535156 245.964844 L 272.207031 246.726562 L 272.875 247.492188 L 273.542969 248.253906 L 274.210938 249.09375 L 274.882812 249.933594 L 276.21875 251.613281 L 276.886719 252.527344 L 277.558594 253.367188 L 278.226562 254.285156 L 278.894531 255.199219 L 279.5625 256.117188 L 280.234375 257.03125 L 280.902344 258.023438 L 281.570312 258.9375 L 282.238281 259.929688 L 282.910156 260.921875 L 283.578125 261.839844 L 284.246094 262.832031 L 284.914062 263.898438 L 285.585938 264.890625 L 286.253906 265.882812 L 286.921875 266.953125 L 287.589844 267.945312 L 288.261719 269.011719 L 288.929688 270.082031 L 289.597656 271.074219 L 290.265625 272.140625 L 290.9375 273.210938 L 291.605469 274.28125 L 292.273438 275.425781 L 292.941406 276.492188 L 293.613281 277.5625 L 294.28125 278.707031 L 294.949219 279.773438 L 295.617188 280.917969 L 296.289062 281.988281 L 297.625 284.277344 L 298.292969 285.34375 L 298.964844 286.492188 L 300.96875 289.925781 L 301.640625 291.070312 L 303.644531 294.503906 L 304.316406 295.726562 L 305.652344 298.015625 L 306.320312 299.234375 "/>
</g>
<g clip-path="url(#clip23)" clip-rule="nonzero">
<path style="fill-rule:nonzero;fill:rgb(100%,100%,100%);fill-opacity:1;stroke-width:1.062992;stroke-linecap:round;stroke-linejoin:round;stroke:rgb(100%,100%,100%);stroke-opacity:1;stroke-miterlimit:10;" d="M 324 324 L 432 324 L 432 216 L 324 216 Z M 324 324 "/>
</g>
<g clip-path="url(#clip24)" clip-rule="nonzero">
<path style=" stroke:none;fill-rule:nonzero;fill:rgb(100%,100%,100%);fill-opacity:1;" d="M 345.488281 302.511719 L 417.601562 302.511719 L 417.601562 230.398438 L 345.488281 230.398438 Z M 345.488281 302.511719 "/>
<path style="fill:none;stroke-width:1.062992;stroke-linecap:butt;stroke-linejoin:round;stroke:rgb(0%,0%,0%);stroke-opacity:1;stroke-miterlimit:1;" d="M 348.765625 278.480469 L 349.433594 273.855469 L 350.101562 269.71875 L 350.769531 266.070312 L 351.441406 262.707031 L 352.109375 259.691406 L 352.777344 256.957031 L 353.445312 254.433594 L 354.117188 252.117188 L 354.785156 250.085938 L 355.453125 248.121094 L 356.121094 246.367188 L 356.792969 244.757812 L 357.460938 243.355469 L 358.128906 242.023438 L 358.796875 240.828125 L 359.46875 239.707031 L 360.136719 238.726562 L 360.804688 237.886719 L 361.476562 237.113281 L 362.144531 236.414062 L 362.8125 235.78125 L 363.480469 235.289062 L 364.152344 234.871094 L 364.820312 234.449219 L 365.488281 234.167969 L 366.15625 233.957031 L 366.828125 233.816406 L 367.496094 233.679688 L 368.832031 233.679688 L 369.503906 233.746094 L 370.839844 234.027344 L 371.507812 234.238281 L 372.179688 234.519531 L 372.847656 234.871094 L 373.515625 235.21875 L 374.183594 235.570312 L 374.855469 235.992188 L 375.523438 236.484375 L 376.191406 236.972656 L 376.859375 237.535156 L 377.53125 238.09375 L 378.199219 238.726562 L 378.867188 239.355469 L 379.535156 239.988281 L 380.207031 240.6875 L 380.875 241.460938 L 381.542969 242.230469 L 382.210938 243.003906 L 382.882812 243.773438 L 383.550781 244.617188 L 384.21875 245.457031 L 384.886719 246.367188 L 385.558594 247.28125 L 386.894531 249.101562 L 387.5625 250.085938 L 388.234375 251.066406 L 388.902344 252.046875 L 389.570312 253.101562 L 390.238281 254.082031 L 390.910156 255.132812 L 391.578125 256.253906 L 392.246094 257.308594 L 392.914062 258.429688 L 393.585938 259.550781 L 394.921875 261.792969 L 395.589844 262.984375 L 396.261719 264.109375 L 398.265625 267.683594 L 398.9375 268.945312 L 399.605469 270.136719 L 400.941406 272.660156 L 401.613281 273.925781 L 403.617188 277.710938 L 404.289062 279.042969 L 404.957031 280.304688 L 406.292969 282.96875 L 406.964844 284.300781 L 408.96875 288.296875 L 409.640625 289.628906 L 410.308594 291.03125 L 410.976562 292.363281 L 411.644531 293.765625 L 412.316406 295.097656 L 413.652344 297.902344 L 414.320312 299.234375 "/>
</g>
<g clip-path="url(#clip25)" clip-rule="nonzero">
<path style="fill-rule:nonzero;fill:rgb(100%,100%,100%);fill-opacity:1;stroke-width:1.062992;stroke-linecap:round;stroke-linejoin:round;stroke:rgb(100%,100%,100%);stroke-opacity:1;stroke-miterlimit:10;" d="M 0 432 L 108 432 L 108 324 L 0 324 Z M 0 432 "/>
</g>
<g clip-path="url(#clip26)" clip-rule="nonzero">
<path style=" stroke:none;fill-rule:nonzero;fill:rgb(100%,100%,100%);fill-opacity:1;" d="M 21.488281 410.511719 L 93.601562 410.511719 L 93.601562 338.398438 L 21.488281 338.398438 Z M 21.488281 410.511719 "/>
<path style="fill:none;stroke-width:1.062992;stroke-linecap:butt;stroke-linejoin:round;stroke:rgb(0%,0%,0%);stroke-opacity:1;stroke-miterlimit:1;" d="M 24.765625 407.234375 L 25.433594 398.527344 L 26.101562 391.769531 L 26.769531 386.214844 L 27.441406 381.515625 L 28.109375 377.445312 L 28.777344 373.878906 L 29.445312 370.710938 L 30.117188 367.898438 L 30.785156 365.367188 L 31.453125 363.074219 L 32.121094 361.003906 L 32.792969 359.128906 L 33.460938 357.414062 L 34.128906 355.855469 L 34.796875 354.429688 L 35.46875 353.113281 L 36.136719 351.921875 L 36.804688 350.824219 L 37.476562 349.824219 L 38.144531 348.910156 L 38.8125 348.070312 L 39.480469 347.304688 L 40.152344 346.609375 L 40.820312 345.964844 L 41.488281 345.390625 L 42.15625 344.867188 L 42.828125 344.394531 L 43.496094 343.96875 L 44.164062 343.589844 L 44.832031 343.25 L 45.503906 342.945312 L 46.171875 342.6875 L 46.839844 342.457031 L 47.507812 342.261719 L 48.179688 342.09375 L 48.847656 341.957031 L 49.515625 341.859375 L 50.183594 341.773438 L 50.855469 341.714844 L 51.523438 341.691406 L 52.191406 341.679688 L 52.859375 341.691406 L 53.53125 341.714844 L 54.199219 341.761719 L 54.867188 341.835938 L 55.535156 341.921875 L 56.207031 342.019531 L 56.875 342.140625 L 57.542969 342.273438 L 58.210938 342.421875 L 58.882812 342.578125 L 59.550781 342.75 L 60.886719 343.140625 L 61.558594 343.347656 L 62.894531 343.785156 L 63.5625 344.027344 L 64.234375 344.273438 L 64.902344 344.527344 L 65.570312 344.796875 L 66.238281 345.0625 L 66.910156 345.34375 L 67.578125 345.625 L 68.246094 345.917969 L 68.914062 346.207031 L 69.585938 346.511719 L 70.253906 346.828125 L 70.921875 347.132812 L 71.589844 347.460938 L 72.261719 347.78125 L 72.929688 348.109375 L 73.597656 348.449219 L 74.265625 348.777344 L 74.9375 349.117188 L 75.605469 349.460938 L 76.273438 349.8125 L 76.941406 350.167969 L 77.613281 350.519531 L 78.28125 350.871094 L 78.949219 351.226562 L 79.617188 351.589844 L 80.289062 351.957031 L 80.957031 352.320312 L 81.625 352.6875 L 82.292969 353.050781 L 82.964844 353.429688 L 83.632812 353.796875 L 84.300781 354.171875 L 84.96875 354.539062 L 85.640625 354.917969 L 86.308594 355.292969 L 86.976562 355.671875 L 87.644531 356.046875 L 88.316406 356.425781 L 88.984375 356.804688 L 89.652344 357.179688 L 90.320312 357.558594 "/>
</g>
<g clip-path="url(#clip27)" clip-rule="nonzero">
<path style="fill-rule:nonzero;fill:rgb(100%,100%,100%);fill-opacity:1;stroke-width:1.062992;stroke-linecap:round;stroke-linejoin:round;stroke:rgb(100%,100%,100%);stroke-opacity:1;stroke-miterlimit:10;" d="M 108 432 L 216 432 L 216 324 L 108 324 Z M 108 432 "/>
</g>
<g clip-path="url(#clip28)" clip-rule="nonzero">
<path style=" stroke:none;fill-rule:nonzero;fill:rgb(100%,100%,100%);fill-opacity:1;" d="M 129.488281 410.511719 L 201.601562 410.511719 L 201.601562 338.398438 L 129.488281 338.398438 Z M 129.488281 410.511719 "/>
<path style="fill:none;stroke-width:1.062992;stroke-linecap:butt;stroke-linejoin:round;stroke:rgb(0%,0%,0%);stroke-opacity:1;stroke-miterlimit:1;" d="M 132.765625 407.234375 L 133.433594 399.234375 L 134.101562 392.835938 L 134.769531 387.472656 L 135.441406 382.867188 L 136.109375 378.820312 L 136.777344 375.261719 L 137.445312 372.0625 L 138.117188 369.207031 L 138.785156 366.625 L 139.453125 364.277344 L 140.121094 362.144531 L 140.792969 360.195312 L 141.460938 358.425781 L 142.128906 356.78125 L 142.796875 355.300781 L 143.46875 353.925781 L 144.136719 352.679688 L 144.804688 351.523438 L 145.476562 350.457031 L 146.144531 349.480469 L 146.8125 348.597656 L 147.480469 347.785156 L 148.152344 347.042969 L 148.820312 346.355469 L 149.488281 345.742188 L 150.15625 345.183594 L 150.828125 344.675781 L 151.496094 344.207031 L 152.164062 343.792969 L 152.832031 343.429688 L 153.503906 343.105469 L 154.171875 342.816406 L 154.839844 342.5625 L 155.507812 342.347656 L 156.179688 342.164062 L 156.847656 342.019531 L 157.515625 341.894531 L 158.183594 341.804688 L 158.855469 341.730469 L 159.523438 341.695312 L 160.191406 341.679688 L 160.859375 341.679688 L 161.53125 341.695312 L 162.199219 341.75 L 162.867188 341.824219 L 163.535156 341.894531 L 164.207031 342.003906 L 164.875 342.113281 L 166.210938 342.402344 L 166.882812 342.5625 L 167.550781 342.742188 L 168.21875 342.925781 L 168.886719 343.140625 L 169.558594 343.339844 L 170.894531 343.808594 L 171.5625 344.0625 L 172.234375 344.316406 L 172.902344 344.566406 L 173.570312 344.839844 L 174.238281 345.128906 L 174.910156 345.417969 L 175.578125 345.707031 L 176.246094 346.011719 L 176.914062 346.320312 L 177.585938 346.644531 L 178.253906 346.972656 L 178.921875 347.296875 L 179.589844 347.640625 L 180.261719 347.964844 L 180.929688 348.308594 L 181.597656 348.667969 L 182.265625 349.011719 L 182.9375 349.375 L 183.605469 349.734375 L 184.273438 350.097656 L 184.941406 350.457031 L 185.613281 350.835938 L 186.949219 351.59375 L 187.617188 351.976562 L 188.289062 352.355469 L 189.625 353.113281 L 190.292969 353.511719 L 190.964844 353.890625 L 191.632812 354.289062 L 192.300781 354.683594 L 192.96875 355.0625 L 193.640625 355.460938 L 194.976562 356.257812 L 195.644531 356.652344 L 196.316406 357.050781 L 197.652344 357.847656 L 198.320312 358.261719 "/>
</g>
<g clip-path="url(#clip29)" clip-rule="nonzero">
<path style="fill-rule:nonzero;fill:rgb(100%,100%,100%);fill-opacity:1;stroke-width:1.062992;stroke-linecap:round;stroke-linejoin:round;stroke:rgb(100%,100%,100%);stroke-opacity:1;stroke-miterlimit:10;" d="M 216 432 L 324 432 L 324 324 L 216 324 Z M 216 432 "/>
</g>
<g clip-path="url(#clip30)" clip-rule="nonzero">
<path style=" stroke:none;fill-rule:nonzero;fill:rgb(100%,100%,100%);fill-opacity:1;" d="M 237.488281 410.511719 L 309.601562 410.511719 L 309.601562 338.398438 L 237.488281 338.398438 Z M 237.488281 410.511719 "/>
<path style="fill:none;stroke-width:1.062992;stroke-linecap:butt;stroke-linejoin:round;stroke:rgb(0%,0%,0%);stroke-opacity:1;stroke-miterlimit:1;" d="M 240.765625 368.738281 L 241.433594 363.710938 L 242.101562 359.921875 L 242.769531 356.867188 L 243.441406 354.351562 L 244.109375 352.207031 L 244.777344 350.398438 L 245.445312 348.855469 L 246.117188 347.511719 L 246.785156 346.371094 L 247.453125 345.398438 L 248.121094 344.5625 L 248.792969 343.859375 L 249.460938 343.289062 L 250.128906 342.816406 L 250.796875 342.414062 L 251.46875 342.113281 L 252.136719 341.914062 L 252.804688 341.746094 L 253.476562 341.679688 L 254.144531 341.679688 L 254.8125 341.710938 L 255.480469 341.8125 L 256.152344 341.980469 L 256.820312 342.179688 L 257.488281 342.414062 L 258.15625 342.71875 L 258.828125 343.019531 L 259.496094 343.386719 L 260.164062 343.789062 L 260.832031 344.226562 L 261.503906 344.695312 L 262.839844 345.703125 L 263.507812 346.273438 L 264.179688 346.84375 L 264.847656 347.445312 L 266.183594 348.71875 L 266.855469 349.390625 L 267.523438 350.09375 L 268.191406 350.800781 L 268.859375 351.535156 L 269.53125 352.273438 L 270.199219 353.046875 L 270.867188 353.816406 L 271.535156 354.621094 L 272.207031 355.425781 L 272.875 356.265625 L 273.542969 357.101562 L 274.210938 357.941406 L 274.882812 358.8125 L 275.550781 359.683594 L 276.886719 361.496094 L 277.558594 362.402344 L 278.226562 363.308594 L 279.5625 365.183594 L 280.234375 366.125 L 282.238281 369.042969 L 282.910156 370.011719 L 283.578125 370.984375 L 284.246094 371.992188 L 284.914062 372.996094 L 285.585938 374.003906 L 286.253906 375.011719 L 286.921875 376.050781 L 287.589844 377.054688 L 288.261719 378.09375 L 288.929688 379.132812 L 289.597656 380.175781 L 290.265625 381.214844 L 290.9375 382.285156 L 291.605469 383.328125 L 292.273438 384.398438 L 292.941406 385.4375 L 293.613281 386.511719 L 294.28125 387.585938 L 294.949219 388.65625 L 295.617188 389.730469 L 296.289062 390.804688 L 296.957031 391.878906 L 297.625 392.984375 L 298.292969 394.058594 L 298.964844 395.164062 L 299.632812 396.238281 L 300.300781 397.34375 L 300.96875 398.417969 L 301.640625 399.523438 L 302.308594 400.628906 L 302.976562 401.703125 L 303.644531 402.808594 L 304.316406 403.914062 L 304.984375 405.023438 L 306.320312 407.234375 "/>
</g>
<g clip-path="url(#clip31)" clip-rule="nonzero">
<path style="fill-rule:nonzero;fill:rgb(100%,100%,100%);fill-opacity:1;stroke-width:1.062992;stroke-linecap:round;stroke-linejoin:round;stroke:rgb(100%,100%,100%);stroke-opacity:1;stroke-miterlimit:10;" d="M 324 432 L 432 432 L 432 324 L 324 324 Z M 324 432 "/>
</g>
<g clip-path="url(#clip32)" clip-rule="nonzero">
<path style=" stroke:none;fill-rule:nonzero;fill:rgb(100%,100%,100%);fill-opacity:1;" d="M 345.488281 410.511719 L 417.601562 410.511719 L 417.601562 338.398438 L 345.488281 338.398438 Z M 345.488281 410.511719 "/>
<path style="fill:none;stroke-width:1.062992;stroke-linecap:butt;stroke-linejoin:round;stroke:rgb(0%,0%,0%);stroke-opacity:1;stroke-miterlimit:1;" d="M 348.765625 407.234375 L 349.433594 398.597656 L 350.101562 392.210938 L 350.769531 387.066406 L 351.441406 382.761719 L 352.109375 379.054688 L 352.777344 375.804688 L 353.445312 372.921875 L 354.117188 370.351562 L 354.785156 368.019531 L 355.453125 365.910156 L 356.121094 363.980469 L 356.792969 362.21875 L 357.460938 360.59375 L 358.128906 359.101562 L 358.796875 357.726562 L 359.46875 356.449219 L 360.136719 355.261719 L 360.804688 354.15625 L 361.476562 353.128906 L 362.144531 352.183594 L 362.8125 351.300781 L 363.480469 350.476562 L 364.152344 349.703125 L 364.820312 348.984375 L 365.488281 348.328125 L 366.15625 347.703125 L 366.828125 347.128906 L 367.496094 346.597656 L 368.164062 346.089844 L 368.832031 345.625 L 369.503906 345.195312 L 370.171875 344.808594 L 370.839844 344.4375 L 371.507812 344.105469 L 372.179688 343.796875 L 372.847656 343.503906 L 373.515625 343.25 L 374.183594 343.011719 L 374.855469 342.796875 L 375.523438 342.609375 L 376.191406 342.4375 L 376.859375 342.292969 L 377.53125 342.15625 L 378.199219 342.039062 L 379.535156 341.851562 L 380.207031 341.796875 L 380.875 341.746094 L 381.542969 341.703125 L 382.210938 341.679688 L 383.550781 341.679688 L 384.21875 341.691406 L 384.886719 341.71875 L 385.558594 341.769531 L 386.226562 341.8125 L 387.5625 341.945312 L 388.234375 342.039062 L 388.902344 342.132812 L 389.570312 342.222656 L 390.238281 342.332031 L 390.910156 342.449219 L 391.578125 342.585938 L 392.246094 342.71875 L 392.914062 342.863281 L 393.585938 343.011719 L 394.921875 343.332031 L 395.589844 343.503906 L 396.261719 343.691406 L 396.929688 343.863281 L 397.597656 344.0625 L 398.265625 344.265625 L 398.9375 344.464844 L 399.605469 344.664062 L 400.273438 344.878906 L 400.941406 345.105469 L 401.613281 345.332031 L 402.949219 345.785156 L 403.617188 346.023438 L 404.289062 346.277344 L 404.957031 346.515625 L 406.292969 347.023438 L 406.964844 347.289062 L 407.632812 347.542969 L 408.300781 347.808594 L 408.96875 348.089844 L 409.640625 348.355469 L 410.976562 348.917969 L 411.644531 349.195312 L 412.316406 349.488281 L 412.984375 349.769531 L 413.652344 350.0625 L 414.320312 350.367188 "/>
</g>
</g>
</svg>
