<?xml version="1.0" encoding="UTF-8"?>
<svg xmlns="http://www.w3.org/2000/svg" xmlns:xlink="http://www.w3.org/1999/xlink" width="576pt" height="432pt" viewBox="0 0 576 432" version="1.1">
<defs>
<clipPath id="clip1">
  <path d="M 21.488281 21.601562 L 103.601562 21.601562 L 103.601562 140.316406 L 21.488281 140.316406 Z M 21.488281 21.601562 "/>
</clipPath>
<clipPath id="clip2">
  <path d="M 113.285156 21.601562 L 195.398438 21.601562 L 195.398438 140.316406 L 113.285156 140.316406 Z M 113.285156 21.601562 "/>
</clipPath>
<clipPath id="clip3">
  <path d="M 205.085938 21.601562 L 287.199219 21.601562 L 287.199219 140.316406 L 205.085938 140.316406 Z M 205.085938 21.601562 "/>
</clipPath>
<clipPath id="clip4">
  <path d="M 296.886719 21.601562 L 379 21.601562 L 379 140.316406 L 296.886719 140.316406 Z M 296.886719 21.601562 "/>
</clipPath>
<clipPath id="clip5">
  <path d="M 388.6875 21.601562 L 470.800781 21.601562 L 470.800781 140.316406 L 388.6875 140.316406 Z M 388.6875 21.601562 "/>
</clipPath>
<clipPath id="clip6">
  <path d="M 480.488281 21.601562 L 562.601562 21.601562 L 562.601562 140.316406 L 480.488281 140.316406 Z M 480.488281 21.601562 "/>
</clipPath>
<clipPath id="clip7">
  <path d="M 21.488281 157.199219 L 103.601562 157.199219 L 103.601562 275.914062 L 21.488281 275.914062 Z M 21.488281 157.199219 "/>
</clipPath>
<clipPath id="clip8">
  <path d="M 113.285156 157.199219 L 195.398438 157.199219 L 195.398438 275.914062 L 113.285156 275.914062 Z M 113.285156 157.199219 "/>
</clipPath>
<clipPath id="clip9">
  <path d="M 205.085938 157.199219 L 287.199219 157.199219 L 287.199219 275.914062 L 205.085938 275.914062 Z M 205.085938 157.199219 "/>
</clipPath>
<clipPath id="clip10">
  <path d="M 296.886719 157.199219 L 379 157.199219 L 379 275.914062 L 296.886719 275.914062 Z M 296.886719 157.199219 "/>
</clipPath>
<clipPath id="clip11">
  <path d="M 388.6875 157.199219 L 470.800781 157.199219 L 470.800781 275.914062 L 388.6875 275.914062 Z M 388.6875 157.199219 "/>
</clipPath>
<clipPath id="clip12">
  <path d="M 480.488281 157.199219 L 562.601562 157.199219 L 562.601562 275.914062 L 480.488281 275.914062 Z M 480.488281 157.199219 "/>
</clipPath>
<clipPath id="clip13">
  <path d="M 21.488281 292.800781 L 103.601562 292.800781 L 103.601562 411.515625 L 21.488281 411.515625 Z M 21.488281 292.800781 "/>
</clipPath>
<clipPath id="clip14">
  <path d="M 113.285156 292.800781 L 195.398438 292.800781 L 195.398438 411.515625 L 113.285156 411.515625 Z M 113.285156 292.800781 "/>
</clipPath>
<clipPath id="clip15">
  <path d="M 205.085938 292.800781 L 287.199219 292.800781 L 287.199219 411.515625 L 205.085938 411.515625 Z M 205.085938 292.800781 "/>
</clipPath>
<clipPath id="clip16">
  <path d="M 296.886719 292.800781 L 379 292.800781 L 379 411.515625 L 296.886719 411.515625 Z M 296.886719 292.800781 "/>
</clipPath>
<clipPath id="clip17">
  <path d="M 388.6875 292.800781 L 470.800781 292.800781 L 470.800781 411.515625 L 388.6875 411.515625 Z M 388.6875 292.800781 "/>
</clipPath>
<clipPath id="clip18">
  <path d="M 480.488281 292.800781 L 562.601562 292.800781 L 562.601562 411.515625 L 480.488281 411.515625 Z M 480.488281 292.800781 "/>
</clipPath>
</defs>
<g id="surface1">
<rect x="0" y="0" width="576" height="432" style="fill:rgb(100%,100%,100%);fill-opacity:1;stroke:none;"/>
<g clip-path="url(#clip1)" clip-rule="nonzero">
<path style="fill:none;stroke-width:1.062992;stroke-linecap:butt;stroke-linejoin:round;stroke:rgb(0%,0%,0%);stroke-opacity:1;stroke-miterlimit:1;" d="M 25.171875 133.960938 L 25.925781 128.019531 L 26.679688 122.300781 L 27.429688 116.8125 L 28.183594 111.554688 L 28.9375 106.753906 L 29.6875 101.949219 L 30.441406 97.378906 L 31.191406 93.261719 L 31.945312 89.144531 L 32.699219 85.257812 L 33.449219 81.601562 L 34.203125 77.941406 L 34.957031 74.511719 L 35.707031 71.308594 L 36.460938 68.335938 L 37.210938 65.59375 L 37.964844 62.851562 L 38.71875 60.105469 L 39.46875 57.589844 L 40.222656 55.304688 L 40.976562 53.246094 L 41.726562 50.960938 L 42.480469 49.128906 L 43.230469 47.300781 L 43.984375 45.472656 L 44.738281 43.871094 L 45.488281 42.269531 L 46.242188 40.671875 L 46.996094 39.527344 L 47.746094 38.15625 L 48.5 37.011719 L 49.25 35.867188 L 50.003906 34.726562 L 50.757812 33.808594 L 51.507812 32.894531 L 52.261719 32.210938 L 53.015625 31.296875 L 53.765625 30.609375 L 54.519531 30.152344 L 55.269531 29.464844 L 56.777344 28.550781 L 57.527344 28.324219 L 58.28125 27.867188 L 59.035156 27.636719 L 59.785156 27.40625 L 60.539062 27.179688 L 61.289062 26.949219 L 65.804688 26.949219 L 66.558594 27.179688 L 67.308594 27.40625 L 68.816406 27.867188 L 69.566406 28.09375 L 70.320312 28.324219 L 71.074219 28.550781 L 71.824219 29.007812 L 72.578125 29.238281 L 73.328125 29.695312 L 74.835938 30.609375 L 75.585938 31.066406 L 77.09375 31.980469 L 77.84375 32.4375 L 78.597656 32.894531 L 79.347656 33.582031 L 80.101562 34.039062 L 80.855469 34.726562 L 81.605469 35.183594 L 82.359375 35.867188 L 83.113281 36.324219 L 83.863281 37.011719 L 84.617188 37.699219 L 85.367188 38.382812 L 86.121094 39.070312 L 86.875 39.527344 L 87.625 40.210938 L 89.132812 41.585938 L 89.882812 42.5 L 90.636719 43.183594 L 91.386719 43.871094 L 92.140625 44.558594 L 92.894531 45.242188 L 93.644531 45.929688 L 94.398438 46.617188 L 95.152344 47.53125 L 95.902344 48.214844 L 96.65625 48.902344 L 97.40625 49.816406 L 98.160156 50.503906 L 98.914062 51.1875 "/>
</g>
<g clip-path="url(#clip2)" clip-rule="nonzero">
<path style="fill:none;stroke-width:1.062992;stroke-linecap:butt;stroke-linejoin:round;stroke:rgb(0%,0%,0%);stroke-opacity:1;stroke-miterlimit:1;" d="M 116.972656 133.960938 L 117.726562 124.148438 L 118.476562 115.273438 L 119.230469 107.082031 L 119.984375 99.65625 L 120.734375 92.832031 L 121.488281 86.601562 L 122.242188 80.796875 L 122.992188 75.59375 L 123.746094 70.726562 L 124.496094 66.375 L 125.25 62.28125 L 126.003906 58.523438 L 126.753906 55.195312 L 127.507812 52.039062 L 128.261719 49.222656 L 129.011719 46.578125 L 129.765625 44.1875 L 130.515625 42.054688 L 131.269531 40.09375 L 132.023438 38.300781 L 132.773438 36.679688 L 133.527344 35.3125 L 134.28125 33.949219 L 135.03125 32.839844 L 135.785156 31.816406 L 136.539062 30.875 L 137.289062 30.109375 L 138.042969 29.425781 L 138.792969 28.828125 L 139.546875 28.316406 L 140.300781 27.890625 L 141.050781 27.546875 L 141.804688 27.292969 L 142.558594 27.121094 L 143.308594 27.035156 L 144.0625 26.949219 L 145.566406 26.949219 L 146.320312 27.035156 L 147.070312 27.207031 L 147.824219 27.378906 L 148.578125 27.546875 L 149.328125 27.804688 L 150.082031 28.058594 L 150.832031 28.402344 L 151.585938 28.65625 L 152.339844 29.085938 L 153.089844 29.425781 L 153.84375 29.851562 L 154.597656 30.195312 L 155.347656 30.707031 L 156.101562 31.132812 L 156.851562 31.558594 L 157.605469 32.070312 L 158.359375 32.496094 L 159.109375 33.007812 L 159.863281 33.523438 L 160.617188 34.035156 L 161.367188 34.546875 L 162.121094 35.058594 L 162.871094 35.570312 L 164.378906 36.59375 L 165.128906 37.105469 L 165.882812 37.617188 L 166.636719 38.214844 L 167.386719 38.726562 L 168.140625 39.238281 L 168.890625 39.75 L 170.398438 40.773438 L 171.148438 41.289062 L 172.65625 42.3125 L 173.40625 42.824219 L 174.160156 43.335938 L 174.910156 43.847656 L 175.664062 44.273438 L 176.417969 44.785156 L 177.167969 45.210938 L 177.921875 45.726562 L 178.675781 46.152344 L 179.425781 46.664062 L 180.179688 47.089844 L 180.929688 47.515625 L 181.683594 48.027344 L 182.4375 48.457031 L 183.1875 48.882812 L 183.941406 49.308594 L 184.695312 49.648438 L 185.445312 50.078125 L 186.199219 50.503906 L 186.949219 50.84375 L 187.703125 51.273438 L 188.457031 51.613281 L 189.207031 52.039062 L 189.960938 52.382812 L 190.714844 52.722656 "/>
</g>
<g clip-path="url(#clip3)" clip-rule="nonzero">
<path style="fill:none;stroke-width:1.062992;stroke-linecap:butt;stroke-linejoin:round;stroke:rgb(0%,0%,0%);stroke-opacity:1;stroke-miterlimit:1;" d="M 208.773438 133.960938 L 209.527344 125.242188 L 210.277344 117.359375 L 211.03125 109.976562 L 211.785156 103.269531 L 212.535156 97.0625 L 213.289062 91.191406 L 214.039062 85.824219 L 214.792969 80.792969 L 215.546875 76.261719 L 216.296875 72.070312 L 217.050781 68.042969 L 217.804688 64.355469 L 218.554688 61 L 219.308594 57.980469 L 220.058594 55.128906 L 220.8125 52.445312 L 221.566406 49.929688 L 222.316406 47.75 L 223.070312 45.570312 L 223.824219 43.722656 L 224.574219 41.878906 L 225.328125 40.203125 L 226.078125 38.691406 L 226.832031 37.351562 L 227.585938 36.175781 L 228.335938 35 L 229.089844 33.996094 L 229.84375 32.988281 L 230.59375 32.148438 L 231.347656 31.480469 L 232.097656 30.640625 L 232.851562 30.136719 L 233.605469 29.464844 L 234.355469 29.132812 L 235.109375 28.628906 L 235.863281 28.292969 L 236.613281 27.957031 L 237.367188 27.621094 L 238.117188 27.453125 L 239.625 27.117188 L 240.375 26.949219 L 244.890625 26.949219 L 245.644531 27.117188 L 246.394531 27.285156 L 247.148438 27.285156 L 247.902344 27.453125 L 248.652344 27.621094 L 249.40625 27.789062 L 250.15625 27.957031 L 251.664062 28.292969 L 252.414062 28.628906 L 253.921875 28.964844 L 254.671875 29.300781 L 255.425781 29.464844 L 256.175781 29.800781 L 256.929688 29.96875 L 257.683594 30.304688 L 258.433594 30.472656 L 259.1875 30.808594 L 259.941406 30.976562 L 260.691406 31.3125 L 261.445312 31.480469 L 262.195312 31.816406 L 262.949219 31.984375 L 263.703125 32.316406 L 264.453125 32.484375 L 265.960938 33.15625 L 266.710938 33.324219 L 267.464844 33.660156 L 268.214844 33.828125 L 268.96875 34.164062 L 269.722656 34.332031 L 270.472656 34.667969 L 271.226562 34.832031 L 271.980469 35.167969 L 272.730469 35.335938 L 273.484375 35.671875 L 274.234375 35.839844 L 274.988281 36.007812 L 275.742188 36.34375 L 276.492188 36.511719 L 277.246094 36.679688 L 278 37.015625 L 278.75 37.183594 L 279.503906 37.351562 L 280.253906 37.683594 L 281.761719 38.019531 L 282.511719 38.1875 "/>
</g>
<g clip-path="url(#clip4)" clip-rule="nonzero">
<path style="fill:none;stroke-width:1.062992;stroke-linecap:butt;stroke-linejoin:round;stroke:rgb(0%,0%,0%);stroke-opacity:1;stroke-miterlimit:1;" d="M 300.574219 28.261719 L 301.324219 27.933594 L 302.078125 27.441406 L 302.832031 27.277344 L 303.582031 26.949219 L 305.839844 26.949219 L 306.59375 27.113281 L 307.34375 27.277344 L 308.851562 27.933594 L 309.601562 28.261719 L 311.109375 29.246094 L 311.859375 29.902344 L 312.613281 30.390625 L 313.363281 31.210938 L 314.871094 32.523438 L 315.621094 33.34375 L 316.375 34.160156 L 317.128906 35.144531 L 317.878906 35.964844 L 318.632812 36.945312 L 319.382812 37.929688 L 320.890625 39.898438 L 321.640625 41.042969 L 322.394531 42.191406 L 323.148438 43.175781 L 323.898438 44.320312 L 324.652344 45.46875 L 325.402344 46.78125 L 326.15625 47.925781 L 326.910156 49.074219 L 327.660156 50.386719 L 328.414062 51.695312 L 329.167969 52.84375 L 329.917969 54.15625 L 330.671875 55.464844 L 331.421875 56.777344 L 332.175781 58.085938 L 332.929688 59.398438 L 333.679688 60.710938 L 334.433594 62.183594 L 335.1875 63.496094 L 335.9375 64.804688 L 336.691406 66.28125 L 337.441406 67.59375 L 338.195312 68.902344 L 338.949219 70.378906 L 339.699219 71.6875 L 341.207031 74.640625 L 341.957031 75.949219 L 342.710938 77.425781 L 343.460938 78.734375 L 344.96875 81.6875 L 345.71875 82.996094 L 346.472656 84.472656 L 347.226562 85.78125 L 347.976562 87.257812 L 348.730469 88.734375 L 349.480469 90.042969 L 350.234375 91.519531 L 350.988281 92.828125 L 351.738281 94.304688 L 352.492188 95.617188 L 353.246094 97.089844 L 353.996094 98.402344 L 354.75 99.875 L 355.5 101.1875 L 356.253906 102.664062 L 357.007812 103.972656 L 357.757812 105.285156 L 358.511719 106.757812 L 359.265625 108.070312 L 360.015625 109.382812 L 360.769531 110.855469 L 361.523438 112.167969 L 362.273438 113.476562 L 363.027344 114.789062 L 363.777344 116.101562 L 364.53125 117.410156 L 365.285156 118.722656 L 366.035156 120.03125 L 367.542969 122.65625 L 368.292969 123.964844 L 369.046875 125.113281 L 369.796875 126.425781 L 370.550781 127.734375 L 371.304688 129.046875 L 372.054688 130.195312 L 372.808594 131.503906 L 373.5625 132.652344 L 374.3125 133.960938 "/>
</g>
<g clip-path="url(#clip5)" clip-rule="nonzero">
<path style="fill:none;stroke-width:1.062992;stroke-linecap:butt;stroke-linejoin:round;stroke:rgb(0%,0%,0%);stroke-opacity:1;stroke-miterlimit:1;" d="M 392.375 133.960938 L 393.125 118.316406 L 393.878906 106.230469 L 394.632812 96.445312 L 395.382812 88.324219 L 396.136719 81.433594 L 396.886719 75.5 L 397.640625 70.332031 L 398.394531 65.800781 L 399.144531 61.792969 L 399.898438 58.230469 L 400.652344 55.046875 L 401.402344 52.179688 L 402.15625 49.617188 L 402.90625 47.300781 L 403.660156 45.203125 L 404.414062 43.308594 L 405.164062 41.585938 L 405.917969 40.019531 L 406.671875 38.601562 L 407.421875 37.316406 L 408.175781 36.140625 L 408.925781 35.070312 L 409.679688 34.117188 L 410.433594 33.234375 L 411.183594 32.449219 L 411.9375 31.726562 L 412.691406 31.089844 L 413.441406 30.511719 L 414.195312 29.992188 L 414.945312 29.511719 L 415.699219 29.105469 L 416.453125 28.730469 L 417.203125 28.414062 L 417.957031 28.125 L 418.710938 27.878906 L 419.460938 27.660156 L 420.214844 27.484375 L 420.964844 27.328125 L 421.71875 27.210938 L 422.472656 27.109375 L 423.222656 27.039062 L 423.976562 26.992188 L 424.730469 26.949219 L 426.234375 26.949219 L 426.984375 26.980469 L 428.492188 27.066406 L 429.242188 27.140625 L 429.996094 27.210938 L 430.75 27.296875 L 431.5 27.398438 L 432.253906 27.515625 L 433.003906 27.632812 L 433.757812 27.746094 L 434.511719 27.878906 L 435.261719 28.023438 L 436.769531 28.3125 L 437.519531 28.46875 L 438.273438 28.628906 L 439.023438 28.789062 L 439.777344 28.960938 L 440.53125 29.121094 L 441.28125 29.296875 L 442.035156 29.46875 L 442.789062 29.644531 L 443.539062 29.832031 L 444.292969 30.003906 L 445.042969 30.179688 L 445.796875 30.367188 L 446.550781 30.539062 L 447.300781 30.730469 L 448.054688 30.902344 L 448.808594 31.089844 L 449.558594 31.265625 L 450.3125 31.4375 L 451.0625 31.625 L 451.816406 31.800781 L 452.570312 31.972656 L 453.320312 32.148438 L 454.074219 32.320312 L 454.828125 32.496094 L 455.578125 32.667969 L 456.332031 32.84375 L 457.082031 33 L 457.835938 33.175781 L 458.589844 33.335938 L 459.339844 33.492188 L 460.847656 33.8125 L 461.597656 33.972656 L 462.351562 34.117188 L 463.101562 34.273438 L 464.609375 34.5625 L 465.359375 34.710938 L 466.113281 34.855469 "/>
</g>
<g clip-path="url(#clip6)" clip-rule="nonzero">
<path style="fill:none;stroke-width:1.062992;stroke-linecap:butt;stroke-linejoin:round;stroke:rgb(0%,0%,0%);stroke-opacity:1;stroke-miterlimit:1;" d="M 484.171875 133.960938 L 484.925781 127.328125 L 485.679688 121.105469 L 486.429688 115.296875 L 487.9375 104.515625 L 488.6875 99.121094 L 489.441406 94.558594 L 490.191406 89.996094 L 490.945312 85.433594 L 491.699219 81.285156 L 492.449219 77.554688 L 493.957031 70.085938 L 494.707031 66.769531 L 495.460938 63.449219 L 496.210938 60.546875 L 496.964844 57.644531 L 497.71875 55.15625 L 498.46875 52.667969 L 499.222656 50.179688 L 499.976562 48.105469 L 500.726562 46.03125 L 501.480469 43.957031 L 502.230469 42.296875 L 502.984375 40.636719 L 503.738281 38.980469 L 504.488281 37.320312 L 505.242188 36.074219 L 505.996094 34.832031 L 506.746094 33.585938 L 507.5 32.757812 L 508.25 31.929688 L 509.003906 31.097656 L 509.757812 30.269531 L 510.507812 29.4375 L 512.015625 28.609375 L 512.765625 27.78125 L 513.519531 27.78125 L 514.269531 27.367188 L 515.023438 26.949219 L 519.539062 26.949219 L 520.289062 27.367188 L 521.042969 27.367188 L 521.796875 27.78125 L 522.546875 28.195312 L 524.054688 29.023438 L 524.804688 29.4375 L 525.558594 29.855469 L 526.308594 30.269531 L 527.0625 31.097656 L 527.816406 31.511719 L 528.566406 32.34375 L 529.320312 32.757812 L 530.074219 33.585938 L 530.824219 34.417969 L 531.578125 35.246094 L 532.328125 36.074219 L 533.082031 36.90625 L 533.835938 37.734375 L 534.585938 38.5625 L 535.339844 39.394531 L 536.09375 40.222656 L 536.84375 41.054688 L 537.597656 41.882812 L 538.347656 43.125 L 539.101562 43.957031 L 539.855469 44.785156 L 540.605469 46.03125 L 541.359375 46.859375 L 542.113281 48.105469 L 542.863281 48.933594 L 543.617188 50.179688 L 544.367188 51.007812 L 545.121094 52.25 L 545.875 53.496094 L 546.625 54.324219 L 547.378906 55.570312 L 548.132812 56.398438 L 548.882812 57.644531 L 549.636719 58.886719 L 550.386719 60.132812 L 551.140625 60.960938 L 551.894531 62.207031 L 552.644531 63.449219 L 553.398438 64.28125 L 554.152344 65.523438 L 554.902344 66.769531 L 555.65625 68.011719 L 556.40625 69.257812 L 557.160156 70.085938 L 557.914062 71.332031 "/>
</g>
<g clip-path="url(#clip7)" clip-rule="nonzero">
<path style="fill:none;stroke-width:1.062992;stroke-linecap:butt;stroke-linejoin:round;stroke:rgb(0%,0%,0%);stroke-opacity:1;stroke-miterlimit:1;" d="M 25.171875 269.5625 L 25.925781 260.394531 L 26.679688 252.074219 L 27.429688 244.371094 L 28.183594 237.28125 L 28.9375 230.808594 L 29.6875 224.878906 L 30.441406 219.332031 L 31.191406 214.324219 L 31.945312 209.625 L 32.699219 205.308594 L 33.449219 201.378906 L 34.203125 197.683594 L 34.957031 194.371094 L 35.707031 191.210938 L 36.460938 188.359375 L 37.210938 185.742188 L 37.964844 183.273438 L 38.71875 181.117188 L 39.46875 179.039062 L 40.222656 177.1875 L 40.976562 175.492188 L 41.726562 173.875 L 42.480469 172.488281 L 43.230469 171.179688 L 43.984375 170.023438 L 44.738281 168.945312 L 45.488281 168.019531 L 46.242188 167.171875 L 46.996094 166.402344 L 47.746094 165.710938 L 48.5 165.09375 L 49.25 164.554688 L 50.003906 164.089844 L 50.757812 163.707031 L 51.507812 163.398438 L 53.015625 162.9375 L 53.765625 162.78125 L 54.519531 162.628906 L 55.269531 162.550781 L 57.527344 162.550781 L 58.28125 162.628906 L 59.035156 162.703125 L 59.785156 162.859375 L 60.539062 163.011719 L 61.289062 163.167969 L 62.796875 163.628906 L 63.546875 163.859375 L 64.300781 164.089844 L 65.054688 164.324219 L 65.804688 164.628906 L 66.558594 164.9375 L 67.308594 165.246094 L 68.816406 165.863281 L 69.566406 166.171875 L 70.320312 166.480469 L 71.074219 166.863281 L 71.824219 167.171875 L 72.578125 167.558594 L 73.328125 167.867188 L 74.082031 168.25 L 74.835938 168.636719 L 75.585938 168.945312 L 76.339844 169.332031 L 77.09375 169.714844 L 77.84375 170.101562 L 78.597656 170.410156 L 79.347656 170.792969 L 80.101562 171.179688 L 80.855469 171.488281 L 81.605469 171.871094 L 82.359375 172.257812 L 83.113281 172.566406 L 83.863281 172.953125 L 84.617188 173.257812 L 85.367188 173.644531 L 86.121094 173.953125 L 86.875 174.339844 L 87.625 174.644531 L 88.378906 174.953125 L 89.132812 175.339844 L 89.882812 175.648438 L 90.636719 175.957031 L 91.386719 176.265625 L 92.140625 176.574219 L 92.894531 176.878906 L 93.644531 177.1875 L 95.152344 177.804688 L 95.902344 178.035156 L 96.65625 178.34375 L 97.40625 178.652344 L 98.160156 178.882812 L 98.914062 179.191406 "/>
</g>
<g clip-path="url(#clip8)" clip-rule="nonzero">
<path style="fill:none;stroke-width:1.062992;stroke-linecap:butt;stroke-linejoin:round;stroke:rgb(0%,0%,0%);stroke-opacity:1;stroke-miterlimit:1;" d="M 116.972656 162.550781 L 117.726562 163.511719 L 118.476562 164.636719 L 119.230469 165.597656 L 119.984375 166.722656 L 120.734375 167.84375 L 121.488281 168.96875 L 122.242188 170.089844 L 122.992188 171.214844 L 123.746094 172.335938 L 124.496094 173.460938 L 125.25 174.582031 L 126.003906 175.707031 L 126.753906 176.828125 L 127.507812 178.113281 L 128.261719 179.234375 L 129.011719 180.519531 L 129.765625 181.644531 L 130.515625 182.925781 L 131.269531 184.050781 L 132.023438 185.332031 L 132.773438 186.457031 L 133.527344 187.738281 L 134.28125 189.023438 L 135.03125 190.144531 L 136.539062 192.714844 L 137.289062 193.835938 L 138.042969 195.121094 L 138.792969 196.402344 L 139.546875 197.527344 L 140.300781 198.808594 L 141.050781 200.09375 L 141.804688 201.214844 L 142.558594 202.5 L 143.308594 203.78125 L 144.0625 204.90625 L 144.8125 206.191406 L 145.566406 207.3125 L 146.320312 208.597656 L 147.070312 209.878906 L 147.824219 211.003906 L 148.578125 212.285156 L 149.328125 213.410156 L 150.082031 214.691406 L 150.832031 215.816406 L 151.585938 216.9375 L 152.339844 218.222656 L 153.089844 219.34375 L 153.84375 220.46875 L 154.597656 221.753906 L 155.347656 222.875 L 156.101562 224 L 156.851562 225.121094 L 157.605469 226.246094 L 158.359375 227.367188 L 159.109375 228.492188 L 159.863281 229.613281 L 160.617188 230.738281 L 161.367188 231.859375 L 162.121094 232.984375 L 162.871094 234.105469 L 163.625 235.230469 L 164.378906 236.351562 L 165.128906 237.316406 L 165.882812 238.4375 L 166.636719 239.5625 L 167.386719 240.523438 L 168.140625 241.648438 L 168.890625 242.609375 L 169.644531 243.730469 L 170.398438 244.695312 L 171.148438 245.65625 L 171.902344 246.78125 L 172.65625 247.742188 L 173.40625 248.707031 L 174.160156 249.667969 L 174.910156 250.792969 L 176.417969 252.714844 L 177.167969 253.679688 L 177.921875 254.640625 L 178.675781 255.445312 L 179.425781 256.40625 L 180.179688 257.371094 L 180.929688 258.332031 L 181.683594 259.132812 L 182.4375 260.097656 L 183.1875 261.058594 L 183.941406 261.863281 L 184.695312 262.824219 L 185.445312 263.625 L 186.199219 264.589844 L 186.949219 265.390625 L 187.703125 266.195312 L 188.457031 267.15625 L 189.207031 267.957031 L 189.960938 268.761719 L 190.714844 269.5625 "/>
</g>
<g clip-path="url(#clip9)" clip-rule="nonzero">
<path style="fill:none;stroke-width:1.062992;stroke-linecap:butt;stroke-linejoin:round;stroke:rgb(0%,0%,0%);stroke-opacity:1;stroke-miterlimit:1;" d="M 208.773438 269.5625 L 209.527344 262.851562 L 210.277344 256.53125 L 211.03125 250.609375 L 211.785156 244.980469 L 212.535156 239.75 L 213.289062 234.8125 L 214.039062 230.171875 L 214.792969 225.828125 L 215.546875 221.683594 L 216.296875 217.734375 L 217.050781 214.082031 L 217.804688 210.527344 L 218.554688 207.269531 L 219.308594 204.210938 L 220.058594 201.25 L 220.8125 198.484375 L 221.566406 195.820312 L 222.316406 193.351562 L 223.070312 191.082031 L 223.824219 188.910156 L 224.574219 186.835938 L 225.328125 184.859375 L 226.078125 182.984375 L 226.832031 181.308594 L 227.585938 179.726562 L 228.335938 178.148438 L 229.84375 175.382812 L 230.59375 174.199219 L 231.347656 173.015625 L 232.097656 171.929688 L 233.605469 169.953125 L 234.355469 169.066406 L 235.109375 168.277344 L 235.863281 167.585938 L 236.613281 166.894531 L 237.367188 166.300781 L 238.117188 165.710938 L 238.871094 165.214844 L 239.625 164.722656 L 240.375 164.328125 L 241.128906 163.933594 L 241.882812 163.636719 L 242.632812 163.4375 L 243.386719 163.144531 L 244.136719 162.945312 L 245.644531 162.75 L 246.394531 162.648438 L 247.148438 162.648438 L 247.902344 162.550781 L 248.652344 162.648438 L 249.40625 162.648438 L 250.15625 162.75 L 251.664062 162.945312 L 252.414062 163.144531 L 253.167969 163.339844 L 253.921875 163.539062 L 254.671875 163.734375 L 255.425781 164.03125 L 256.175781 164.328125 L 256.929688 164.625 L 257.683594 164.917969 L 258.433594 165.214844 L 259.1875 165.609375 L 259.941406 165.90625 L 260.691406 166.300781 L 261.445312 166.695312 L 262.195312 167.089844 L 262.949219 167.585938 L 263.703125 167.980469 L 264.453125 168.375 L 265.207031 168.867188 L 265.960938 169.363281 L 266.710938 169.855469 L 267.464844 170.347656 L 268.214844 170.84375 L 268.96875 171.335938 L 269.722656 171.832031 L 270.472656 172.421875 L 271.226562 172.917969 L 271.980469 173.410156 L 272.730469 174.003906 L 273.484375 174.59375 L 274.234375 175.089844 L 274.988281 175.679688 L 275.742188 176.273438 L 276.492188 176.863281 L 277.246094 177.457031 L 278 177.949219 L 278.75 178.542969 L 279.503906 179.136719 L 280.253906 179.726562 L 281.007812 180.417969 L 281.761719 181.011719 L 282.511719 181.601562 "/>
</g>
<g clip-path="url(#clip10)" clip-rule="nonzero">
<path style="fill:none;stroke-width:1.062992;stroke-linecap:butt;stroke-linejoin:round;stroke:rgb(0%,0%,0%);stroke-opacity:1;stroke-miterlimit:1;" d="M 300.574219 182.027344 L 301.324219 179.625 L 302.832031 175.296875 L 303.582031 173.371094 L 304.335938 171.6875 L 305.089844 170.246094 L 305.839844 168.804688 L 306.59375 167.601562 L 307.34375 166.640625 L 308.097656 165.675781 L 308.851562 164.714844 L 309.601562 164.234375 L 310.355469 163.511719 L 311.109375 163.03125 L 311.859375 162.792969 L 312.613281 162.550781 L 315.621094 162.550781 L 316.375 162.792969 L 317.128906 163.273438 L 317.878906 163.511719 L 318.632812 163.992188 L 319.382812 164.472656 L 320.890625 165.917969 L 321.640625 166.640625 L 322.394531 167.359375 L 323.148438 168.082031 L 323.898438 169.042969 L 324.652344 170.003906 L 325.402344 170.96875 L 326.910156 172.890625 L 327.660156 174.09375 L 329.167969 176.5 L 329.917969 177.699219 L 330.671875 178.902344 L 331.421875 180.105469 L 332.175781 181.308594 L 332.929688 182.75 L 333.679688 184.195312 L 334.433594 185.394531 L 335.1875 186.839844 L 335.9375 188.28125 L 336.691406 189.722656 L 337.441406 191.167969 L 338.195312 192.609375 L 338.949219 194.054688 L 339.699219 195.738281 L 340.453125 197.179688 L 341.207031 198.863281 L 341.957031 200.304688 L 342.710938 201.75 L 343.460938 203.433594 L 344.214844 205.113281 L 344.96875 206.558594 L 345.71875 208.242188 L 346.472656 209.925781 L 347.226562 211.367188 L 347.976562 213.050781 L 348.730469 214.734375 L 349.480469 216.417969 L 350.234375 217.859375 L 350.988281 219.542969 L 351.738281 221.226562 L 353.246094 224.59375 L 353.996094 226.277344 L 354.75 227.960938 L 355.5 229.402344 L 357.007812 232.769531 L 357.757812 234.453125 L 359.265625 237.820312 L 360.015625 239.261719 L 361.523438 242.628906 L 362.273438 244.3125 L 363.027344 245.753906 L 363.777344 247.4375 L 365.285156 250.804688 L 366.035156 252.25 L 366.789062 253.933594 L 367.542969 255.375 L 368.292969 257.058594 L 369.046875 258.742188 L 369.796875 260.183594 L 370.550781 261.867188 L 371.304688 263.308594 L 372.054688 264.992188 L 372.808594 266.4375 L 373.5625 267.878906 L 374.3125 269.5625 "/>
</g>
<g clip-path="url(#clip11)" clip-rule="nonzero">
<path style="fill:none;stroke-width:1.062992;stroke-linecap:butt;stroke-linejoin:round;stroke:rgb(0%,0%,0%);stroke-opacity:1;stroke-miterlimit:1;" d="M 392.375 269.5625 L 393.125 262.363281 L 393.878906 255.167969 L 394.632812 248.929688 L 395.382812 242.691406 L 396.136719 236.929688 L 396.886719 231.171875 L 397.640625 225.894531 L 398.394531 221.09375 L 399.144531 216.296875 L 399.898438 211.976562 L 400.652344 208.140625 L 401.402344 203.820312 L 402.15625 200.460938 L 402.90625 197.101562 L 403.660156 193.742188 L 404.414062 190.863281 L 405.164062 187.984375 L 405.917969 185.105469 L 406.671875 182.707031 L 407.421875 180.304688 L 408.175781 178.386719 L 408.925781 176.46875 L 409.679688 174.546875 L 410.433594 173.109375 L 411.183594 171.667969 L 411.9375 170.230469 L 412.691406 168.789062 L 413.441406 167.828125 L 414.195312 166.871094 L 414.945312 165.910156 L 415.699219 164.949219 L 416.453125 164.46875 L 417.203125 163.988281 L 417.957031 163.511719 L 418.710938 163.03125 L 419.460938 163.03125 L 420.214844 162.550781 L 422.472656 162.550781 L 423.222656 163.03125 L 423.976562 163.03125 L 424.730469 163.511719 L 425.480469 163.988281 L 426.234375 164.46875 L 426.984375 164.949219 L 428.492188 165.910156 L 429.242188 166.390625 L 429.996094 167.347656 L 430.75 168.308594 L 431.5 168.789062 L 432.253906 169.75 L 433.003906 170.707031 L 434.511719 172.628906 L 435.261719 173.585938 L 436.015625 174.546875 L 436.769531 175.988281 L 437.519531 176.945312 L 438.273438 177.90625 L 439.023438 179.347656 L 439.777344 180.304688 L 440.53125 181.746094 L 441.28125 183.183594 L 442.035156 184.144531 L 442.789062 185.585938 L 443.539062 187.023438 L 444.292969 188.464844 L 445.042969 189.902344 L 445.796875 191.34375 L 446.550781 192.78125 L 447.300781 193.742188 L 448.054688 195.660156 L 448.808594 197.101562 L 449.558594 198.542969 L 450.3125 199.980469 L 451.0625 201.421875 L 451.816406 202.859375 L 452.570312 204.300781 L 453.320312 205.738281 L 454.074219 207.660156 L 454.828125 209.097656 L 455.578125 210.539062 L 456.332031 211.976562 L 457.082031 213.417969 L 457.835938 215.335938 L 458.589844 216.777344 L 459.339844 218.214844 L 460.09375 220.136719 L 460.847656 221.574219 L 461.597656 223.015625 L 462.351562 224.453125 L 463.101562 226.375 L 463.855469 227.8125 L 464.609375 229.253906 L 465.359375 231.171875 L 466.113281 232.613281 "/>
</g>
<g clip-path="url(#clip12)" clip-rule="nonzero">
<path style="fill:none;stroke-width:1.062992;stroke-linecap:butt;stroke-linejoin:round;stroke:rgb(0%,0%,0%);stroke-opacity:1;stroke-miterlimit:1;" d="M 484.171875 206.121094 L 484.925781 201.726562 L 485.679688 197.519531 L 486.429688 193.699219 L 487.183594 190.257812 L 487.9375 187.011719 L 488.6875 184.144531 L 489.441406 181.277344 L 490.191406 178.792969 L 490.945312 176.5 L 491.699219 174.398438 L 492.449219 172.679688 L 493.203125 170.957031 L 493.957031 169.429688 L 494.707031 168.09375 L 495.460938 166.945312 L 496.210938 165.992188 L 496.964844 165.035156 L 497.71875 164.269531 L 498.46875 163.695312 L 499.222656 163.316406 L 499.976562 162.933594 L 500.726562 162.550781 L 502.984375 162.550781 L 503.738281 162.742188 L 504.488281 162.933594 L 505.242188 163.316406 L 505.996094 163.695312 L 506.746094 164.269531 L 507.5 164.84375 L 508.25 165.417969 L 509.003906 166.179688 L 509.757812 166.945312 L 510.507812 167.710938 L 511.261719 168.664062 L 512.015625 169.621094 L 512.765625 170.578125 L 513.519531 171.53125 L 514.269531 172.679688 L 515.023438 173.824219 L 515.777344 174.972656 L 516.527344 176.308594 L 517.28125 177.648438 L 518.035156 178.792969 L 518.785156 180.324219 L 519.539062 181.660156 L 520.289062 182.996094 L 521.042969 184.527344 L 521.796875 185.863281 L 522.546875 187.394531 L 524.054688 190.449219 L 524.804688 192.171875 L 525.558594 193.699219 L 526.308594 195.226562 L 527.0625 196.949219 L 527.816406 198.667969 L 528.566406 200.195312 L 529.320312 201.914062 L 530.074219 203.636719 L 530.824219 205.355469 L 531.578125 207.074219 L 532.328125 208.796875 L 533.835938 212.234375 L 534.585938 214.144531 L 535.339844 215.867188 L 536.09375 217.585938 L 536.84375 219.304688 L 537.597656 221.214844 L 538.347656 222.9375 L 539.101562 224.847656 L 539.855469 226.566406 L 540.605469 228.285156 L 541.359375 230.199219 L 542.113281 231.917969 L 542.863281 233.828125 L 543.617188 235.546875 L 544.367188 237.460938 L 545.121094 239.179688 L 545.875 241.089844 L 546.625 242.808594 L 547.378906 244.71875 L 548.132812 246.441406 L 548.882812 248.160156 L 549.636719 250.070312 L 550.386719 251.792969 L 551.140625 253.703125 L 551.894531 255.421875 L 552.644531 257.140625 L 553.398438 259.050781 L 554.152344 260.773438 L 554.902344 262.492188 L 555.65625 264.210938 L 556.40625 265.933594 L 557.160156 267.652344 L 557.914062 269.5625 "/>
</g>
<g clip-path="url(#clip13)" clip-rule="nonzero">
<path style="fill:none;stroke-width:1.062992;stroke-linecap:butt;stroke-linejoin:round;stroke:rgb(0%,0%,0%);stroke-opacity:1;stroke-miterlimit:1;" d="M 25.171875 405.164062 L 25.925781 397.078125 L 26.679688 389.625 L 27.429688 382.652344 L 28.183594 376.152344 L 28.9375 369.96875 L 29.6875 364.261719 L 30.441406 358.871094 L 31.191406 353.796875 L 31.945312 349.039062 L 32.699219 344.601562 L 33.449219 340.480469 L 34.203125 336.675781 L 34.957031 333.027344 L 35.707031 329.699219 L 36.460938 326.6875 L 37.210938 323.675781 L 37.964844 320.980469 L 38.71875 318.441406 L 39.46875 316.222656 L 40.222656 314.003906 L 40.976562 312.101562 L 41.726562 310.359375 L 42.480469 308.613281 L 43.230469 307.1875 L 43.984375 305.761719 L 44.738281 304.492188 L 45.488281 303.382812 L 46.242188 302.429688 L 46.996094 301.636719 L 47.746094 300.847656 L 48.5 300.210938 L 49.25 299.578125 L 50.003906 299.101562 L 50.757812 298.785156 L 51.507812 298.46875 L 52.261719 298.308594 L 53.015625 298.308594 L 53.765625 298.152344 L 54.519531 298.308594 L 55.269531 298.308594 L 56.023438 298.625 L 56.777344 298.785156 L 57.527344 299.101562 L 58.28125 299.578125 L 59.035156 299.894531 L 59.785156 300.371094 L 60.539062 301.003906 L 61.289062 301.480469 L 62.042969 302.113281 L 62.796875 302.90625 L 63.546875 303.539062 L 65.054688 305.125 L 65.804688 305.917969 L 66.558594 306.871094 L 67.308594 307.820312 L 68.0625 308.613281 L 68.816406 309.722656 L 69.566406 310.675781 L 70.320312 311.625 L 71.074219 312.734375 L 71.824219 313.847656 L 72.578125 314.957031 L 73.328125 316.066406 L 74.082031 317.175781 L 74.835938 318.441406 L 75.585938 319.554688 L 76.339844 320.820312 L 77.09375 322.089844 L 77.84375 323.359375 L 78.597656 324.625 L 79.347656 325.894531 L 80.101562 327.164062 L 80.855469 328.429688 L 81.605469 329.699219 L 82.359375 331.125 L 83.113281 332.394531 L 83.863281 333.820312 L 84.617188 335.089844 L 85.367188 336.515625 L 86.121094 337.785156 L 86.875 339.210938 L 87.625 340.636719 L 88.378906 341.90625 L 89.132812 343.332031 L 89.882812 344.761719 L 90.636719 346.1875 L 91.386719 347.613281 L 92.140625 349.039062 L 92.894531 350.46875 L 93.644531 351.734375 L 94.398438 353.164062 L 95.152344 354.589844 L 95.902344 356.015625 L 96.65625 357.441406 L 97.40625 358.871094 L 98.914062 361.722656 "/>
</g>
<g clip-path="url(#clip14)" clip-rule="nonzero">
<path style="fill:none;stroke-width:1.062992;stroke-linecap:butt;stroke-linejoin:round;stroke:rgb(0%,0%,0%);stroke-opacity:1;stroke-miterlimit:1;" d="M 116.972656 405.164062 L 117.726562 399.886719 L 118.476562 394.902344 L 119.230469 390.0625 L 119.984375 385.519531 L 120.734375 381.269531 L 121.488281 377.164062 L 122.242188 373.207031 L 122.992188 369.394531 L 123.746094 365.875 L 124.496094 362.359375 L 126.003906 355.90625 L 126.753906 352.976562 L 128.261719 347.40625 L 129.011719 344.765625 L 129.765625 342.273438 L 130.515625 339.929688 L 131.269531 337.582031 L 132.023438 335.386719 L 132.773438 333.332031 L 134.28125 329.519531 L 135.03125 327.617188 L 135.785156 326.003906 L 136.539062 324.242188 L 137.289062 322.777344 L 138.042969 321.164062 L 138.792969 319.847656 L 139.546875 318.378906 L 140.300781 317.0625 L 141.050781 315.886719 L 142.558594 313.542969 L 143.308594 312.515625 L 144.0625 311.492188 L 144.8125 310.609375 L 145.566406 309.585938 L 146.320312 308.707031 L 147.070312 307.972656 L 147.824219 307.238281 L 148.578125 306.507812 L 149.328125 305.773438 L 150.082031 305.039062 L 150.832031 304.453125 L 151.585938 303.867188 L 152.339844 303.429688 L 153.089844 302.839844 L 153.84375 302.402344 L 154.597656 301.960938 L 155.347656 301.523438 L 156.101562 301.082031 L 156.851562 300.789062 L 158.359375 300.203125 L 159.109375 299.910156 L 159.863281 299.617188 L 160.617188 299.46875 L 161.367188 299.175781 L 162.121094 299.03125 L 162.871094 298.882812 L 163.625 298.738281 L 164.378906 298.589844 L 165.128906 298.445312 L 165.882812 298.445312 L 166.636719 298.296875 L 168.140625 298.296875 L 168.890625 298.152344 L 170.398438 298.152344 L 171.148438 298.296875 L 172.65625 298.296875 L 173.40625 298.445312 L 174.160156 298.445312 L 174.910156 298.589844 L 175.664062 298.589844 L 176.417969 298.738281 L 177.167969 298.882812 L 177.921875 299.03125 L 178.675781 299.03125 L 179.425781 299.175781 L 180.179688 299.324219 L 180.929688 299.46875 L 181.683594 299.761719 L 182.4375 299.910156 L 183.1875 300.054688 L 183.941406 300.203125 L 184.695312 300.496094 L 185.445312 300.644531 L 186.199219 300.789062 L 186.949219 301.082031 L 187.703125 301.230469 L 188.457031 301.523438 L 189.207031 301.667969 L 189.960938 301.960938 L 190.714844 302.109375 "/>
</g>
<g clip-path="url(#clip15)" clip-rule="nonzero">
<path style="fill:none;stroke-width:1.062992;stroke-linecap:butt;stroke-linejoin:round;stroke:rgb(0%,0%,0%);stroke-opacity:1;stroke-miterlimit:1;" d="M 208.773438 340.535156 L 209.527344 335.917969 L 210.277344 331.582031 L 211.03125 327.667969 L 211.785156 324.167969 L 212.535156 320.8125 L 213.289062 317.875 L 214.039062 315.214844 L 214.792969 312.839844 L 215.546875 310.601562 L 216.296875 308.640625 L 217.050781 306.824219 L 217.804688 305.285156 L 218.554688 303.886719 L 219.308594 302.625 L 220.058594 301.648438 L 220.8125 300.667969 L 221.566406 299.96875 L 222.316406 299.269531 L 223.070312 298.851562 L 223.824219 298.429688 L 224.574219 298.289062 L 225.328125 298.152344 L 226.832031 298.152344 L 227.585938 298.289062 L 228.335938 298.570312 L 229.089844 298.988281 L 229.84375 299.410156 L 230.59375 299.828125 L 231.347656 300.390625 L 232.097656 301.089844 L 232.851562 301.789062 L 233.605469 302.625 L 234.355469 303.464844 L 235.109375 304.304688 L 235.863281 305.285156 L 236.613281 306.265625 L 237.367188 307.382812 L 238.117188 308.363281 L 238.871094 309.621094 L 239.625 310.742188 L 240.375 312 L 241.882812 314.515625 L 242.632812 315.917969 L 243.386719 317.175781 L 244.136719 318.574219 L 244.890625 320.113281 L 245.644531 321.511719 L 246.394531 323.050781 L 247.148438 324.449219 L 247.902344 325.988281 L 248.652344 327.527344 L 249.40625 329.066406 L 250.15625 330.742188 L 250.910156 332.28125 L 251.664062 333.960938 L 252.414062 335.640625 L 253.167969 337.179688 L 253.921875 338.855469 L 254.671875 340.535156 L 255.425781 342.214844 L 256.175781 344.03125 L 257.683594 347.390625 L 258.433594 349.207031 L 259.941406 352.566406 L 260.691406 354.382812 L 261.445312 356.203125 L 262.195312 357.882812 L 262.949219 359.699219 L 263.703125 361.378906 L 264.453125 363.195312 L 265.207031 365.015625 L 265.960938 366.695312 L 266.710938 368.511719 L 267.464844 370.332031 L 268.214844 372.011719 L 268.96875 373.828125 L 269.722656 375.648438 L 270.472656 377.324219 L 271.226562 379.144531 L 271.980469 380.960938 L 272.730469 382.640625 L 273.484375 384.460938 L 274.234375 386.136719 L 274.988281 387.957031 L 275.742188 389.636719 L 276.492188 391.453125 L 277.246094 393.132812 L 278 394.949219 L 278.75 396.628906 L 279.503906 398.308594 L 280.253906 400.125 L 281.761719 403.484375 L 282.511719 405.164062 "/>
</g>
<g clip-path="url(#clip16)" clip-rule="nonzero">
<path style="fill:none;stroke-width:1.062992;stroke-linecap:butt;stroke-linejoin:round;stroke:rgb(0%,0%,0%);stroke-opacity:1;stroke-miterlimit:1;" d="M 300.574219 405.164062 L 301.324219 397.027344 L 302.078125 389.65625 L 302.832031 382.957031 L 303.582031 376.78125 L 304.335938 371.085938 L 305.089844 365.824219 L 305.839844 360.988281 L 306.59375 356.441406 L 307.34375 352.277344 L 308.097656 348.355469 L 308.851562 344.71875 L 309.601562 341.320312 L 310.355469 338.160156 L 311.109375 335.191406 L 311.859375 332.417969 L 312.613281 329.785156 L 313.363281 327.34375 L 314.117188 325.09375 L 314.871094 322.941406 L 315.621094 320.929688 L 316.375 319.066406 L 317.128906 317.292969 L 317.878906 315.667969 L 318.632812 314.136719 L 319.382812 312.699219 L 320.136719 311.359375 L 320.890625 310.117188 L 321.640625 308.917969 L 322.394531 307.867188 L 323.148438 306.8125 L 323.898438 305.902344 L 324.652344 305.042969 L 325.402344 304.230469 L 326.15625 303.464844 L 326.910156 302.792969 L 327.660156 302.171875 L 328.414062 301.597656 L 329.167969 301.117188 L 329.917969 300.640625 L 330.671875 300.207031 L 331.421875 299.824219 L 332.175781 299.492188 L 332.929688 299.203125 L 333.679688 298.964844 L 334.433594 298.726562 L 335.1875 298.582031 L 335.9375 298.4375 L 336.691406 298.292969 L 337.441406 298.246094 L 338.949219 298.152344 L 339.699219 298.152344 L 341.207031 298.246094 L 341.957031 298.34375 L 342.710938 298.4375 L 343.460938 298.582031 L 344.214844 298.726562 L 344.96875 298.867188 L 345.71875 299.058594 L 346.472656 299.300781 L 347.226562 299.539062 L 347.976562 299.777344 L 348.730469 300.015625 L 349.480469 300.304688 L 350.234375 300.589844 L 350.988281 300.878906 L 351.738281 301.214844 L 352.492188 301.546875 L 353.246094 301.882812 L 353.996094 302.21875 L 354.75 302.601562 L 355.5 302.984375 L 357.007812 303.75 L 357.757812 304.179688 L 358.511719 304.5625 L 359.265625 304.996094 L 360.015625 305.425781 L 360.769531 305.855469 L 361.523438 306.335938 L 362.273438 306.765625 L 363.027344 307.242188 L 363.777344 307.722656 L 364.53125 308.152344 L 365.285156 308.632812 L 366.035156 309.109375 L 366.789062 309.636719 L 367.542969 310.117188 L 368.292969 310.59375 L 369.046875 311.121094 L 369.796875 311.597656 L 370.550781 312.125 L 371.304688 312.605469 L 372.054688 313.128906 L 372.808594 313.65625 L 373.5625 314.136719 L 374.3125 314.660156 "/>
</g>
<g clip-path="url(#clip17)" clip-rule="nonzero">
<path style="fill:none;stroke-width:1.062992;stroke-linecap:butt;stroke-linejoin:round;stroke:rgb(0%,0%,0%);stroke-opacity:1;stroke-miterlimit:1;" d="M 392.375 315.148438 L 393.125 312.832031 L 393.878906 310.898438 L 394.632812 308.96875 L 395.382812 307.421875 L 396.136719 305.878906 L 396.886719 304.71875 L 397.640625 303.171875 L 398.394531 302.398438 L 399.144531 301.242188 L 400.652344 299.695312 L 401.402344 299.308594 L 402.15625 298.921875 L 402.90625 298.535156 L 403.660156 298.152344 L 406.671875 298.152344 L 407.421875 298.535156 L 408.175781 298.921875 L 408.925781 298.921875 L 409.679688 299.695312 L 410.433594 300.082031 L 411.183594 300.46875 L 412.691406 302.015625 L 413.441406 302.785156 L 414.195312 303.558594 L 414.945312 304.332031 L 415.699219 305.105469 L 416.453125 306.261719 L 417.203125 307.035156 L 418.710938 309.355469 L 419.460938 310.511719 L 420.214844 311.285156 L 420.964844 312.832031 L 421.71875 313.988281 L 422.472656 315.148438 L 423.222656 316.308594 L 423.976562 317.851562 L 424.730469 319.011719 L 425.480469 320.558594 L 426.234375 321.714844 L 426.984375 323.261719 L 427.738281 324.421875 L 428.492188 325.964844 L 429.242188 327.511719 L 429.996094 329.058594 L 430.75 330.601562 L 431.5 331.761719 L 432.253906 333.304688 L 433.003906 334.851562 L 433.757812 336.398438 L 434.511719 337.941406 L 435.261719 339.875 L 436.015625 341.417969 L 436.769531 342.964844 L 437.519531 344.507812 L 438.273438 346.054688 L 439.023438 347.601562 L 439.777344 349.144531 L 440.53125 351.078125 L 441.28125 352.621094 L 442.789062 355.714844 L 443.539062 357.257812 L 444.292969 359.191406 L 445.042969 360.734375 L 445.796875 362.28125 L 446.550781 363.824219 L 447.300781 365.371094 L 448.054688 367.304688 L 448.808594 368.847656 L 449.558594 370.394531 L 450.3125 371.9375 L 451.0625 373.871094 L 451.816406 375.414062 L 452.570312 376.960938 L 453.320312 378.507812 L 454.074219 380.050781 L 454.828125 381.597656 L 455.578125 383.527344 L 456.332031 385.074219 L 457.082031 386.621094 L 457.835938 388.164062 L 458.589844 389.710938 L 459.339844 391.253906 L 460.09375 392.800781 L 460.847656 394.34375 L 461.597656 395.890625 L 462.351562 397.4375 L 463.101562 398.980469 L 463.855469 400.527344 L 464.609375 402.070312 L 465.359375 403.617188 L 466.113281 405.164062 "/>
</g>
<g clip-path="url(#clip18)" clip-rule="nonzero">
<path style="fill:none;stroke-width:1.062992;stroke-linecap:butt;stroke-linejoin:round;stroke:rgb(0%,0%,0%);stroke-opacity:1;stroke-miterlimit:1;" d="M 484.171875 298.152344 L 484.925781 298.894531 L 485.679688 299.640625 L 486.429688 300.761719 L 487.183594 301.507812 L 487.9375 302.625 L 488.6875 303.371094 L 489.441406 304.488281 L 490.191406 305.609375 L 490.945312 306.355469 L 491.699219 307.472656 L 492.449219 308.589844 L 493.203125 309.710938 L 493.957031 310.828125 L 494.707031 311.945312 L 495.460938 313.066406 L 496.210938 314.183594 L 496.964844 315.300781 L 497.71875 316.421875 L 498.46875 317.539062 L 499.222656 318.65625 L 499.976562 319.777344 L 500.726562 320.894531 L 501.480469 322.015625 L 502.230469 323.132812 L 502.984375 324.625 L 503.738281 325.742188 L 504.488281 326.859375 L 505.242188 327.980469 L 505.996094 329.472656 L 506.746094 330.589844 L 507.5 331.707031 L 508.25 332.828125 L 509.003906 334.320312 L 509.757812 335.4375 L 510.507812 336.554688 L 511.261719 337.675781 L 512.015625 339.164062 L 512.765625 340.285156 L 513.519531 341.402344 L 514.269531 342.894531 L 515.023438 344.011719 L 515.777344 345.132812 L 516.527344 346.25 L 517.28125 347.742188 L 518.035156 348.859375 L 518.785156 349.980469 L 519.539062 351.097656 L 520.289062 352.589844 L 521.796875 354.824219 L 522.546875 355.945312 L 523.300781 357.4375 L 524.054688 358.554688 L 524.804688 359.671875 L 525.558594 360.792969 L 526.308594 361.910156 L 527.0625 363.027344 L 527.816406 364.148438 L 528.566406 365.265625 L 529.320312 366.757812 L 530.074219 367.875 L 530.824219 368.996094 L 531.578125 370.113281 L 532.328125 371.230469 L 533.082031 372.351562 L 533.835938 373.46875 L 534.585938 374.585938 L 535.339844 375.707031 L 536.09375 376.824219 L 536.84375 377.570312 L 537.597656 378.6875 L 538.347656 379.808594 L 539.101562 380.925781 L 539.855469 382.046875 L 540.605469 383.164062 L 541.359375 384.28125 L 542.113281 385.027344 L 542.863281 386.148438 L 543.617188 387.265625 L 544.367188 388.011719 L 545.121094 389.128906 L 545.875 390.25 L 546.625 391.367188 L 547.378906 392.113281 L 548.132812 393.230469 L 548.882812 393.976562 L 549.636719 395.09375 L 550.386719 395.839844 L 551.140625 396.960938 L 551.894531 398.078125 L 552.644531 398.824219 L 553.398438 399.570312 L 554.152344 400.6875 L 554.902344 401.433594 L 555.65625 402.550781 L 556.40625 403.296875 L 557.160156 404.042969 L 557.914062 405.164062 "/>
</g>
</g>
</svg>
